<?xml version="1.0" encoding="UTF-8" standalone="no"?>
<!DOCTYPE svg PUBLIC "-//W3C//DTD SVG 1.1//EN"
 "http://www.w3.org/Graphics/SVG/1.1/DTD/svg11.dtd">
<!-- Generated by graphviz version 2.38.0 (20140413.2041)
 -->
<!-- Title: ArbiterSemanticVersion Pages: 1 -->
<svg width="195pt" height="122pt"
 viewBox="0.00 0.00 195.34 122.00" xmlns="http://www.w3.org/2000/svg" xmlns:xlink="http://www.w3.org/1999/xlink">
<g id="graph0" class="graph" transform="scale(1 1) rotate(0) translate(4 118)">
<title>ArbiterSemanticVersion</title>
<polygon fill="white" stroke="none" points="-4,4 -4,-118 191.343,-118 191.343,4 -4,4"/>
<!-- Node1 -->
<g id="node1" class="node"><title>Node1</title>
<polygon fill="#bfbfbf" stroke="black" points="42.7993,-0.5 42.7993,-18.5 163.296,-18.5 163.296,-0.5 42.7993,-0.5"/>
<text text-anchor="middle" x="103.048" y="-6.5" font-family="Helvetica,sans-Serif" font-size="10.00">ArbiterSemanticVersion</text>
</g>
<!-- Node2 -->
<g id="node2" class="node"><title>Node2</title>
<g id="a_node2"><a xlink:href="struct_arbiter_1_1_optional.html" target="_top" xlink:title="Arbiter::Optional\&lt;\l std::string \&gt;">
<polygon fill="white" stroke="black" points="0,-85.5 0,-113.5 94.0957,-113.5 94.0957,-85.5 0,-85.5"/>
<text text-anchor="start" x="8" y="-101.5" font-family="Helvetica,sans-Serif" font-size="10.00">Arbiter::Optional&lt;</text>
<text text-anchor="middle" x="47.0479" y="-91.5" font-family="Helvetica,sans-Serif" font-size="10.00"> std::string &gt;</text>
</a>
</g>
</g>
<!-- Node2&#45;&gt;Node1 -->
<g id="edge1" class="edge"><title>Node2&#45;&gt;Node1</title>
<path fill="none" stroke="#9a32cd" stroke-dasharray="5,2" d="M41.8961,-75.1308C40.493,-62.8714 40.9748,-48.1309 48.0977,-37 53.5781,-28.4357 62.6756,-22.5681 71.9067,-18.579"/>
<polygon fill="#9a32cd" stroke="#9a32cd" points="38.4573,-75.7918 43.4948,-85.1124 45.3692,-74.6847 38.4573,-75.7918"/>
<text text-anchor="middle" x="93.5229" y="-54" font-family="Helvetica,sans-Serif" font-size="10.00"> _prereleaseVersion</text>
<text text-anchor="middle" x="93.5229" y="-44" font-family="Helvetica,sans-Serif" font-size="10.00">_buildMetadata</text>
</g>
<!-- Node3 -->
<g id="node3" class="node"><title>Node3</title>
<polygon fill="white" stroke="#bfbfbf" points="130.752,-90.5 130.752,-108.5 187.343,-108.5 187.343,-90.5 130.752,-90.5"/>
<text text-anchor="middle" x="159.048" y="-96.5" font-family="Helvetica,sans-Serif" font-size="10.00">unsigned</text>
</g>
<!-- Node3&#45;&gt;Node1 -->
<g id="edge2" class="edge"><title>Node3&#45;&gt;Node1</title>
<path fill="none" stroke="#9a32cd" stroke-dasharray="5,2" d="M155.374,-80.1971C152.121,-67.239 146.402,-49.9343 137.048,-37 131.697,-29.6017 123.725,-23.2364 116.844,-18.5998"/>
<polygon fill="#9a32cd" stroke="#9a32cd" points="152.024,-81.2547 157.628,-90.2466 158.855,-79.723 152.024,-81.2547"/>
<text text-anchor="middle" x="168.72" y="-59" font-family="Helvetica,sans-Serif" font-size="10.00"> _minor</text>
<text text-anchor="middle" x="168.72" y="-49" font-family="Helvetica,sans-Serif" font-size="10.00">_patch</text>
<text text-anchor="middle" x="168.72" y="-39" font-family="Helvetica,sans-Serif" font-size="10.00">_major</text>
</g>
</g>
</svg>
