<?xml version="1.0" encoding="UTF-8" standalone="no"?>
<!DOCTYPE svg PUBLIC "-//W3C//DTD SVG 1.1//EN"
 "http://www.w3.org/Graphics/SVG/1.1/DTD/svg11.dtd">
<!-- Generated by graphviz version 2.38.0 (20140413.2041)
 -->
<!-- Title: ArbiterDependency Pages: 1 -->
<svg width="149pt" height="157pt"
 viewBox="0.00 0.00 149.31 157.00" xmlns="http://www.w3.org/2000/svg" xmlns:xlink="http://www.w3.org/1999/xlink">
<g id="graph0" class="graph" transform="scale(1 1) rotate(0) translate(4 153)">
<title>ArbiterDependency</title>
<polygon fill="white" stroke="none" points="-4,4 -4,-153 145.313,-153 145.313,4 -4,4"/>
<!-- Node1 -->
<g id="node1" class="node"><title>Node1</title>
<polygon fill="#bfbfbf" stroke="black" points="13.8013,-0.5 13.8013,-18.5 115.407,-18.5 115.407,-0.5 13.8013,-0.5"/>
<text text-anchor="middle" x="64.604" y="-6.5" font-family="Helvetica,sans-Serif" font-size="10.00">ArbiterDependency</text>
</g>
<!-- Node2 -->
<g id="node2" class="node"><title>Node2</title>
<g id="a_node2"><a xlink:href="struct_arbiter_project_identifier.html" target="_top" xlink:title="An opaque value which identifies a project participating in dependency resolution. ">
<polygon fill="white" stroke="black" points="7.13867,-65.5 7.13867,-83.5 122.069,-83.5 122.069,-65.5 7.13867,-65.5"/>
<text text-anchor="middle" x="64.604" y="-71.5" font-family="Helvetica,sans-Serif" font-size="10.00">ArbiterProjectIdentifier</text>
</a>
</g>
</g>
<!-- Node2&#45;&gt;Node1 -->
<g id="edge1" class="edge"><title>Node2&#45;&gt;Node1</title>
<path fill="none" stroke="#9a32cd" stroke-dasharray="5,2" d="M64.604,-54.9075C64.604,-42.8146 64.604,-27.6529 64.604,-18.539"/>
<polygon fill="#9a32cd" stroke="#9a32cd" points="61.1041,-55.2638 64.604,-65.2639 68.1041,-55.2639 61.1041,-55.2638"/>
<text text-anchor="middle" x="102.958" y="-39" font-family="Helvetica,sans-Serif" font-size="10.00"> _projectIdentifier</text>
</g>
<!-- Node3 -->
<g id="node3" class="node"><title>Node3</title>
<g id="a_node3"><a xlink:href="class_arbiter_1_1_shared_user_value.html" target="_top" xlink:title="Expresses shared ownership of opaque user&#45;provided data, which was originally described in an Arbiter...">
<polygon fill="white" stroke="black" points="0,-130.5 0,-148.5 129.208,-148.5 129.208,-130.5 0,-130.5"/>
<text text-anchor="middle" x="64.604" y="-136.5" font-family="Helvetica,sans-Serif" font-size="10.00">Arbiter::SharedUserValue</text>
</a>
</g>
</g>
<!-- Node3&#45;&gt;Node2 -->
<g id="edge2" class="edge"><title>Node3&#45;&gt;Node2</title>
<path fill="none" stroke="#9a32cd" stroke-dasharray="5,2" d="M64.604,-119.907C64.604,-107.815 64.604,-92.6529 64.604,-83.539"/>
<polygon fill="#9a32cd" stroke="#9a32cd" points="61.1041,-120.264 64.604,-130.264 68.1041,-120.264 61.1041,-120.264"/>
<text text-anchor="middle" x="80.7271" y="-104" font-family="Helvetica,sans-Serif" font-size="10.00"> _value</text>
</g>
</g>
</svg>
