<?xml version="1.0" encoding="UTF-8" standalone="no"?>
<!DOCTYPE svg PUBLIC "-//W3C//DTD SVG 1.1//EN"
 "http://www.w3.org/Graphics/SVG/1.1/DTD/svg11.dtd">
<!-- Generated by graphviz version 2.38.0 (20140413.2041)
 -->
<!-- Title: ArbiterDependencyListFetch Pages: 1 -->
<svg width="428pt" height="252pt"
 viewBox="0.00 0.00 427.50 252.00" xmlns="http://www.w3.org/2000/svg" xmlns:xlink="http://www.w3.org/1999/xlink">
<g id="graph0" class="graph" transform="scale(1 1) rotate(0) translate(4 248)">
<title>ArbiterDependencyListFetch</title>
<polygon fill="white" stroke="none" points="-4,4 -4,-248 423.503,-248 423.503,4 -4,4"/>
<!-- Node1 -->
<g id="node1" class="node"><title>Node1</title>
<polygon fill="#bfbfbf" stroke="black" points="187.959,-0.5 187.959,-18.5 330.136,-18.5 330.136,-0.5 187.959,-0.5"/>
<text text-anchor="middle" x="259.048" y="-6.5" font-family="Helvetica,sans-Serif" font-size="10.00">ArbiterDependencyListFetch</text>
</g>
<!-- Node2 -->
<g id="node2" class="node"><title>Node2</title>
<g id="a_node2"><a xlink:href="struct_arbiter_selected_version.html" target="_top" xlink:title="Represents a &quot;selected&quot; version, which is a concrete choice of a real project version. ">
<polygon fill="white" stroke="black" points="66.1836,-65.5 66.1836,-83.5 183.912,-83.5 183.912,-65.5 66.1836,-65.5"/>
<text text-anchor="middle" x="125.048" y="-71.5" font-family="Helvetica,sans-Serif" font-size="10.00">ArbiterSelectedVersion</text>
</a>
</g>
</g>
<!-- Node2&#45;&gt;Node1 -->
<g id="edge1" class="edge"><title>Node2&#45;&gt;Node1</title>
<path fill="none" stroke="#9a32cd" stroke-dasharray="5,2" d="M144.338,-59.3947C154.978,-52.0503 168.641,-43.3117 181.664,-37 197.127,-29.5063 215.26,-23.1762 230.085,-18.584"/>
<polygon fill="#9a32cd" stroke="#9a32cd" points="142,-56.7614 135.858,-65.3939 146.043,-62.476 142,-56.7614"/>
<text text-anchor="middle" x="218.74" y="-39" font-family="Helvetica,sans-Serif" font-size="10.00"> selectedVersion</text>
</g>
<!-- Node3 -->
<g id="node3" class="node"><title>Node3</title>
<g id="a_node3"><a xlink:href="struct_arbiter_semantic_version.html" target="_top" xlink:title="Represents a semantic version, as defined by semver.org. ">
<polygon fill="white" stroke="black" points="42.7993,-130.5 42.7993,-148.5 163.296,-148.5 163.296,-130.5 42.7993,-130.5"/>
<text text-anchor="middle" x="103.048" y="-136.5" font-family="Helvetica,sans-Serif" font-size="10.00">ArbiterSemanticVersion</text>
</a>
</g>
</g>
<!-- Node3&#45;&gt;Node2 -->
<g id="edge2" class="edge"><title>Node3&#45;&gt;Node2</title>
<path fill="none" stroke="#9a32cd" stroke-dasharray="5,2" d="M101.488,-120.076C101.563,-114.154 102.271,-107.664 104.334,-102 106.812,-95.1965 111.75,-88.7665 116.182,-83.9444"/>
<polygon fill="#9a32cd" stroke="#9a32cd" points="98.005,-120.558 101.933,-130.397 104.998,-120.255 98.005,-120.558"/>
<text text-anchor="middle" x="145.905" y="-104" font-family="Helvetica,sans-Serif" font-size="10.00"> _semanticVersion</text>
</g>
<!-- Node4 -->
<g id="node4" class="node"><title>Node4</title>
<g id="a_node4"><a xlink:href="struct_arbiter_1_1_optional.html" target="_top" xlink:title="Arbiter::Optional\&lt;\l std::string \&gt;">
<polygon fill="white" stroke="black" points="0,-215.5 0,-243.5 94.0957,-243.5 94.0957,-215.5 0,-215.5"/>
<text text-anchor="start" x="8" y="-231.5" font-family="Helvetica,sans-Serif" font-size="10.00">Arbiter::Optional&lt;</text>
<text text-anchor="middle" x="47.0479" y="-221.5" font-family="Helvetica,sans-Serif" font-size="10.00"> std::string &gt;</text>
</a>
</g>
</g>
<!-- Node4&#45;&gt;Node3 -->
<g id="edge3" class="edge"><title>Node4&#45;&gt;Node3</title>
<path fill="none" stroke="#9a32cd" stroke-dasharray="5,2" d="M41.8961,-205.131C40.493,-192.871 40.9748,-178.131 48.0977,-167 53.5781,-158.436 62.6756,-152.568 71.9067,-148.579"/>
<polygon fill="#9a32cd" stroke="#9a32cd" points="38.4573,-205.792 43.4948,-215.112 45.3692,-204.685 38.4573,-205.792"/>
<text text-anchor="middle" x="93.5229" y="-184" font-family="Helvetica,sans-Serif" font-size="10.00"> _prereleaseVersion</text>
<text text-anchor="middle" x="93.5229" y="-174" font-family="Helvetica,sans-Serif" font-size="10.00">_buildMetadata</text>
</g>
<!-- Node5 -->
<g id="node5" class="node"><title>Node5</title>
<polygon fill="white" stroke="#bfbfbf" points="130.752,-220.5 130.752,-238.5 187.343,-238.5 187.343,-220.5 130.752,-220.5"/>
<text text-anchor="middle" x="159.048" y="-226.5" font-family="Helvetica,sans-Serif" font-size="10.00">unsigned</text>
</g>
<!-- Node5&#45;&gt;Node3 -->
<g id="edge4" class="edge"><title>Node5&#45;&gt;Node3</title>
<path fill="none" stroke="#9a32cd" stroke-dasharray="5,2" d="M155.374,-210.197C152.121,-197.239 146.402,-179.934 137.048,-167 131.697,-159.602 123.725,-153.236 116.844,-148.6"/>
<polygon fill="#9a32cd" stroke="#9a32cd" points="152.024,-211.255 157.628,-220.247 158.855,-209.723 152.024,-211.255"/>
<text text-anchor="middle" x="168.72" y="-189" font-family="Helvetica,sans-Serif" font-size="10.00"> _minor</text>
<text text-anchor="middle" x="168.72" y="-179" font-family="Helvetica,sans-Serif" font-size="10.00">_patch</text>
<text text-anchor="middle" x="168.72" y="-169" font-family="Helvetica,sans-Serif" font-size="10.00">_major</text>
</g>
<!-- Node6 -->
<g id="node6" class="node"><title>Node6</title>
<g id="a_node6"><a xlink:href="class_arbiter_1_1_shared_user_value.html" target="_top" xlink:title="Expresses shared ownership of opaque user&#45;provided data, which was originally described in an Arbiter...">
<polygon fill="white" stroke="black" points="216.444,-130.5 216.444,-148.5 345.652,-148.5 345.652,-130.5 216.444,-130.5"/>
<text text-anchor="middle" x="281.048" y="-136.5" font-family="Helvetica,sans-Serif" font-size="10.00">Arbiter::SharedUserValue</text>
</a>
</g>
</g>
<!-- Node6&#45;&gt;Node2 -->
<g id="edge5" class="edge"><title>Node6&#45;&gt;Node2</title>
<path fill="none" stroke="#9a32cd" stroke-dasharray="5,2" d="M251.336,-126.604C239.969,-122.046 226.886,-116.791 215.014,-112 190.942,-102.287 163.275,-91.0513 145.049,-83.64"/>
<polygon fill="#9a32cd" stroke="#9a32cd" points="250.225,-129.929 260.809,-130.401 252.829,-123.432 250.225,-129.929"/>
<text text-anchor="middle" x="240.065" y="-104" font-family="Helvetica,sans-Serif" font-size="10.00"> _metadata</text>
</g>
<!-- Node7 -->
<g id="node7" class="node"><title>Node7</title>
<g id="a_node7"><a xlink:href="struct_arbiter_project_identifier.html" target="_top" xlink:title="An opaque value which identifies a project participating in dependency resolution. ">
<polygon fill="white" stroke="black" points="201.583,-65.5 201.583,-83.5 316.513,-83.5 316.513,-65.5 201.583,-65.5"/>
<text text-anchor="middle" x="259.048" y="-71.5" font-family="Helvetica,sans-Serif" font-size="10.00">ArbiterProjectIdentifier</text>
</a>
</g>
</g>
<!-- Node6&#45;&gt;Node7 -->
<g id="edge7" class="edge"><title>Node6&#45;&gt;Node7</title>
<path fill="none" stroke="#9a32cd" stroke-dasharray="5,2" d="M274.815,-120.652C270.552,-108.442 265.103,-92.8409 261.855,-83.539"/>
<polygon fill="#9a32cd" stroke="#9a32cd" points="271.571,-121.977 278.172,-130.264 278.179,-119.669 271.571,-121.977"/>
<text text-anchor="middle" x="288.171" y="-104" font-family="Helvetica,sans-Serif" font-size="10.00"> _value</text>
</g>
<!-- Node8 -->
<g id="node8" class="node"><title>Node8</title>
<g id="a_node8"><a xlink:href="struct_arbiter_resolver.html" target="_top" xlink:title="A dependency resolver which contains context about how to evaluate the dependency graph...">
<polygon fill="white" stroke="black" points="334.592,-65.5 334.592,-83.5 419.503,-83.5 419.503,-65.5 334.592,-65.5"/>
<text text-anchor="middle" x="377.048" y="-71.5" font-family="Helvetica,sans-Serif" font-size="10.00">ArbiterResolver</text>
</a>
</g>
</g>
<!-- Node6&#45;&gt;Node8 -->
<g id="edge9" class="edge"><title>Node6&#45;&gt;Node8</title>
<path fill="none" stroke="#9a32cd" stroke-dasharray="5,2" d="M301.995,-124.754C321.197,-112.152 348.977,-93.9214 364.798,-83.539"/>
<polygon fill="#9a32cd" stroke="#9a32cd" points="300.038,-121.851 293.598,-130.264 303.879,-127.703 300.038,-121.851"/>
<text text-anchor="middle" x="355.338" y="-104" font-family="Helvetica,sans-Serif" font-size="10.00"> _context</text>
</g>
<!-- Node7&#45;&gt;Node1 -->
<g id="edge6" class="edge"><title>Node7&#45;&gt;Node1</title>
<path fill="none" stroke="#9a32cd" stroke-dasharray="5,2" d="M259.048,-54.9075C259.048,-42.8146 259.048,-27.6529 259.048,-18.539"/>
<polygon fill="#9a32cd" stroke="#9a32cd" points="255.548,-55.2638 259.048,-65.2639 262.548,-55.2639 255.548,-55.2638"/>
<text text-anchor="middle" x="275.444" y="-39" font-family="Helvetica,sans-Serif" font-size="10.00"> project</text>
</g>
<!-- Node8&#45;&gt;Node1 -->
<g id="edge8" class="edge"><title>Node8&#45;&gt;Node1</title>
<path fill="none" stroke="#9a32cd" stroke-dasharray="5,2" d="M352.572,-60.4323C328.938,-47.8145 293.903,-29.1093 274.105,-18.539"/>
<polygon fill="#9a32cd" stroke="#9a32cd" points="351.152,-63.6416 361.621,-65.2639 354.448,-57.4665 351.152,-63.6416"/>
<text text-anchor="middle" x="345.22" y="-39" font-family="Helvetica,sans-Serif" font-size="10.00"> resolver</text>
</g>
</g>
</svg>
