<?xml version="1.0" encoding="UTF-8" standalone="no"?>
<!DOCTYPE svg PUBLIC "-//W3C//DTD SVG 1.1//EN"
 "http://www.w3.org/Graphics/SVG/1.1/DTD/svg11.dtd">
<!-- Generated by graphviz version 2.38.0 (20140413.2041)
 -->
<!-- Title: Arbiter::Requirement::Exactly Pages: 1 -->
<svg width="274pt" height="197pt"
 viewBox="0.00 0.00 273.65 197.00" xmlns="http://www.w3.org/2000/svg" xmlns:xlink="http://www.w3.org/1999/xlink">
<g id="graph0" class="graph" transform="scale(1 1) rotate(0) translate(4 193)">
<title>Arbiter::Requirement::Exactly</title>
<polygon fill="white" stroke="none" points="-4,4 -4,-193 269.647,-193 269.647,4 -4,4"/>
<!-- Node1 -->
<g id="node1" class="node"><title>Node1</title>
<polygon fill="#bfbfbf" stroke="black" points="37.2217,-0.5 37.2217,-28.5 145.482,-28.5 145.482,-0.5 37.2217,-0.5"/>
<text text-anchor="start" x="45.2217" y="-16.5" font-family="Helvetica,sans-Serif" font-size="10.00">Arbiter::Requirement</text>
<text text-anchor="middle" x="91.3521" y="-6.5" font-family="Helvetica,sans-Serif" font-size="10.00">::Exactly</text>
</g>
<!-- Node2 -->
<g id="node2" class="node"><title>Node2</title>
<g id="a_node2"><a xlink:href="struct_arbiter_requirement.html" target="_top" xlink:title="Represents a requirement for a specific version or set of versions. ">
<polygon fill="white" stroke="black" points="0,-75.5 0,-93.5 102.704,-93.5 102.704,-75.5 0,-75.5"/>
<text text-anchor="middle" x="51.3521" y="-81.5" font-family="Helvetica,sans-Serif" font-size="10.00">ArbiterRequirement</text>
</a>
</g>
</g>
<!-- Node2&#45;&gt;Node1 -->
<g id="edge1" class="edge"><title>Node2&#45;&gt;Node1</title>
<path fill="none" stroke="midnightblue" d="M61.2741,-66.6325C68.1692,-54.9109 77.2277,-39.5114 83.5952,-28.6867"/>
<polygon fill="midnightblue" stroke="midnightblue" points="58.1511,-65.0385 56.0977,-75.4325 64.1847,-68.5877 58.1511,-65.0385"/>
</g>
<!-- Node3 -->
<g id="node3" class="node"><title>Node3</title>
<g id="a_node3"><a xlink:href="struct_arbiter_semantic_version.html" target="_top" xlink:title="Represents a semantic version, as defined by semver.org. ">
<polygon fill="white" stroke="black" points="121.104,-75.5 121.104,-93.5 241.601,-93.5 241.601,-75.5 121.104,-75.5"/>
<text text-anchor="middle" x="181.352" y="-81.5" font-family="Helvetica,sans-Serif" font-size="10.00">ArbiterSemanticVersion</text>
</a>
</g>
</g>
<!-- Node3&#45;&gt;Node1 -->
<g id="edge2" class="edge"><title>Node3&#45;&gt;Node1</title>
<path fill="none" stroke="#9a32cd" stroke-dasharray="5,2" d="M162.652,-69.3708C146.813,-57.4041 124.278,-40.3774 108.805,-28.6867"/>
<polygon fill="#9a32cd" stroke="#9a32cd" points="160.586,-72.1966 170.674,-75.4325 164.806,-66.6116 160.586,-72.1966"/>
<text text-anchor="middle" x="165.64" y="-49" font-family="Helvetica,sans-Serif" font-size="10.00"> _version</text>
</g>
<!-- Node4 -->
<g id="node4" class="node"><title>Node4</title>
<g id="a_node4"><a xlink:href="struct_arbiter_1_1_optional.html" target="_top" xlink:title="Arbiter::Optional\&lt;\l std::string \&gt;">
<polygon fill="white" stroke="black" points="78.3042,-160.5 78.3042,-188.5 172.4,-188.5 172.4,-160.5 78.3042,-160.5"/>
<text text-anchor="start" x="86.3042" y="-176.5" font-family="Helvetica,sans-Serif" font-size="10.00">Arbiter::Optional&lt;</text>
<text text-anchor="middle" x="125.352" y="-166.5" font-family="Helvetica,sans-Serif" font-size="10.00"> std::string &gt;</text>
</a>
</g>
</g>
<!-- Node4&#45;&gt;Node3 -->
<g id="edge3" class="edge"><title>Node4&#45;&gt;Node3</title>
<path fill="none" stroke="#9a32cd" stroke-dasharray="5,2" d="M120.2,-150.131C118.797,-137.871 119.279,-123.131 126.402,-112 131.882,-103.436 140.98,-97.5681 150.211,-93.579"/>
<polygon fill="#9a32cd" stroke="#9a32cd" points="116.761,-150.792 121.799,-160.112 123.673,-149.685 116.761,-150.792"/>
<text text-anchor="middle" x="171.827" y="-129" font-family="Helvetica,sans-Serif" font-size="10.00"> _prereleaseVersion</text>
<text text-anchor="middle" x="171.827" y="-119" font-family="Helvetica,sans-Serif" font-size="10.00">_buildMetadata</text>
</g>
<!-- Node5 -->
<g id="node5" class="node"><title>Node5</title>
<polygon fill="white" stroke="#bfbfbf" points="209.057,-165.5 209.057,-183.5 265.647,-183.5 265.647,-165.5 209.057,-165.5"/>
<text text-anchor="middle" x="237.352" y="-171.5" font-family="Helvetica,sans-Serif" font-size="10.00">unsigned</text>
</g>
<!-- Node5&#45;&gt;Node3 -->
<g id="edge4" class="edge"><title>Node5&#45;&gt;Node3</title>
<path fill="none" stroke="#9a32cd" stroke-dasharray="5,2" d="M233.678,-155.197C230.425,-142.239 224.706,-124.934 215.352,-112 210.001,-104.602 202.029,-98.2364 195.149,-93.5998"/>
<polygon fill="#9a32cd" stroke="#9a32cd" points="230.328,-156.255 235.932,-165.247 237.159,-154.723 230.328,-156.255"/>
<text text-anchor="middle" x="246.024" y="-134" font-family="Helvetica,sans-Serif" font-size="10.00"> _minor</text>
<text text-anchor="middle" x="246.024" y="-124" font-family="Helvetica,sans-Serif" font-size="10.00">_patch</text>
<text text-anchor="middle" x="246.024" y="-114" font-family="Helvetica,sans-Serif" font-size="10.00">_major</text>
</g>
</g>
</svg>
