<?xml version="1.0" encoding="UTF-8" standalone="no"?>
<!DOCTYPE svg PUBLIC "-//W3C//DTD SVG 1.1//EN"
 "http://www.w3.org/Graphics/SVG/1.1/DTD/svg11.dtd">
<!-- Generated by graphviz version 2.38.0 (20140413.2041)
 -->
<!-- Title: Arbiter::Requirement::Any Pages: 1 -->
<svg width="139pt" height="137pt"
 viewBox="0.00 0.00 139.05 137.00" xmlns="http://www.w3.org/2000/svg" xmlns:xlink="http://www.w3.org/1999/xlink">
<g id="graph0" class="graph" transform="scale(1 1) rotate(0) translate(4 133)">
<title>Arbiter::Requirement::Any</title>
<polygon fill="white" stroke="none" points="-4,4 -4,-133 135.049,-133 135.049,4 -4,4"/>
<!-- Node1 -->
<g id="node1" class="node"><title>Node1</title>
<polygon fill="#bfbfbf" stroke="black" points="0,-0.5 0,-18.5 131.049,-18.5 131.049,-0.5 0,-0.5"/>
<text text-anchor="middle" x="65.5244" y="-6.5" font-family="Helvetica,sans-Serif" font-size="10.00">Arbiter::Requirement::Any</text>
</g>
<!-- Node2 -->
<g id="node2" class="node"><title>Node2</title>
<g id="a_node2"><a xlink:href="struct_arbiter_requirement.html" target="_top" xlink:title="Represents a requirement for a specific version or set of versions. ">
<polygon fill="white" stroke="black" points="14.1724,-55.5 14.1724,-73.5 116.876,-73.5 116.876,-55.5 14.1724,-55.5"/>
<text text-anchor="middle" x="65.5244" y="-61.5" font-family="Helvetica,sans-Serif" font-size="10.00">ArbiterRequirement</text>
</a>
</g>
</g>
<!-- Node2&#45;&gt;Node1 -->
<g id="edge1" class="edge"><title>Node2&#45;&gt;Node1</title>
<path fill="none" stroke="midnightblue" d="M65.5244,-45.1746C65.5244,-36.0945 65.5244,-25.5949 65.5244,-18.5496"/>
<polygon fill="midnightblue" stroke="midnightblue" points="62.0245,-45.2187 65.5244,-55.2188 69.0245,-45.2188 62.0245,-45.2187"/>
</g>
<!-- Node3 -->
<g id="node3" class="node"><title>Node3</title>
<g id="a_node3"><a xlink:href="class_arbiter_1_1_base.html" target="_top" xlink:title="Base class for public&#45;facing Arbiter types, such that they automatically get freeing, cloning, equality, and description functionality. ">
<polygon fill="white" stroke="black" points="28.623,-110.5 28.623,-128.5 102.426,-128.5 102.426,-110.5 28.623,-110.5"/>
<text text-anchor="middle" x="65.5244" y="-116.5" font-family="Helvetica,sans-Serif" font-size="10.00">Arbiter::Base</text>
</a>
</g>
</g>
<!-- Node3&#45;&gt;Node2 -->
<g id="edge2" class="edge"><title>Node3&#45;&gt;Node2</title>
<path fill="none" stroke="midnightblue" d="M65.5244,-100.175C65.5244,-91.0945 65.5244,-80.5949 65.5244,-73.5496"/>
<polygon fill="midnightblue" stroke="midnightblue" points="62.0245,-100.219 65.5244,-110.219 69.0245,-100.219 62.0245,-100.219"/>
</g>
</g>
</svg>
