<?xml version="1.0" encoding="UTF-8" standalone="no"?>
<!DOCTYPE svg PUBLIC "-//W3C//DTD SVG 1.1//EN"
 "http://www.w3.org/Graphics/SVG/1.1/DTD/svg11.dtd">
<!-- Generated by graphviz version 2.38.0 (20140413.2041)
 -->
<!-- Title: Arbiter::Requirement::Compound Pages: 1 -->
<svg width="285pt" height="177pt"
 viewBox="0.00 0.00 284.95 177.00" xmlns="http://www.w3.org/2000/svg" xmlns:xlink="http://www.w3.org/1999/xlink">
<g id="graph0" class="graph" transform="scale(1 1) rotate(0) translate(4 173)">
<title>Arbiter::Requirement::Compound</title>
<polygon fill="white" stroke="none" points="-4,4 -4,-173 280.953,-173 280.953,4 -4,4"/>
<!-- Node1 -->
<g id="node1" class="node"><title>Node1</title>
<polygon fill="#bfbfbf" stroke="black" points="81.2217,-0.5 81.2217,-28.5 189.482,-28.5 189.482,-0.5 81.2217,-0.5"/>
<text text-anchor="start" x="89.2217" y="-16.5" font-family="Helvetica,sans-Serif" font-size="10.00">Arbiter::Requirement</text>
<text text-anchor="middle" x="135.352" y="-6.5" font-family="Helvetica,sans-Serif" font-size="10.00">::Compound</text>
</g>
<!-- Node2 -->
<g id="node2" class="node"><title>Node2</title>
<g id="a_node2"><a xlink:href="struct_arbiter_requirement.html" target="_top" xlink:title="Represents a requirement for a specific version or set of versions. ">
<polygon fill="white" stroke="black" points="0,-80.5 0,-98.5 102.704,-98.5 102.704,-80.5 0,-80.5"/>
<text text-anchor="middle" x="51.3521" y="-86.5" font-family="Helvetica,sans-Serif" font-size="10.00">ArbiterRequirement</text>
</a>
</g>
</g>
<!-- Node2&#45;&gt;Node1 -->
<g id="edge1" class="edge"><title>Node2&#45;&gt;Node1</title>
<path fill="none" stroke="midnightblue" d="M68.3262,-73.7487C83.568,-60.5028 105.731,-41.242 120.339,-28.547"/>
<polygon fill="midnightblue" stroke="midnightblue" points="65.9146,-71.2074 60.6625,-80.4088 70.5063,-76.491 65.9146,-71.2074"/>
</g>
<!-- Node3 -->
<g id="node3" class="node"><title>Node3</title>
<g id="a_node3"><a xlink:href="class_arbiter_1_1_base.html" target="_top" xlink:title="Base class for public&#45;facing Arbiter types, such that they automatically get freeing, cloning, equality, and description functionality. ">
<polygon fill="white" stroke="black" points="14.4507,-150.5 14.4507,-168.5 88.2534,-168.5 88.2534,-150.5 14.4507,-150.5"/>
<text text-anchor="middle" x="51.3521" y="-156.5" font-family="Helvetica,sans-Serif" font-size="10.00">Arbiter::Base</text>
</a>
</g>
</g>
<!-- Node3&#45;&gt;Node2 -->
<g id="edge2" class="edge"><title>Node3&#45;&gt;Node2</title>
<path fill="none" stroke="midnightblue" d="M51.3521,-140.297C51.3521,-126.702 51.3521,-108.776 51.3521,-98.557"/>
<polygon fill="midnightblue" stroke="midnightblue" points="47.8521,-140.432 51.3521,-150.432 54.8521,-140.433 47.8521,-140.432"/>
</g>
<!-- Node4 -->
<g id="node4" class="node"><title>Node4</title>
<polygon fill="white" stroke="#bfbfbf" points="120.73,-75.5 120.73,-103.5 265.974,-103.5 265.974,-75.5 120.73,-75.5"/>
<text text-anchor="start" x="128.73" y="-91.5" font-family="Helvetica,sans-Serif" font-size="10.00">std::vector&lt; std::shared</text>
<text text-anchor="middle" x="193.352" y="-81.5" font-family="Helvetica,sans-Serif" font-size="10.00">_ptr&lt; ArbiterRequirement &gt; &gt;</text>
</g>
<!-- Node4&#45;&gt;Node1 -->
<g id="edge3" class="edge"><title>Node4&#45;&gt;Node1</title>
<path fill="none" stroke="#9a32cd" stroke-dasharray="5,2" d="M176.603,-67.4191C166.749,-55.0163 154.582,-39.7032 146.024,-28.9318"/>
<polygon fill="#9a32cd" stroke="#9a32cd" points="174.022,-69.7967 182.983,-75.4491 179.502,-65.4422 174.022,-69.7967"/>
<text text-anchor="middle" x="201.702" y="-49" font-family="Helvetica,sans-Serif" font-size="10.00"> _requirements</text>
</g>
<!-- Node5 -->
<g id="node5" class="node"><title>Node5</title>
<polygon fill="white" stroke="#bfbfbf" points="109.751,-150.5 109.751,-168.5 276.953,-168.5 276.953,-150.5 109.751,-150.5"/>
<text text-anchor="middle" x="193.352" y="-156.5" font-family="Helvetica,sans-Serif" font-size="10.00">shared_ptr&lt; ArbiterRequirement &gt;</text>
</g>
<!-- Node5&#45;&gt;Node4 -->
<g id="edge4" class="edge"><title>Node5&#45;&gt;Node4</title>
<path fill="none" stroke="#9a32cd" stroke-dasharray="5,2" d="M193.352,-140.209C193.352,-128.686 193.352,-114.078 193.352,-103.687"/>
<polygon fill="#9a32cd" stroke="#9a32cd" points="189.852,-140.432 193.352,-150.432 196.852,-140.433 189.852,-140.432"/>
<text text-anchor="middle" x="215.029" y="-124" font-family="Helvetica,sans-Serif" font-size="10.00"> elements</text>
</g>
</g>
</svg>
