<?xml version="1.0" encoding="UTF-8" standalone="no"?>
<!DOCTYPE svg PUBLIC "-//W3C//DTD SVG 1.1//EN"
 "http://www.w3.org/Graphics/SVG/1.1/DTD/svg11.dtd">
<!-- Generated by graphviz version 2.38.0 (20140413.2041)
 -->
<!-- Title: Arbiter::PermutationIterator&lt; It &gt; Pages: 1 -->
<svg width="331pt" height="77pt"
 viewBox="0.00 0.00 330.57 77.00" xmlns="http://www.w3.org/2000/svg" xmlns:xlink="http://www.w3.org/1999/xlink">
<g id="graph0" class="graph" transform="scale(1 1) rotate(0) translate(4 73)">
<title>Arbiter::PermutationIterator&lt; It &gt;</title>
<polygon fill="white" stroke="none" points="-4,4 -4,-73 326.57,-73 326.57,4 -4,4"/>
<!-- Node1 -->
<g id="node1" class="node"><title>Node1</title>
<polygon fill="#bfbfbf" stroke="black" points="185.965,-20.5 185.965,-48.5 322.57,-48.5 322.57,-20.5 185.965,-20.5"/>
<text text-anchor="start" x="193.965" y="-36.5" font-family="Helvetica,sans-Serif" font-size="10.00">Arbiter::PermutationIterator</text>
<text text-anchor="middle" x="254.268" y="-26.5" font-family="Helvetica,sans-Serif" font-size="10.00">&lt; It &gt;</text>
</g>
<!-- Node2 -->
<g id="node2" class="node"><title>Node2</title>
<polygon fill="white" stroke="#bfbfbf" points="0,-0.5 0,-68.5 149.965,-68.5 149.965,-0.5 0,-0.5"/>
<text text-anchor="start" x="8" y="-56.5" font-family="Helvetica,sans-Serif" font-size="10.00">std::iterator&lt; std</text>
<text text-anchor="start" x="8" y="-46.5" font-family="Helvetica,sans-Serif" font-size="10.00">::forward_iterator_tag,</text>
<text text-anchor="start" x="8" y="-36.5" font-family="Helvetica,sans-Serif" font-size="10.00"> IteratorResultVector</text>
<text text-anchor="start" x="8" y="-26.5" font-family="Helvetica,sans-Serif" font-size="10.00">&lt; It &gt;, std::ptrdiff_t,</text>
<text text-anchor="start" x="8" y="-16.5" font-family="Helvetica,sans-Serif" font-size="10.00"> IteratorResultVector&lt; It</text>
<text text-anchor="middle" x="74.9824" y="-6.5" font-family="Helvetica,sans-Serif" font-size="10.00"> &gt;, IteratorResultVector&lt; It &gt; &gt;</text>
</g>
<!-- Node2&#45;&gt;Node1 -->
<g id="edge1" class="edge"><title>Node2&#45;&gt;Node1</title>
<path fill="none" stroke="midnightblue" d="M160.212,-34.5C168.831,-34.5 177.505,-34.5 185.908,-34.5"/>
<polygon fill="midnightblue" stroke="midnightblue" points="160.14,-31.0001 150.14,-34.5 160.14,-38.0001 160.14,-31.0001"/>
</g>
</g>
</svg>
