<?xml version="1.0" encoding="UTF-8" standalone="no"?>
<!DOCTYPE svg PUBLIC "-//W3C//DTD SVG 1.1//EN"
 "http://www.w3.org/Graphics/SVG/1.1/DTD/svg11.dtd">
<!-- Generated by graphviz version 2.38.0 (20140413.2041)
 -->
<!-- Title: Arbiter::Requirement::Unversioned Pages: 1 -->
<svg width="264pt" height="168pt"
 viewBox="0.00 0.00 263.56 168.00" xmlns="http://www.w3.org/2000/svg" xmlns:xlink="http://www.w3.org/1999/xlink">
<g id="graph0" class="graph" transform="scale(1 1) rotate(0) translate(4 164)">
<title>Arbiter::Requirement::Unversioned</title>
<polygon fill="white" stroke="none" points="-4,4 -4,-164 259.561,-164 259.561,4 -4,4"/>
<!-- Node0 -->
<g id="node1" class="node"><title>Node0</title>
<polygon fill="#bfbfbf" stroke="black" points="99.2217,-0.5 99.2217,-28.5 207.482,-28.5 207.482,-0.5 99.2217,-0.5"/>
<text text-anchor="start" x="107.222" y="-16.5" font-family="Helvetica,sans-Serif" font-size="10.00">Arbiter::Requirement</text>
<text text-anchor="middle" x="153.352" y="-6.5" font-family="Helvetica,sans-Serif" font-size="10.00">::Unversioned</text>
</g>
<!-- Node1 -->
<g id="node2" class="node"><title>Node1</title>
<g id="a_node2"><a xlink:href="struct_arbiter_requirement.html" target="_top" xlink:title="Represents a requirement for a specific version or set of versions. ">
<polygon fill="white" stroke="black" points="0,-80.5 0,-98.5 102.704,-98.5 102.704,-80.5 0,-80.5"/>
<text text-anchor="middle" x="51.3521" y="-86.5" font-family="Helvetica,sans-Serif" font-size="10.00">ArbiterRequirement</text>
</a>
</g>
</g>
<!-- Node1&#45;&gt;Node0 -->
<g id="edge1" class="edge"><title>Node1&#45;&gt;Node0</title>
<path fill="none" stroke="midnightblue" d="M70.944,-74.4783C89.4715,-61.2184 117.055,-41.4771 135.122,-28.547"/>
<polygon fill="midnightblue" stroke="midnightblue" points="68.7525,-71.7427 62.6576,-80.4088 72.8265,-77.435 68.7525,-71.7427"/>
</g>
<!-- Node2 -->
<g id="node3" class="node"><title>Node2</title>
<g id="a_node3"><a xlink:href="class_arbiter_1_1_base.html" target="_top" xlink:title="Base class for public&#45;facing Arbiter types, such that they automatically get freeing, cloning, equality, and description functionality. ">
<polygon fill="white" stroke="black" points="14.4507,-141.5 14.4507,-159.5 88.2534,-159.5 88.2534,-141.5 14.4507,-141.5"/>
<text text-anchor="middle" x="51.3521" y="-147.5" font-family="Helvetica,sans-Serif" font-size="10.00">Arbiter::Base</text>
</a>
</g>
</g>
<!-- Node2&#45;&gt;Node1 -->
<g id="edge2" class="edge"><title>Node2&#45;&gt;Node1</title>
<path fill="none" stroke="midnightblue" d="M51.3521,-131.112C51.3521,-120.225 51.3521,-106.973 51.3521,-98.634"/>
<polygon fill="midnightblue" stroke="midnightblue" points="47.8521,-131.296 51.3521,-141.296 54.8521,-131.296 47.8521,-131.296"/>
</g>
<!-- Node3 -->
<g id="node4" class="node"><title>Node3</title>
<g id="a_node4"><a xlink:href="class_arbiter_1_1_shared_user_value.html" target="_top" xlink:title="Arbiter::SharedUserValue\l\&lt; ArbiterSelectedVersion \&gt;">
<polygon fill="white" stroke="black" points="121.143,-75.5 121.143,-103.5 255.561,-103.5 255.561,-75.5 121.143,-75.5"/>
<text text-anchor="start" x="129.143" y="-91.5" font-family="Helvetica,sans-Serif" font-size="10.00">Arbiter::SharedUserValue</text>
<text text-anchor="middle" x="188.352" y="-81.5" font-family="Helvetica,sans-Serif" font-size="10.00">&lt; ArbiterSelectedVersion &gt;</text>
</a>
</g>
</g>
<!-- Node3&#45;&gt;Node0 -->
<g id="edge3" class="edge"><title>Node3&#45;&gt;Node0</title>
<path fill="none" stroke="#9a32cd" stroke-dasharray="5,2" d="M177.727,-66.3387C171.876,-54.1366 164.807,-39.3925 159.792,-28.9318"/>
<polygon fill="#9a32cd" stroke="#9a32cd" points="174.615,-67.9451 182.095,-75.4491 180.927,-64.9187 174.615,-67.9451"/>
<text text-anchor="middle" x="198.369" y="-49" font-family="Helvetica,sans-Serif" font-size="10.00"> _metadata</text>
</g>
</g>
</svg>
