<?xml version="1.0" encoding="UTF-8" standalone="no"?>
<!DOCTYPE svg PUBLIC "-//W3C//DTD SVG 1.1//EN"
 "http://www.w3.org/Graphics/SVG/1.1/DTD/svg11.dtd">
<!-- Generated by graphviz version 2.38.0 (20140413.2041)
 -->
<!-- Title: Arbiter::Requirement::Prioritized Pages: 1 -->
<svg width="296pt" height="158pt"
 viewBox="0.00 0.00 295.95 158.00" xmlns="http://www.w3.org/2000/svg" xmlns:xlink="http://www.w3.org/1999/xlink">
<g id="graph0" class="graph" transform="scale(1 1) rotate(0) translate(4 154)">
<title>Arbiter::Requirement::Prioritized</title>
<polygon fill="white" stroke="none" points="-4,4 -4,-154 291.953,-154 291.953,4 -4,4"/>
<!-- Node0 -->
<g id="node1" class="node"><title>Node0</title>
<polygon fill="#bfbfbf" stroke="black" points="111.222,-0.5 111.222,-28.5 219.482,-28.5 219.482,-0.5 111.222,-0.5"/>
<text text-anchor="start" x="119.222" y="-16.5" font-family="Helvetica,sans-Serif" font-size="10.00">Arbiter::Requirement</text>
<text text-anchor="middle" x="165.352" y="-6.5" font-family="Helvetica,sans-Serif" font-size="10.00">::Prioritized</text>
</g>
<!-- Node1 -->
<g id="node2" class="node"><title>Node1</title>
<g id="a_node2"><a xlink:href="struct_arbiter_requirement.html" target="_top" xlink:title="Represents a requirement for a specific version or set of versions. ">
<polygon fill="white" stroke="black" points="0,-75.5 0,-93.5 102.704,-93.5 102.704,-75.5 0,-75.5"/>
<text text-anchor="middle" x="51.3521" y="-81.5" font-family="Helvetica,sans-Serif" font-size="10.00">ArbiterRequirement</text>
</a>
</g>
</g>
<!-- Node1&#45;&gt;Node0 -->
<g id="edge1" class="edge"><title>Node1&#45;&gt;Node0</title>
<path fill="none" stroke="midnightblue" d="M73.6598,-70.1936C93.7748,-58.1952 123.192,-40.648 143.245,-28.6867"/>
<polygon fill="midnightblue" stroke="midnightblue" points="71.6722,-67.3038 64.877,-75.4325 75.2582,-73.3155 71.6722,-67.3038"/>
</g>
<!-- Node2 -->
<g id="node3" class="node"><title>Node2</title>
<g id="a_node3"><a xlink:href="class_arbiter_1_1_base.html" target="_top" xlink:title="Base class for public&#45;facing Arbiter types, such that they automatically get freeing, cloning, equality, and description functionality. ">
<polygon fill="white" stroke="black" points="14.4507,-131.5 14.4507,-149.5 88.2534,-149.5 88.2534,-131.5 14.4507,-131.5"/>
<text text-anchor="middle" x="51.3521" y="-137.5" font-family="Helvetica,sans-Serif" font-size="10.00">Arbiter::Base</text>
</a>
</g>
</g>
<!-- Node2&#45;&gt;Node1 -->
<g id="edge2" class="edge"><title>Node2&#45;&gt;Node1</title>
<path fill="none" stroke="midnightblue" d="M51.3521,-120.829C51.3521,-111.577 51.3521,-100.88 51.3521,-93.7014"/>
<polygon fill="midnightblue" stroke="midnightblue" points="47.8521,-121.062 51.3521,-131.062 54.8521,-121.063 47.8521,-121.062"/>
</g>
<!-- Node3 -->
<g id="node4" class="node"><title>Node3</title>
<polygon fill="white" stroke="#bfbfbf" points="120.751,-75.5 120.751,-93.5 287.953,-93.5 287.953,-75.5 120.751,-75.5"/>
<text text-anchor="middle" x="204.352" y="-81.5" font-family="Helvetica,sans-Serif" font-size="10.00">shared_ptr&lt; ArbiterRequirement &gt;</text>
</g>
<!-- Node3&#45;&gt;Node0 -->
<g id="edge3" class="edge"><title>Node3&#45;&gt;Node0</title>
<path fill="none" stroke="#9a32cd" stroke-dasharray="5,2" d="M194.678,-66.6325C187.955,-54.9109 179.123,-39.5114 172.915,-28.6867"/>
<polygon fill="#9a32cd" stroke="#9a32cd" points="191.714,-68.4992 199.725,-75.4325 197.786,-65.0166 191.714,-68.4992"/>
<text text-anchor="middle" x="219.202" y="-49" font-family="Helvetica,sans-Serif" font-size="10.00"> _requirement</text>
</g>
</g>
</svg>
