<?xml version="1.0" encoding="UTF-8" standalone="no"?>
<!DOCTYPE svg PUBLIC "-//W3C//DTD SVG 1.1//EN"
 "http://www.w3.org/Graphics/SVG/1.1/DTD/svg11.dtd">
<!-- Generated by graphviz version 2.38.0 (20140413.2041)
 -->
<!-- Title: Arbiter::Requirement::Custom Pages: 1 -->
<svg width="116pt" height="147pt"
 viewBox="0.00 0.00 116.26 147.00" xmlns="http://www.w3.org/2000/svg" xmlns:xlink="http://www.w3.org/1999/xlink">
<g id="graph0" class="graph" transform="scale(1 1) rotate(0) translate(4 143)">
<title>Arbiter::Requirement::Custom</title>
<polygon fill="white" stroke="none" points="-4,4 -4,-143 112.261,-143 112.261,4 -4,4"/>
<!-- Node0 -->
<g id="node1" class="node"><title>Node0</title>
<polygon fill="#bfbfbf" stroke="black" points="0,-0.5 0,-28.5 108.261,-28.5 108.261,-0.5 0,-0.5"/>
<text text-anchor="start" x="8" y="-16.5" font-family="Helvetica,sans-Serif" font-size="10.00">Arbiter::Requirement</text>
<text text-anchor="middle" x="54.1304" y="-6.5" font-family="Helvetica,sans-Serif" font-size="10.00">::Custom</text>
</g>
<!-- Node1 -->
<g id="node2" class="node"><title>Node1</title>
<g id="a_node2"><a xlink:href="struct_arbiter_requirement.html" target="_top" xlink:title="Represents a requirement for a specific version or set of versions. ">
<polygon fill="white" stroke="black" points="2.77832,-65.5 2.77832,-83.5 105.482,-83.5 105.482,-65.5 2.77832,-65.5"/>
<text text-anchor="middle" x="54.1304" y="-71.5" font-family="Helvetica,sans-Serif" font-size="10.00">ArbiterRequirement</text>
</a>
</g>
</g>
<!-- Node1&#45;&gt;Node0 -->
<g id="edge1" class="edge"><title>Node1&#45;&gt;Node0</title>
<path fill="none" stroke="midnightblue" d="M54.1304,-55.3209C54.1304,-46.747 54.1304,-36.6999 54.1304,-28.8428"/>
<polygon fill="midnightblue" stroke="midnightblue" points="50.6305,-55.4353 54.1304,-65.4353 57.6305,-55.4354 50.6305,-55.4353"/>
</g>
<!-- Node2 -->
<g id="node3" class="node"><title>Node2</title>
<g id="a_node3"><a xlink:href="class_arbiter_1_1_base.html" target="_top" xlink:title="Base class for public&#45;facing Arbiter types, such that they automatically get freeing, cloning, equality, and description functionality. ">
<polygon fill="white" stroke="black" points="17.229,-120.5 17.229,-138.5 91.0317,-138.5 91.0317,-120.5 17.229,-120.5"/>
<text text-anchor="middle" x="54.1304" y="-126.5" font-family="Helvetica,sans-Serif" font-size="10.00">Arbiter::Base</text>
</a>
</g>
</g>
<!-- Node2&#45;&gt;Node1 -->
<g id="edge2" class="edge"><title>Node2&#45;&gt;Node1</title>
<path fill="none" stroke="midnightblue" d="M54.1304,-110.175C54.1304,-101.094 54.1304,-90.5949 54.1304,-83.5496"/>
<polygon fill="midnightblue" stroke="midnightblue" points="50.6305,-110.219 54.1304,-120.219 57.6305,-110.219 50.6305,-110.219"/>
</g>
</g>
</svg>
