<?xml version="1.0" encoding="UTF-8" standalone="no"?>
<!DOCTYPE svg PUBLIC "-//W3C//DTD SVG 1.1//EN"
 "http://www.w3.org/Graphics/SVG/1.1/DTD/svg11.dtd">
<!-- Generated by graphviz version 2.38.0 (20140413.2041)
 -->
<!-- Title: Graphical Class Hierarchy Pages: 1 -->
<svg width="428pt" height="371pt"
 viewBox="0.00 0.00 428.15 371.00" xmlns="http://www.w3.org/2000/svg" xmlns:xlink="http://www.w3.org/1999/xlink">
<g id="graph0" class="graph" transform="scale(1 1) rotate(0) translate(4 367)">
<title>Graphical Class Hierarchy</title>
<polygon fill="white" stroke="none" points="-4,4 -4,-367 424.146,-367 424.146,4 -4,4"/>
<!-- Node1 -->
<g id="node1" class="node"><title>Node1</title>
<g id="a_node1"><a xlink:href="class_arbiter_1_1_base.html" target="_top" xlink:title="Base class for public&#45;facing Arbiter types, such that they automatically get freeing, cloning, equality, and description functionality. ">
<polygon fill="white" stroke="black" points="0,-174.5 0,-192.5 73.8027,-192.5 73.8027,-174.5 0,-174.5"/>
<text text-anchor="middle" x="36.9014" y="-180.5" font-family="Helvetica,sans-Serif" font-size="10.00">Arbiter::Base</text>
</a>
</g>
</g>
<!-- Node2 -->
<g id="node2" class="node"><title>Node2</title>
<g id="a_node2"><a xlink:href="struct_arbiter_dependency.html" target="_top" xlink:title="Represents a dependency specification, which consists of a project identifier and a version requireme...">
<polygon fill="white" stroke="black" points="130.647,-343.5 130.647,-361.5 232.253,-361.5 232.253,-343.5 130.647,-343.5"/>
<text text-anchor="middle" x="181.45" y="-349.5" font-family="Helvetica,sans-Serif" font-size="10.00">ArbiterDependency</text>
</a>
</g>
</g>
<!-- Node1&#45;&gt;Node2 -->
<g id="edge1" class="edge"><title>Node1&#45;&gt;Node2</title>
<path fill="none" stroke="midnightblue" d="M41.5161,-202.542C48.6523,-234.755 67.6646,-299.868 109.803,-334.5 115.767,-339.402 122.901,-342.99 130.307,-345.612"/>
<polygon fill="midnightblue" stroke="midnightblue" points="44.9182,-201.71 39.4688,-192.624 38.0627,-203.125 44.9182,-201.71"/>
</g>
<!-- Node3 -->
<g id="node3" class="node"><title>Node3</title>
<g id="a_node3"><a xlink:href="struct_arbiter_dependency_list.html" target="_top" xlink:title="Represents a list of dependencies. ">
<polygon fill="white" stroke="black" points="122.867,-306.5 122.867,-324.5 240.034,-324.5 240.034,-306.5 122.867,-306.5"/>
<text text-anchor="middle" x="181.45" y="-312.5" font-family="Helvetica,sans-Serif" font-size="10.00">ArbiterDependencyList</text>
</a>
</g>
</g>
<!-- Node1&#45;&gt;Node3 -->
<g id="edge2" class="edge"><title>Node1&#45;&gt;Node3</title>
<path fill="none" stroke="midnightblue" d="M44.5409,-202.139C54.6057,-227.649 76.1889,-273.054 109.803,-297.5 114.818,-301.148 120.502,-304.059 126.415,-306.381"/>
<polygon fill="midnightblue" stroke="midnightblue" points="47.728,-200.67 40.9311,-192.543 41.1762,-203.135 47.728,-200.67"/>
</g>
<!-- Node4 -->
<g id="node4" class="node"><title>Node4</title>
<g id="a_node4"><a xlink:href="struct_arbiter_project_identifier.html" target="_top" xlink:title="An opaque value which identifies a project participating in dependency resolution. ">
<polygon fill="white" stroke="black" points="123.985,-269.5 123.985,-287.5 238.916,-287.5 238.916,-269.5 123.985,-269.5"/>
<text text-anchor="middle" x="181.45" y="-275.5" font-family="Helvetica,sans-Serif" font-size="10.00">ArbiterProjectIdentifier</text>
</a>
</g>
</g>
<!-- Node1&#45;&gt;Node4 -->
<g id="edge3" class="edge"><title>Node1&#45;&gt;Node4</title>
<path fill="none" stroke="midnightblue" d="M49.6,-200.982C62.341,-218.647 84.3382,-245.424 109.803,-260.5 116.011,-264.175 122.957,-267.107 130.004,-269.443"/>
<polygon fill="midnightblue" stroke="midnightblue" points="52.4038,-198.884 43.8117,-192.685 46.6628,-202.889 52.4038,-198.884"/>
</g>
<!-- Node5 -->
<g id="node5" class="node"><title>Node5</title>
<g id="a_node5"><a xlink:href="struct_arbiter_requirement.html" target="_top" xlink:title="Represents a requirement for a specific version or set of versions. ">
<polygon fill="white" stroke="black" points="130.098,-232.5 130.098,-250.5 232.802,-250.5 232.802,-232.5 130.098,-232.5"/>
<text text-anchor="middle" x="181.45" y="-238.5" font-family="Helvetica,sans-Serif" font-size="10.00">ArbiterRequirement</text>
</a>
</g>
</g>
<!-- Node1&#45;&gt;Node5 -->
<g id="edge4" class="edge"><title>Node1&#45;&gt;Node5</title>
<path fill="none" stroke="midnightblue" d="M60.4696,-198.043C74.2759,-206.429 92.5478,-216.637 109.803,-223.5 118.623,-227.009 128.339,-230.006 137.669,-232.491"/>
<polygon fill="midnightblue" stroke="midnightblue" points="62.0338,-194.895 51.6921,-192.593 58.3409,-200.841 62.0338,-194.895"/>
</g>
<!-- Node12 -->
<g id="node12" class="node"><title>Node12</title>
<g id="a_node12"><a xlink:href="struct_arbiter_resolved_dependency.html" target="_top" xlink:title="Represents a dependency which has been resolved to a specific version. ">
<polygon fill="white" stroke="black" points="109.803,-195.5 109.803,-213.5 253.098,-213.5 253.098,-195.5 109.803,-195.5"/>
<text text-anchor="middle" x="181.45" y="-201.5" font-family="Helvetica,sans-Serif" font-size="10.00">ArbiterResolvedDependency</text>
</a>
</g>
</g>
<!-- Node1&#45;&gt;Node12 -->
<g id="edge11" class="edge"><title>Node1&#45;&gt;Node12</title>
<path fill="none" stroke="midnightblue" d="M83.9064,-190.277C95.1704,-191.937 107.402,-193.739 119.253,-195.485"/>
<polygon fill="midnightblue" stroke="midnightblue" points="84.2758,-186.794 73.8725,-188.799 83.2555,-193.719 84.2758,-186.794"/>
</g>
<!-- Node13 -->
<g id="node13" class="node"><title>Node13</title>
<g id="a_node13"><a xlink:href="struct_arbiter_resolved_dependency_graph.html" target="_top" xlink:title="Represents a resolved dependency graph, preserving relationships between dependencies. ">
<polygon fill="white" stroke="black" points="109.803,-148.5 109.803,-176.5 253.098,-176.5 253.098,-148.5 109.803,-148.5"/>
<text text-anchor="start" x="117.803" y="-164.5" font-family="Helvetica,sans-Serif" font-size="10.00">ArbiterResolvedDependency</text>
<text text-anchor="middle" x="181.45" y="-154.5" font-family="Helvetica,sans-Serif" font-size="10.00">Graph</text>
</a>
</g>
</g>
<!-- Node1&#45;&gt;Node13 -->
<g id="edge12" class="edge"><title>Node1&#45;&gt;Node13</title>
<path fill="none" stroke="midnightblue" d="M83.9973,-176.709C92.2395,-175.495 100.997,-174.205 109.743,-172.916"/>
<polygon fill="midnightblue" stroke="midnightblue" points="83.2555,-173.281 73.8725,-178.201 84.2758,-180.206 83.2555,-173.281"/>
</g>
<!-- Node14 -->
<g id="node14" class="node"><title>Node14</title>
<g id="a_node14"><a xlink:href="struct_arbiter_resolver.html" target="_top" xlink:title="A dependency resolver which contains context about how to evaluate the dependency graph...">
<polygon fill="white" stroke="black" points="138.995,-111.5 138.995,-129.5 223.906,-129.5 223.906,-111.5 138.995,-111.5"/>
<text text-anchor="middle" x="181.45" y="-117.5" font-family="Helvetica,sans-Serif" font-size="10.00">ArbiterResolver</text>
</a>
</g>
</g>
<!-- Node1&#45;&gt;Node14 -->
<g id="edge13" class="edge"><title>Node1&#45;&gt;Node14</title>
<path fill="none" stroke="midnightblue" d="M58.6322,-168.605C72.55,-159.173 91.6042,-147.322 109.803,-139.5 119.021,-135.538 129.278,-132.212 139.054,-129.506"/>
<polygon fill="midnightblue" stroke="midnightblue" points="56.5138,-165.815 50.2885,-174.388 60.5013,-171.568 56.5138,-165.815"/>
</g>
<!-- Node15 -->
<g id="node15" class="node"><title>Node15</title>
<g id="a_node15"><a xlink:href="struct_arbiter_selected_version.html" target="_top" xlink:title="Represents a &quot;selected&quot; version, which is a concrete choice of a real project version. ">
<polygon fill="white" stroke="black" points="122.586,-74.5 122.586,-92.5 240.314,-92.5 240.314,-74.5 122.586,-74.5"/>
<text text-anchor="middle" x="181.45" y="-80.5" font-family="Helvetica,sans-Serif" font-size="10.00">ArbiterSelectedVersion</text>
</a>
</g>
</g>
<!-- Node1&#45;&gt;Node15 -->
<g id="edge14" class="edge"><title>Node1&#45;&gt;Node15</title>
<path fill="none" stroke="midnightblue" d="M48.773,-165.717C61.2026,-146.911 83.2935,-117.76 109.803,-101.5 115.845,-97.794 122.624,-94.8481 129.529,-92.507"/>
<polygon fill="midnightblue" stroke="midnightblue" points="45.7559,-163.939 43.3257,-174.251 51.6563,-167.705 45.7559,-163.939"/>
</g>
<!-- Node16 -->
<g id="node16" class="node"><title>Node16</title>
<g id="a_node16"><a xlink:href="struct_arbiter_selected_version_list.html" target="_top" xlink:title="Represents a list of selected versions. ">
<polygon fill="white" stroke="black" points="114.805,-37.5 114.805,-55.5 248.095,-55.5 248.095,-37.5 114.805,-37.5"/>
<text text-anchor="middle" x="181.45" y="-43.5" font-family="Helvetica,sans-Serif" font-size="10.00">ArbiterSelectedVersionList</text>
</a>
</g>
</g>
<!-- Node1&#45;&gt;Node16 -->
<g id="edge15" class="edge"><title>Node1&#45;&gt;Node16</title>
<path fill="none" stroke="midnightblue" d="M44.0375,-164.798C53.7059,-138.327 75.0472,-90.2897 109.803,-64.5 114.783,-60.8043 120.445,-57.8639 126.346,-55.525"/>
<polygon fill="midnightblue" stroke="midnightblue" points="40.6784,-163.802 40.7013,-174.397 47.2904,-166.1 40.6784,-163.802"/>
</g>
<!-- Node17 -->
<g id="node17" class="node"><title>Node17</title>
<g id="a_node17"><a xlink:href="struct_arbiter_semantic_version.html" target="_top" xlink:title="Represents a semantic version, as defined by semver.org. ">
<polygon fill="white" stroke="black" points="121.202,-0.5 121.202,-18.5 241.699,-18.5 241.699,-0.5 121.202,-0.5"/>
<text text-anchor="middle" x="181.45" y="-6.5" font-family="Helvetica,sans-Serif" font-size="10.00">ArbiterSemanticVersion</text>
</a>
</g>
</g>
<!-- Node1&#45;&gt;Node17 -->
<g id="edge16" class="edge"><title>Node1&#45;&gt;Node17</title>
<path fill="none" stroke="midnightblue" d="M41.2241,-164.313C47.9874,-131.222 66.5421,-63.5106 109.803,-27.5 114.18,-23.8561 119.202,-20.9371 124.506,-18.6007"/>
<polygon fill="midnightblue" stroke="midnightblue" points="37.7234,-163.989 39.3024,-174.466 44.6013,-165.291 37.7234,-163.989"/>
</g>
<!-- Node6 -->
<g id="node6" class="node"><title>Node6</title>
<g id="a_node6"><a xlink:href="class_arbiter_1_1_requirement_1_1_any.html" target="_top" xlink:title="A requirement satisfied by any version. ">
<polygon fill="white" stroke="black" points="289.098,-344.5 289.098,-362.5 420.146,-362.5 420.146,-344.5 289.098,-344.5"/>
<text text-anchor="middle" x="354.622" y="-350.5" font-family="Helvetica,sans-Serif" font-size="10.00">Arbiter::Requirement::Any</text>
</a>
</g>
</g>
<!-- Node5&#45;&gt;Node6 -->
<g id="edge5" class="edge"><title>Node5&#45;&gt;Node6</title>
<path fill="none" stroke="midnightblue" d="M242.281,-253.404C246.144,-255.415 249.8,-257.762 253.098,-260.5 281.543,-284.121 260.762,-311.747 289.098,-335.5 293.465,-339.161 298.524,-342.08 303.851,-344.407"/>
<polygon fill="midnightblue" stroke="midnightblue" points="243.527,-250.128 232.964,-249.297 240.703,-256.534 243.527,-250.128"/>
</g>
<!-- Node7 -->
<g id="node7" class="node"><title>Node7</title>
<g id="a_node7"><a xlink:href="class_arbiter_1_1_requirement_1_1_at_least.html" target="_top" xlink:title="A requirement satisfied only by versions greater than or equal to the specified one. ">
<polygon fill="white" stroke="black" points="300.492,-297.5 300.492,-325.5 408.752,-325.5 408.752,-297.5 300.492,-297.5"/>
<text text-anchor="start" x="308.492" y="-313.5" font-family="Helvetica,sans-Serif" font-size="10.00">Arbiter::Requirement</text>
<text text-anchor="middle" x="354.622" y="-303.5" font-family="Helvetica,sans-Serif" font-size="10.00">::AtLeast</text>
</a>
</g>
</g>
<!-- Node5&#45;&gt;Node7 -->
<g id="edge6" class="edge"><title>Node5&#45;&gt;Node7</title>
<path fill="none" stroke="midnightblue" d="M236.469,-253.608C242.205,-255.603 247.853,-257.889 253.098,-260.5 271.243,-269.533 271.326,-278.751 289.098,-288.5 295.145,-291.817 301.765,-294.812 308.386,-297.46"/>
<polygon fill="midnightblue" stroke="midnightblue" points="237.379,-250.225 226.789,-250.521 235.253,-256.894 237.379,-250.225"/>
</g>
<!-- Node8 -->
<g id="node8" class="node"><title>Node8</title>
<g id="a_node8"><a xlink:href="class_arbiter_1_1_requirement_1_1_compatible_with.html" target="_top" xlink:title="A requirement satisfied only by versions which are &quot;compatible with&quot; the specified one...">
<polygon fill="white" stroke="black" points="300.492,-250.5 300.492,-278.5 408.752,-278.5 408.752,-250.5 300.492,-250.5"/>
<text text-anchor="start" x="308.492" y="-266.5" font-family="Helvetica,sans-Serif" font-size="10.00">Arbiter::Requirement</text>
<text text-anchor="middle" x="354.622" y="-256.5" font-family="Helvetica,sans-Serif" font-size="10.00">::CompatibleWith</text>
</a>
</g>
</g>
<!-- Node5&#45;&gt;Node8 -->
<g id="edge7" class="edge"><title>Node5&#45;&gt;Node8</title>
<path fill="none" stroke="midnightblue" d="M243.05,-249.643C261.721,-252.151 282.131,-254.894 300.276,-257.332"/>
<polygon fill="midnightblue" stroke="midnightblue" points="243.259,-246.139 232.882,-248.276 242.326,-253.077 243.259,-246.139"/>
</g>
<!-- Node9 -->
<g id="node9" class="node"><title>Node9</title>
<g id="a_node9"><a xlink:href="class_arbiter_1_1_requirement_1_1_compound.html" target="_top" xlink:title="Arbiter::Requirement\l::Compound">
<polygon fill="white" stroke="black" points="300.492,-203.5 300.492,-231.5 408.752,-231.5 408.752,-203.5 300.492,-203.5"/>
<text text-anchor="start" x="308.492" y="-219.5" font-family="Helvetica,sans-Serif" font-size="10.00">Arbiter::Requirement</text>
<text text-anchor="middle" x="354.622" y="-209.5" font-family="Helvetica,sans-Serif" font-size="10.00">::Compound</text>
</a>
</g>
</g>
<!-- Node5&#45;&gt;Node9 -->
<g id="edge8" class="edge"><title>Node5&#45;&gt;Node9</title>
<path fill="none" stroke="midnightblue" d="M242.791,-233.04C261.532,-230.412 282.047,-227.536 300.276,-224.98"/>
<polygon fill="midnightblue" stroke="midnightblue" points="242.299,-229.574 232.882,-234.429 243.271,-236.507 242.299,-229.574"/>
</g>
<!-- Node10 -->
<g id="node10" class="node"><title>Node10</title>
<g id="a_node10"><a xlink:href="class_arbiter_1_1_requirement_1_1_custom.html" target="_top" xlink:title="Arbiter::Requirement\l::Custom">
<polygon fill="white" stroke="black" points="300.492,-156.5 300.492,-184.5 408.752,-184.5 408.752,-156.5 300.492,-156.5"/>
<text text-anchor="start" x="308.492" y="-172.5" font-family="Helvetica,sans-Serif" font-size="10.00">Arbiter::Requirement</text>
<text text-anchor="middle" x="354.622" y="-162.5" font-family="Helvetica,sans-Serif" font-size="10.00">::Custom</text>
</a>
</g>
</g>
<!-- Node5&#45;&gt;Node10 -->
<g id="edge9" class="edge"><title>Node5&#45;&gt;Node10</title>
<path fill="none" stroke="midnightblue" d="M239.532,-229.253C244.215,-227.561 248.796,-225.652 253.098,-223.5 271.473,-214.309 271.238,-204.657 289.098,-194.5 295.643,-190.778 302.874,-187.434 310.058,-184.508"/>
<polygon fill="midnightblue" stroke="midnightblue" points="238.248,-225.99 229.833,-232.428 240.426,-232.643 238.248,-225.99"/>
</g>
<!-- Node11 -->
<g id="node11" class="node"><title>Node11</title>
<g id="a_node11"><a xlink:href="class_arbiter_1_1_requirement_1_1_exactly.html" target="_top" xlink:title="A requirement satisfied only by one particular semantic version. ">
<polygon fill="white" stroke="black" points="300.492,-109.5 300.492,-137.5 408.752,-137.5 408.752,-109.5 300.492,-109.5"/>
<text text-anchor="start" x="308.492" y="-125.5" font-family="Helvetica,sans-Serif" font-size="10.00">Arbiter::Requirement</text>
<text text-anchor="middle" x="354.622" y="-115.5" font-family="Helvetica,sans-Serif" font-size="10.00">::Exactly</text>
</a>
</g>
</g>
<!-- Node5&#45;&gt;Node11 -->
<g id="edge10" class="edge"><title>Node5&#45;&gt;Node11</title>
<path fill="none" stroke="midnightblue" d="M242.282,-230.497C246.144,-228.528 249.8,-226.216 253.098,-223.5 281.948,-199.739 261.554,-172.764 289.098,-147.5 293.325,-143.622 298.236,-140.355 303.425,-137.605"/>
<polygon fill="midnightblue" stroke="midnightblue" points="240.776,-227.334 232.966,-234.493 243.536,-233.767 240.776,-227.334"/>
</g>
</g>
</svg>
