<?xml version="1.0" encoding="UTF-8" standalone="no"?>
<!DOCTYPE svg PUBLIC "-//W3C//DTD SVG 1.1//EN"
 "http://www.w3.org/Graphics/SVG/1.1/DTD/svg11.dtd">
<!-- Generated by graphviz version 2.38.0 (20140413.2041)
 -->
<!-- Title: Graphical Class Hierarchy Pages: 1 -->
<svg width="428pt" height="465pt"
 viewBox="0.00 0.00 428.15 465.00" xmlns="http://www.w3.org/2000/svg" xmlns:xlink="http://www.w3.org/1999/xlink">
<g id="graph0" class="graph" transform="scale(1 1) rotate(0) translate(4 461)">
<title>Graphical Class Hierarchy</title>
<polygon fill="white" stroke="none" points="-4,4 -4,-461 424.146,-461 424.146,4 -4,4"/>
<!-- Node0 -->
<g id="node1" class="node"><title>Node0</title>
<g id="a_node1"><a xlink:href="class_arbiter_1_1_base.html" target="_top" xlink:title="Base class for public&#45;facing Arbiter types, such that they automatically get freeing, cloning, equality, and description functionality. ">
<polygon fill="white" stroke="black" points="0,-200.5 0,-218.5 73.8027,-218.5 73.8027,-200.5 0,-200.5"/>
<text text-anchor="middle" x="36.9014" y="-206.5" font-family="Helvetica,sans-Serif" font-size="10.00">Arbiter::Base</text>
</a>
</g>
</g>
<!-- Node1 -->
<g id="node2" class="node"><title>Node1</title>
<g id="a_node2"><a xlink:href="struct_arbiter_dependency.html" target="_top" xlink:title="Represents a dependency specification, which consists of a project identifier and a version requireme...">
<polygon fill="white" stroke="black" points="130.647,-390.5 130.647,-408.5 232.253,-408.5 232.253,-390.5 130.647,-390.5"/>
<text text-anchor="middle" x="181.45" y="-396.5" font-family="Helvetica,sans-Serif" font-size="10.00">ArbiterDependency</text>
</a>
</g>
</g>
<!-- Node0&#45;&gt;Node1 -->
<g id="edge1" class="edge"><title>Node0&#45;&gt;Node1</title>
<path fill="none" stroke="midnightblue" d="M40.2992,-228.65C45.8042,-264.288 62.716,-340.85 109.803,-381.5 115.743,-386.628 122.949,-390.328 130.461,-392.991"/>
<polygon fill="midnightblue" stroke="midnightblue" points="43.7466,-228.031 38.8889,-218.615 36.8147,-229.005 43.7466,-228.031"/>
</g>
<!-- Node2 -->
<g id="node3" class="node"><title>Node2</title>
<g id="a_node3"><a xlink:href="struct_arbiter_dependency_list.html" target="_top" xlink:title="Represents a list of dependencies. ">
<polygon fill="white" stroke="black" points="122.867,-353.5 122.867,-371.5 240.034,-371.5 240.034,-353.5 122.867,-353.5"/>
<text text-anchor="middle" x="181.45" y="-359.5" font-family="Helvetica,sans-Serif" font-size="10.00">ArbiterDependencyList</text>
</a>
</g>
</g>
<!-- Node0&#45;&gt;Node2 -->
<g id="edge2" class="edge"><title>Node0&#45;&gt;Node2</title>
<path fill="none" stroke="midnightblue" d="M42.7054,-228.587C51.1378,-258.066 71.461,-314.407 109.803,-344.5 114.482,-348.173 119.825,-351.104 125.429,-353.441"/>
<polygon fill="midnightblue" stroke="midnightblue" points="46.0262,-227.458 40.0431,-218.714 39.2677,-229.281 46.0262,-227.458"/>
</g>
<!-- Node3 -->
<g id="node4" class="node"><title>Node3</title>
<g id="a_node4"><a xlink:href="struct_arbiter_project_identifier.html" target="_top" xlink:title="An opaque value which identifies a project participating in dependency resolution. ">
<polygon fill="white" stroke="black" points="123.985,-316.5 123.985,-334.5 238.916,-334.5 238.916,-316.5 123.985,-316.5"/>
<text text-anchor="middle" x="181.45" y="-322.5" font-family="Helvetica,sans-Serif" font-size="10.00">ArbiterProjectIdentifier</text>
</a>
</g>
</g>
<!-- Node0&#45;&gt;Node3 -->
<g id="edge3" class="edge"><title>Node0&#45;&gt;Node3</title>
<path fill="none" stroke="midnightblue" d="M46.386,-227.787C57.6781,-250.066 79.7692,-287.232 109.803,-307.5 115.258,-311.182 121.412,-314.11 127.756,-316.44"/>
<polygon fill="midnightblue" stroke="midnightblue" points="49.4923,-226.172 41.968,-218.713 43.1986,-229.236 49.4923,-226.172"/>
</g>
<!-- Node4 -->
<g id="node5" class="node"><title>Node4</title>
<g id="a_node5"><a xlink:href="struct_arbiter_requirement.html" target="_top" xlink:title="Represents a requirement for a specific version or set of versions. ">
<polygon fill="white" stroke="black" points="130.098,-279.5 130.098,-297.5 232.802,-297.5 232.802,-279.5 130.098,-279.5"/>
<text text-anchor="middle" x="181.45" y="-285.5" font-family="Helvetica,sans-Serif" font-size="10.00">ArbiterRequirement</text>
</a>
</g>
</g>
<!-- Node0&#45;&gt;Node4 -->
<g id="edge4" class="edge"><title>Node0&#45;&gt;Node4</title>
<path fill="none" stroke="midnightblue" d="M53.3248,-226.292C66.9173,-240.111 87.9151,-259.202 109.803,-270.5 116.888,-274.158 124.765,-277.105 132.614,-279.47"/>
<polygon fill="midnightblue" stroke="midnightblue" points="55.6657,-223.675 46.2268,-218.863 50.6045,-228.511 55.6657,-223.675"/>
</g>
<!-- Node13 -->
<g id="node14" class="node"><title>Node13</title>
<g id="a_node14"><a xlink:href="struct_arbiter_resolved_dependency.html" target="_top" xlink:title="Represents a dependency which has been resolved to a specific version. ">
<polygon fill="white" stroke="black" points="109.803,-242.5 109.803,-260.5 253.098,-260.5 253.098,-242.5 109.803,-242.5"/>
<text text-anchor="middle" x="181.45" y="-248.5" font-family="Helvetica,sans-Serif" font-size="10.00">ArbiterResolvedDependency</text>
</a>
</g>
</g>
<!-- Node0&#45;&gt;Node13 -->
<g id="edge13" class="edge"><title>Node0&#45;&gt;Node13</title>
<path fill="none" stroke="midnightblue" d="M73.1656,-221.839C84.7777,-225.75 97.7912,-229.97 109.803,-233.5 120.489,-236.64 132.177,-239.749 142.914,-242.476"/>
<polygon fill="midnightblue" stroke="midnightblue" points="73.9767,-218.418 63.3822,-218.507 71.7201,-225.044 73.9767,-218.418"/>
</g>
<!-- Node14 -->
<g id="node15" class="node"><title>Node14</title>
<g id="a_node15"><a xlink:href="struct_arbiter_resolved_dependency_graph.html" target="_top" xlink:title="Represents a fully consistent, resolved dependency graph, preserving relationships between dependenci...">
<polygon fill="white" stroke="black" points="109.803,-195.5 109.803,-223.5 253.098,-223.5 253.098,-195.5 109.803,-195.5"/>
<text text-anchor="start" x="117.803" y="-211.5" font-family="Helvetica,sans-Serif" font-size="10.00">ArbiterResolvedDependency</text>
<text text-anchor="middle" x="181.45" y="-201.5" font-family="Helvetica,sans-Serif" font-size="10.00">Graph</text>
</a>
</g>
</g>
<!-- Node0&#45;&gt;Node14 -->
<g id="edge14" class="edge"><title>Node0&#45;&gt;Node14</title>
<path fill="none" stroke="midnightblue" d="M83.9973,-209.5C92.2395,-209.5 100.997,-209.5 109.743,-209.5"/>
<polygon fill="midnightblue" stroke="midnightblue" points="83.8725,-206 73.8725,-209.5 83.8724,-213 83.8725,-206"/>
</g>
<!-- Node15 -->
<g id="node16" class="node"><title>Node15</title>
<g id="a_node16"><a xlink:href="struct_arbiter_resolved_dependency_installer.html" target="_top" xlink:title="Enumerates a resolved dependency graph in &quot;install order,&quot; where all projects listed within one phase...">
<polygon fill="white" stroke="black" points="109.803,-148.5 109.803,-176.5 253.098,-176.5 253.098,-148.5 109.803,-148.5"/>
<text text-anchor="start" x="117.803" y="-164.5" font-family="Helvetica,sans-Serif" font-size="10.00">ArbiterResolvedDependency</text>
<text text-anchor="middle" x="181.45" y="-154.5" font-family="Helvetica,sans-Serif" font-size="10.00">Installer</text>
</a>
</g>
</g>
<!-- Node0&#45;&gt;Node15 -->
<g id="edge15" class="edge"><title>Node0&#45;&gt;Node15</title>
<path fill="none" stroke="midnightblue" d="M75.0191,-197.262C94.2805,-190.911 117.901,-183.123 137.898,-176.53"/>
<polygon fill="midnightblue" stroke="midnightblue" points="73.7873,-193.983 65.3862,-200.438 75.9793,-200.631 73.7873,-193.983"/>
</g>
<!-- Node16 -->
<g id="node17" class="node"><title>Node16</title>
<g id="a_node17"><a xlink:href="struct_arbiter_resolver.html" target="_top" xlink:title="A dependency resolver which contains context about how to evaluate the dependency graph...">
<polygon fill="white" stroke="black" points="138.995,-111.5 138.995,-129.5 223.906,-129.5 223.906,-111.5 138.995,-111.5"/>
<text text-anchor="middle" x="181.45" y="-117.5" font-family="Helvetica,sans-Serif" font-size="10.00">ArbiterResolver</text>
</a>
</g>
</g>
<!-- Node0&#45;&gt;Node16 -->
<g id="edge16" class="edge"><title>Node0&#45;&gt;Node16</title>
<path fill="none" stroke="midnightblue" d="M51.1937,-192.241C64.3905,-176.272 86.0399,-153.023 109.803,-139.5 118.634,-134.475 128.845,-130.735 138.71,-127.967"/>
<polygon fill="midnightblue" stroke="midnightblue" points="48.2936,-190.263 44.772,-200.256 53.7564,-194.64 48.2936,-190.263"/>
</g>
<!-- Node17 -->
<g id="node18" class="node"><title>Node17</title>
<g id="a_node18"><a xlink:href="struct_arbiter_selected_version.html" target="_top" xlink:title="Represents a &quot;selected&quot; version, which is a concrete choice of a real project version. ">
<polygon fill="white" stroke="black" points="122.586,-74.5 122.586,-92.5 240.314,-92.5 240.314,-74.5 122.586,-74.5"/>
<text text-anchor="middle" x="181.45" y="-80.5" font-family="Helvetica,sans-Serif" font-size="10.00">ArbiterSelectedVersion</text>
</a>
</g>
</g>
<!-- Node0&#45;&gt;Node17 -->
<g id="edge17" class="edge"><title>Node0&#45;&gt;Node17</title>
<path fill="none" stroke="midnightblue" d="M45.2648,-190.788C55.8274,-166.433 77.6228,-124.302 109.803,-101.5 114.966,-97.8412 120.808,-94.925 126.866,-92.6008"/>
<polygon fill="midnightblue" stroke="midnightblue" points="41.913,-189.734 41.3163,-200.312 48.3793,-192.414 41.913,-189.734"/>
</g>
<!-- Node18 -->
<g id="node19" class="node"><title>Node18</title>
<g id="a_node19"><a xlink:href="struct_arbiter_selected_version_list.html" target="_top" xlink:title="Represents a list of selected versions. ">
<polygon fill="white" stroke="black" points="114.805,-37.5 114.805,-55.5 248.095,-55.5 248.095,-37.5 114.805,-37.5"/>
<text text-anchor="middle" x="181.45" y="-43.5" font-family="Helvetica,sans-Serif" font-size="10.00">ArbiterSelectedVersionList</text>
</a>
</g>
</g>
<!-- Node0&#45;&gt;Node18 -->
<g id="edge18" class="edge"><title>Node0&#45;&gt;Node18</title>
<path fill="none" stroke="midnightblue" d="M41.9562,-190.347C49.5921,-159.109 69.1323,-97.3864 109.803,-64.5 114.33,-60.8392 119.511,-57.9128 124.966,-55.5751"/>
<polygon fill="midnightblue" stroke="midnightblue" points="38.4824,-189.837 39.6645,-200.366 45.3061,-191.398 38.4824,-189.837"/>
</g>
<!-- Node19 -->
<g id="node20" class="node"><title>Node19</title>
<g id="a_node20"><a xlink:href="struct_arbiter_semantic_version.html" target="_top" xlink:title="Represents a semantic version, as defined by semver.org. ">
<polygon fill="white" stroke="black" points="121.202,-0.5 121.202,-18.5 241.699,-18.5 241.699,-0.5 121.202,-0.5"/>
<text text-anchor="middle" x="181.45" y="-6.5" font-family="Helvetica,sans-Serif" font-size="10.00">ArbiterSemanticVersion</text>
</a>
</g>
</g>
<!-- Node0&#45;&gt;Node19 -->
<g id="edge19" class="edge"><title>Node0&#45;&gt;Node19</title>
<path fill="none" stroke="midnightblue" d="M39.8115,-190.274C44.5628,-153.065 60.3558,-71.045 109.803,-27.5 113.982,-23.8194 118.812,-20.8723 123.945,-18.5152"/>
<polygon fill="midnightblue" stroke="midnightblue" points="36.325,-189.958 38.6665,-200.291 43.2797,-190.753 36.325,-189.958"/>
</g>
<!-- Node5 -->
<g id="node6" class="node"><title>Node5</title>
<g id="a_node6"><a xlink:href="class_arbiter_1_1_requirement_1_1_any.html" target="_top" xlink:title="A requirement satisfied by any version. ">
<polygon fill="white" stroke="black" points="289.098,-438.5 289.098,-456.5 420.146,-456.5 420.146,-438.5 289.098,-438.5"/>
<text text-anchor="middle" x="354.622" y="-444.5" font-family="Helvetica,sans-Serif" font-size="10.00">Arbiter::Requirement::Any</text>
</a>
</g>
</g>
<!-- Node4&#45;&gt;Node5 -->
<g id="edge5" class="edge"><title>Node4&#45;&gt;Node5</title>
<path fill="none" stroke="midnightblue" d="M242.102,-299.432C246.109,-301.658 249.84,-304.32 253.098,-307.5 293.554,-346.988 248.826,-389.823 289.098,-429.5 292.826,-433.173 297.237,-436.111 301.976,-438.459"/>
<polygon fill="midnightblue" stroke="midnightblue" points="243.512,-296.227 232.965,-295.22 240.582,-302.585 243.512,-296.227"/>
</g>
<!-- Node6 -->
<g id="node7" class="node"><title>Node6</title>
<g id="a_node7"><a xlink:href="class_arbiter_1_1_requirement_1_1_at_least.html" target="_top" xlink:title="A requirement satisfied only by versions greater than or equal to the specified one. ">
<polygon fill="white" stroke="black" points="300.492,-391.5 300.492,-419.5 408.752,-419.5 408.752,-391.5 300.492,-391.5"/>
<text text-anchor="start" x="308.492" y="-407.5" font-family="Helvetica,sans-Serif" font-size="10.00">Arbiter::Requirement</text>
<text text-anchor="middle" x="354.622" y="-397.5" font-family="Helvetica,sans-Serif" font-size="10.00">::AtLeast</text>
</a>
</g>
</g>
<!-- Node4&#45;&gt;Node6 -->
<g id="edge6" class="edge"><title>Node4&#45;&gt;Node6</title>
<path fill="none" stroke="midnightblue" d="M242.281,-300.404C246.144,-302.415 249.8,-304.762 253.098,-307.5 281.543,-331.121 261.615,-357.765 289.098,-382.5 292.899,-385.921 297.243,-388.842 301.841,-391.334"/>
<polygon fill="midnightblue" stroke="midnightblue" points="243.527,-297.128 232.964,-296.297 240.703,-303.534 243.527,-297.128"/>
</g>
<!-- Node7 -->
<g id="node8" class="node"><title>Node7</title>
<g id="a_node8"><a xlink:href="class_arbiter_1_1_requirement_1_1_compatible_with.html" target="_top" xlink:title="A requirement satisfied only by versions which are &quot;compatible with&quot; the specified one...">
<polygon fill="white" stroke="black" points="300.492,-344.5 300.492,-372.5 408.752,-372.5 408.752,-344.5 300.492,-344.5"/>
<text text-anchor="start" x="308.492" y="-360.5" font-family="Helvetica,sans-Serif" font-size="10.00">Arbiter::Requirement</text>
<text text-anchor="middle" x="354.622" y="-350.5" font-family="Helvetica,sans-Serif" font-size="10.00">::CompatibleWith</text>
</a>
</g>
</g>
<!-- Node4&#45;&gt;Node7 -->
<g id="edge7" class="edge"><title>Node4&#45;&gt;Node7</title>
<path fill="none" stroke="midnightblue" d="M236.469,-300.608C242.205,-302.603 247.853,-304.889 253.098,-307.5 271.243,-316.533 271.326,-325.751 289.098,-335.5 295.145,-338.817 301.765,-341.812 308.386,-344.46"/>
<polygon fill="midnightblue" stroke="midnightblue" points="237.379,-297.225 226.789,-297.521 235.253,-303.894 237.379,-297.225"/>
</g>
<!-- Node8 -->
<g id="node9" class="node"><title>Node8</title>
<g id="a_node9"><a xlink:href="class_arbiter_1_1_requirement_1_1_compound.html" target="_top" xlink:title="Arbiter::Requirement\l::Compound">
<polygon fill="white" stroke="black" points="300.492,-297.5 300.492,-325.5 408.752,-325.5 408.752,-297.5 300.492,-297.5"/>
<text text-anchor="start" x="308.492" y="-313.5" font-family="Helvetica,sans-Serif" font-size="10.00">Arbiter::Requirement</text>
<text text-anchor="middle" x="354.622" y="-303.5" font-family="Helvetica,sans-Serif" font-size="10.00">::Compound</text>
</a>
</g>
</g>
<!-- Node4&#45;&gt;Node8 -->
<g id="edge8" class="edge"><title>Node4&#45;&gt;Node8</title>
<path fill="none" stroke="midnightblue" d="M243.05,-296.643C261.721,-299.151 282.131,-301.894 300.276,-304.332"/>
<polygon fill="midnightblue" stroke="midnightblue" points="243.259,-293.139 232.882,-295.276 242.326,-300.077 243.259,-293.139"/>
</g>
<!-- Node9 -->
<g id="node10" class="node"><title>Node9</title>
<g id="a_node10"><a xlink:href="class_arbiter_1_1_requirement_1_1_custom.html" target="_top" xlink:title="Arbiter::Requirement\l::Custom">
<polygon fill="white" stroke="black" points="300.492,-250.5 300.492,-278.5 408.752,-278.5 408.752,-250.5 300.492,-250.5"/>
<text text-anchor="start" x="308.492" y="-266.5" font-family="Helvetica,sans-Serif" font-size="10.00">Arbiter::Requirement</text>
<text text-anchor="middle" x="354.622" y="-256.5" font-family="Helvetica,sans-Serif" font-size="10.00">::Custom</text>
</a>
</g>
</g>
<!-- Node4&#45;&gt;Node9 -->
<g id="edge9" class="edge"><title>Node4&#45;&gt;Node9</title>
<path fill="none" stroke="midnightblue" d="M242.791,-280.04C261.532,-277.412 282.047,-274.536 300.276,-271.98"/>
<polygon fill="midnightblue" stroke="midnightblue" points="242.299,-276.574 232.882,-281.429 243.271,-283.507 242.299,-276.574"/>
</g>
<!-- Node10 -->
<g id="node11" class="node"><title>Node10</title>
<g id="a_node11"><a xlink:href="class_arbiter_1_1_requirement_1_1_exactly.html" target="_top" xlink:title="A requirement satisfied only by one particular semantic version. ">
<polygon fill="white" stroke="black" points="300.492,-203.5 300.492,-231.5 408.752,-231.5 408.752,-203.5 300.492,-203.5"/>
<text text-anchor="start" x="308.492" y="-219.5" font-family="Helvetica,sans-Serif" font-size="10.00">Arbiter::Requirement</text>
<text text-anchor="middle" x="354.622" y="-209.5" font-family="Helvetica,sans-Serif" font-size="10.00">::Exactly</text>
</a>
</g>
</g>
<!-- Node4&#45;&gt;Node10 -->
<g id="edge10" class="edge"><title>Node4&#45;&gt;Node10</title>
<path fill="none" stroke="midnightblue" d="M239.532,-276.253C244.215,-274.561 248.796,-272.652 253.098,-270.5 271.473,-261.309 271.238,-251.657 289.098,-241.5 295.643,-237.778 302.874,-234.434 310.058,-231.508"/>
<polygon fill="midnightblue" stroke="midnightblue" points="238.248,-272.99 229.833,-279.428 240.426,-279.643 238.248,-272.99"/>
</g>
<!-- Node11 -->
<g id="node12" class="node"><title>Node11</title>
<g id="a_node12"><a xlink:href="class_arbiter_1_1_requirement_1_1_prioritized.html" target="_top" xlink:title="Arbiter::Requirement\l::Prioritized">
<polygon fill="white" stroke="black" points="300.492,-156.5 300.492,-184.5 408.752,-184.5 408.752,-156.5 300.492,-156.5"/>
<text text-anchor="start" x="308.492" y="-172.5" font-family="Helvetica,sans-Serif" font-size="10.00">Arbiter::Requirement</text>
<text text-anchor="middle" x="354.622" y="-162.5" font-family="Helvetica,sans-Serif" font-size="10.00">::Prioritized</text>
</a>
</g>
</g>
<!-- Node4&#45;&gt;Node11 -->
<g id="edge11" class="edge"><title>Node4&#45;&gt;Node11</title>
<path fill="none" stroke="midnightblue" d="M242.282,-277.497C246.144,-275.528 249.8,-273.216 253.098,-270.5 281.948,-246.739 261.554,-219.764 289.098,-194.5 293.325,-190.622 298.236,-187.355 303.425,-184.605"/>
<polygon fill="midnightblue" stroke="midnightblue" points="240.776,-274.334 232.966,-281.493 243.536,-280.767 240.776,-274.334"/>
</g>
<!-- Node12 -->
<g id="node13" class="node"><title>Node12</title>
<g id="a_node13"><a xlink:href="class_arbiter_1_1_requirement_1_1_unversioned.html" target="_top" xlink:title="Arbiter::Requirement\l::Unversioned">
<polygon fill="white" stroke="black" points="300.492,-109.5 300.492,-137.5 408.752,-137.5 408.752,-109.5 300.492,-109.5"/>
<text text-anchor="start" x="308.492" y="-125.5" font-family="Helvetica,sans-Serif" font-size="10.00">Arbiter::Requirement</text>
<text text-anchor="middle" x="354.622" y="-115.5" font-family="Helvetica,sans-Serif" font-size="10.00">::Unversioned</text>
</a>
</g>
</g>
<!-- Node4&#45;&gt;Node12 -->
<g id="edge12" class="edge"><title>Node4&#45;&gt;Node12</title>
<path fill="none" stroke="midnightblue" d="M242.089,-278.451C246.099,-276.272 249.834,-273.651 253.098,-270.5 294.078,-230.939 250.283,-189.188 289.098,-147.5 292.763,-143.564 297.133,-140.27 301.847,-137.514"/>
<polygon fill="midnightblue" stroke="midnightblue" points="240.642,-275.264 232.946,-282.546 243.504,-281.652 240.642,-275.264"/>
</g>
</g>
</svg>
