<?xml version="1.0" encoding="UTF-8" standalone="no"?>
<!DOCTYPE svg PUBLIC "-//W3C//DTD SVG 1.1//EN"
 "http://www.w3.org/Graphics/SVG/1.1/DTD/svg11.dtd">
<!-- Generated by graphviz version 2.38.0 (20140413.2041)
 -->
<!-- Title: Graphical Class Hierarchy Pages: 1 -->
<svg width="535pt" height="131pt"
 viewBox="0.00 0.00 535.15 131.00" xmlns="http://www.w3.org/2000/svg" xmlns:xlink="http://www.w3.org/1999/xlink">
<g id="graph0" class="graph" transform="scale(1 1) rotate(0) translate(4 127)">
<title>Graphical Class Hierarchy</title>
<polygon fill="white" stroke="none" points="-4,4 -4,-127 531.151,-127 531.151,4 -4,4"/>
<!-- Node10 -->
<g id="node1" class="node"><title>Node10</title>
<g id="a_node1"><a xlink:title="STL class. ">
<polygon fill="white" stroke="#bfbfbf" points="0,-52.5 0,-70.5 77.7041,-70.5 77.7041,-52.5 0,-52.5"/>
<text text-anchor="middle" x="38.8521" y="-58.5" font-family="Helvetica,sans-Serif" font-size="10.00">std::exception</text>
</a>
</g>
</g>
<!-- Node11 -->
<g id="node2" class="node"><title>Node11</title>
<g id="a_node2"><a xlink:title="STL class. ">
<polygon fill="white" stroke="#bfbfbf" points="113.704,-52.5 113.704,-70.5 208.62,-70.5 208.62,-52.5 113.704,-52.5"/>
<text text-anchor="middle" x="161.162" y="-58.5" font-family="Helvetica,sans-Serif" font-size="10.00">std::runtime_error</text>
</a>
</g>
</g>
<!-- Node10&#45;&gt;Node11 -->
<g id="edge1" class="edge"><title>Node10&#45;&gt;Node11</title>
<path fill="none" stroke="midnightblue" d="M87.9651,-61.5C96.3724,-61.5 105.107,-61.5 113.475,-61.5"/>
<polygon fill="midnightblue" stroke="midnightblue" points="87.9189,-58.0001 77.9189,-61.5 87.9189,-65.0001 87.9189,-58.0001"/>
</g>
<!-- Node0 -->
<g id="node3" class="node"><title>Node0</title>
<g id="a_node3"><a xlink:href="struct_arbiter_1_1_exception_1_1_base.html" target="_top" xlink:title="Base type for Arbiter exceptions. ">
<polygon fill="white" stroke="black" points="244.62,-47.5 244.62,-75.5 339.546,-75.5 339.546,-47.5 244.62,-47.5"/>
<text text-anchor="start" x="252.62" y="-63.5" font-family="Helvetica,sans-Serif" font-size="10.00">Arbiter::Exception</text>
<text text-anchor="middle" x="292.083" y="-53.5" font-family="Helvetica,sans-Serif" font-size="10.00">::Base</text>
</a>
</g>
</g>
<!-- Node11&#45;&gt;Node0 -->
<g id="edge2" class="edge"><title>Node11&#45;&gt;Node0</title>
<path fill="none" stroke="midnightblue" d="M218.728,-61.5C227.374,-61.5 236.212,-61.5 244.608,-61.5"/>
<polygon fill="midnightblue" stroke="midnightblue" points="218.706,-58.0001 208.706,-61.5 218.705,-65.0001 218.706,-58.0001"/>
</g>
<!-- Node1 -->
<g id="node4" class="node"><title>Node1</title>
<g id="a_node4"><a xlink:href="struct_arbiter_1_1_exception_1_1_mutually_exclusive_constraints.html" target="_top" xlink:title="Exception type indicating that there were mutually exclusive constraints in a proposed dependency gra...">
<polygon fill="white" stroke="black" points="375.546,-94.5 375.546,-122.5 527.151,-122.5 527.151,-94.5 375.546,-94.5"/>
<text text-anchor="start" x="383.546" y="-110.5" font-family="Helvetica,sans-Serif" font-size="10.00">Arbiter::Exception</text>
<text text-anchor="middle" x="451.349" y="-100.5" font-family="Helvetica,sans-Serif" font-size="10.00">::MutuallyExclusiveConstraints</text>
</a>
</g>
</g>
<!-- Node0&#45;&gt;Node1 -->
<g id="edge3" class="edge"><title>Node0&#45;&gt;Node1</title>
<path fill="none" stroke="midnightblue" d="M349.484,-78.3557C367.188,-83.6467 386.53,-89.4273 403.498,-94.4984"/>
<polygon fill="midnightblue" stroke="midnightblue" points="350.426,-74.9844 339.842,-75.4743 348.421,-81.6912 350.426,-74.9844"/>
</g>
<!-- Node2 -->
<g id="node5" class="node"><title>Node2</title>
<g id="a_node5"><a xlink:href="struct_arbiter_1_1_exception_1_1_unsatisfiable_constraints.html" target="_top" xlink:title="Exception type indicating that there were unsatisfiable constraints for the selected versions in a pr...">
<polygon fill="white" stroke="black" points="386.657,-47.5 386.657,-75.5 516.041,-75.5 516.041,-47.5 386.657,-47.5"/>
<text text-anchor="start" x="394.657" y="-63.5" font-family="Helvetica,sans-Serif" font-size="10.00">Arbiter::Exception</text>
<text text-anchor="middle" x="451.349" y="-53.5" font-family="Helvetica,sans-Serif" font-size="10.00">::UnsatisfiableConstraints</text>
</a>
</g>
</g>
<!-- Node0&#45;&gt;Node2 -->
<g id="edge4" class="edge"><title>Node0&#45;&gt;Node2</title>
<path fill="none" stroke="midnightblue" d="M350.056,-61.5C361.922,-61.5 374.501,-61.5 386.593,-61.5"/>
<polygon fill="midnightblue" stroke="midnightblue" points="349.842,-58.0001 339.842,-61.5 349.842,-65.0001 349.842,-58.0001"/>
</g>
<!-- Node3 -->
<g id="node6" class="node"><title>Node3</title>
<g id="a_node6"><a xlink:href="struct_arbiter_1_1_exception_1_1_user_error.html" target="_top" xlink:title="Exception type representing an error that was returned from Arbiter client code. ">
<polygon fill="white" stroke="black" points="403.886,-0.5 403.886,-28.5 498.812,-28.5 498.812,-0.5 403.886,-0.5"/>
<text text-anchor="start" x="411.886" y="-16.5" font-family="Helvetica,sans-Serif" font-size="10.00">Arbiter::Exception</text>
<text text-anchor="middle" x="451.349" y="-6.5" font-family="Helvetica,sans-Serif" font-size="10.00">::UserError</text>
</a>
</g>
</g>
<!-- Node0&#45;&gt;Node3 -->
<g id="edge5" class="edge"><title>Node0&#45;&gt;Node3</title>
<path fill="none" stroke="midnightblue" d="M349.528,-44.631C367.314,-39.3154 386.751,-33.5067 403.77,-28.4205"/>
<polygon fill="midnightblue" stroke="midnightblue" points="348.421,-41.3088 339.842,-47.5257 350.426,-48.0156 348.421,-41.3088"/>
</g>
</g>
</svg>
