<?xml version="1.0" encoding="UTF-8" standalone="no"?>
<!DOCTYPE svg PUBLIC "-//W3C//DTD SVG 1.1//EN"
 "http://www.w3.org/Graphics/SVG/1.1/DTD/svg11.dtd">
<!-- Generated by graphviz version 2.38.0 (20140413.2041)
 -->
<!-- Title: Graphical Class Hierarchy Pages: 1 -->
<svg width="278pt" height="168pt"
 viewBox="0.00 0.00 277.75 168.00" xmlns="http://www.w3.org/2000/svg" xmlns:xlink="http://www.w3.org/1999/xlink">
<g id="graph0" class="graph" transform="scale(1 1) rotate(0) translate(4 164)">
<title>Graphical Class Hierarchy</title>
<polygon fill="white" stroke="none" points="-4,4 -4,-164 273.753,-164 273.753,4 -4,4"/>
<!-- Node1 -->
<g id="node1" class="node"><title>Node1</title>
<g id="a_node1"><a xlink:href="struct_arbiter_requirement.html" target="_top" xlink:title="Represents a requirement for a specific version or set of versions. ">
<polygon fill="white" stroke="black" points="0,-75.5 0,-93.5 102.704,-93.5 102.704,-75.5 0,-75.5"/>
<text text-anchor="middle" x="51.3521" y="-81.5" font-family="Helvetica,sans-Serif" font-size="10.00">ArbiterRequirement</text>
</a>
</g>
</g>
<!-- Node2 -->
<g id="node2" class="node"><title>Node2</title>
<g id="a_node2"><a xlink:href="class_arbiter_1_1_requirement_1_1_any.html" target="_top" xlink:title="A requirement satisfied by any version. ">
<polygon fill="white" stroke="black" points="138.704,-141.5 138.704,-159.5 269.753,-159.5 269.753,-141.5 138.704,-141.5"/>
<text text-anchor="middle" x="204.229" y="-147.5" font-family="Helvetica,sans-Serif" font-size="10.00">Arbiter::Requirement::Any</text>
</a>
</g>
</g>
<!-- Node1&#45;&gt;Node2 -->
<g id="edge1" class="edge"><title>Node1&#45;&gt;Node2</title>
<path fill="none" stroke="midnightblue" d="M74.8566,-98.9431C91.8681,-109.375 116.08,-123.208 138.704,-132.5 147.095,-135.946 156.363,-138.963 165.195,-141.493"/>
<polygon fill="midnightblue" stroke="midnightblue" points="76.5399,-95.8681 66.2023,-93.5476 72.8365,-101.808 76.5399,-95.8681"/>
</g>
<!-- Node3 -->
<g id="node3" class="node"><title>Node3</title>
<g id="a_node3"><a xlink:href="class_arbiter_1_1_requirement_1_1_at_least.html" target="_top" xlink:title="A requirement satisfied only by versions greater than or equal to the specified one. ">
<polygon fill="white" stroke="black" points="150.098,-94.5 150.098,-122.5 258.359,-122.5 258.359,-94.5 150.098,-94.5"/>
<text text-anchor="start" x="158.098" y="-110.5" font-family="Helvetica,sans-Serif" font-size="10.00">Arbiter::Requirement</text>
<text text-anchor="middle" x="204.229" y="-100.5" font-family="Helvetica,sans-Serif" font-size="10.00">::AtLeast</text>
</a>
</g>
</g>
<!-- Node1&#45;&gt;Node3 -->
<g id="edge2" class="edge"><title>Node1&#45;&gt;Node3</title>
<path fill="none" stroke="midnightblue" d="M113.083,-94.1605C125.256,-96.0969 137.961,-98.1179 149.863,-100.011"/>
<polygon fill="midnightblue" stroke="midnightblue" points="113.437,-90.6729 103.011,-92.5584 112.337,-97.586 113.437,-90.6729"/>
</g>
<!-- Node4 -->
<g id="node4" class="node"><title>Node4</title>
<g id="a_node4"><a xlink:href="class_arbiter_1_1_requirement_1_1_compatible_with.html" target="_top" xlink:title="A requirement satisfied only by versions which are &quot;compatible with&quot; the specified one...">
<polygon fill="white" stroke="black" points="150.098,-47.5 150.098,-75.5 258.359,-75.5 258.359,-47.5 150.098,-47.5"/>
<text text-anchor="start" x="158.098" y="-63.5" font-family="Helvetica,sans-Serif" font-size="10.00">Arbiter::Requirement</text>
<text text-anchor="middle" x="204.229" y="-53.5" font-family="Helvetica,sans-Serif" font-size="10.00">::CompatibleWith</text>
</a>
</g>
</g>
<!-- Node1&#45;&gt;Node4 -->
<g id="edge3" class="edge"><title>Node1&#45;&gt;Node4</title>
<path fill="none" stroke="midnightblue" d="M113.083,-75.242C125.256,-73.3863 137.961,-71.4495 149.863,-69.6352"/>
<polygon fill="midnightblue" stroke="midnightblue" points="112.37,-71.8102 103.011,-76.7773 113.425,-78.7303 112.37,-71.8102"/>
</g>
<!-- Node5 -->
<g id="node5" class="node"><title>Node5</title>
<g id="a_node5"><a xlink:href="class_arbiter_1_1_requirement_1_1_exactly.html" target="_top" xlink:title="A requirement satisfied only by one exact version. ">
<polygon fill="white" stroke="black" points="150.098,-0.5 150.098,-28.5 258.359,-28.5 258.359,-0.5 150.098,-0.5"/>
<text text-anchor="start" x="158.098" y="-16.5" font-family="Helvetica,sans-Serif" font-size="10.00">Arbiter::Requirement</text>
<text text-anchor="middle" x="204.229" y="-6.5" font-family="Helvetica,sans-Serif" font-size="10.00">::Exactly</text>
</a>
</g>
</g>
<!-- Node1&#45;&gt;Node5 -->
<g id="edge4" class="edge"><title>Node1&#45;&gt;Node5</title>
<path fill="none" stroke="midnightblue" d="M76.7144,-70.3982C93.777,-60.802 117.269,-48.1439 138.704,-38.5 146.443,-35.0183 154.852,-31.6217 162.965,-28.5309"/>
<polygon fill="midnightblue" stroke="midnightblue" points="74.9173,-67.3937 67.9505,-75.3758 78.3744,-73.4804 74.9173,-67.3937"/>
</g>
</g>
</svg>
