<?xml version="1.0" encoding="UTF-8" standalone="no"?>
<!DOCTYPE svg PUBLIC "-//W3C//DTD SVG 1.1//EN"
 "http://www.w3.org/Graphics/SVG/1.1/DTD/svg11.dtd">
<!-- Generated by graphviz version 2.38.0 (20140413.2041)
 -->
<!-- Title: ArbiterSelectedVersion Pages: 1 -->
<svg width="319pt" height="187pt"
 viewBox="0.00 0.00 318.65 187.00" xmlns="http://www.w3.org/2000/svg" xmlns:xlink="http://www.w3.org/1999/xlink">
<g id="graph0" class="graph" transform="scale(1 1) rotate(0) translate(4 183)">
<title>ArbiterSelectedVersion</title>
<polygon fill="white" stroke="none" points="-4,4 -4,-183 314.652,-183 314.652,4 -4,4"/>
<!-- Node1 -->
<g id="node1" class="node"><title>Node1</title>
<polygon fill="#bfbfbf" stroke="black" points="134.184,-0.5 134.184,-18.5 251.912,-18.5 251.912,-0.5 134.184,-0.5"/>
<text text-anchor="middle" x="193.048" y="-6.5" font-family="Helvetica,sans-Serif" font-size="10.00">ArbiterSelectedVersion</text>
</g>
<!-- Node2 -->
<g id="node2" class="node"><title>Node2</title>
<g id="a_node2"><a xlink:href="struct_arbiter_semantic_version.html" target="_top" xlink:title="Represents a semantic version, as defined by semver.org. ">
<polygon fill="white" stroke="black" points="42.7993,-65.5 42.7993,-83.5 163.296,-83.5 163.296,-65.5 42.7993,-65.5"/>
<text text-anchor="middle" x="103.048" y="-71.5" font-family="Helvetica,sans-Serif" font-size="10.00">ArbiterSemanticVersion</text>
</a>
</g>
</g>
<!-- Node2&#45;&gt;Node1 -->
<g id="edge1" class="edge"><title>Node2&#45;&gt;Node1</title>
<path fill="none" stroke="#9a32cd" stroke-dasharray="5,2" d="M113.349,-56.6917C118.156,-49.8947 124.36,-42.3967 131.334,-37 141.755,-28.9366 155,-22.8285 166.546,-18.5205"/>
<polygon fill="#9a32cd" stroke="#9a32cd" points="110.284,-54.9833 107.718,-65.2628 116.134,-58.827 110.284,-54.9833"/>
<text text-anchor="middle" x="172.905" y="-39" font-family="Helvetica,sans-Serif" font-size="10.00"> _semanticVersion</text>
</g>
<!-- Node3 -->
<g id="node3" class="node"><title>Node3</title>
<g id="a_node3"><a xlink:href="struct_arbiter_1_1_optional.html" target="_top" xlink:title="Arbiter::Optional\&lt;\l std::string \&gt;">
<polygon fill="white" stroke="black" points="0,-150.5 0,-178.5 94.0957,-178.5 94.0957,-150.5 0,-150.5"/>
<text text-anchor="start" x="8" y="-166.5" font-family="Helvetica,sans-Serif" font-size="10.00">Arbiter::Optional&lt;</text>
<text text-anchor="middle" x="47.0479" y="-156.5" font-family="Helvetica,sans-Serif" font-size="10.00"> std::string &gt;</text>
</a>
</g>
</g>
<!-- Node3&#45;&gt;Node2 -->
<g id="edge2" class="edge"><title>Node3&#45;&gt;Node2</title>
<path fill="none" stroke="#9a32cd" stroke-dasharray="5,2" d="M41.8961,-140.131C40.493,-127.871 40.9748,-113.131 48.0977,-102 53.5781,-93.4357 62.6756,-87.5681 71.9067,-83.579"/>
<polygon fill="#9a32cd" stroke="#9a32cd" points="38.4573,-140.792 43.4948,-150.112 45.3692,-139.685 38.4573,-140.792"/>
<text text-anchor="middle" x="93.5229" y="-119" font-family="Helvetica,sans-Serif" font-size="10.00"> _prereleaseVersion</text>
<text text-anchor="middle" x="93.5229" y="-109" font-family="Helvetica,sans-Serif" font-size="10.00">_buildMetadata</text>
</g>
<!-- Node4 -->
<g id="node4" class="node"><title>Node4</title>
<polygon fill="white" stroke="#bfbfbf" points="130.752,-155.5 130.752,-173.5 187.343,-173.5 187.343,-155.5 130.752,-155.5"/>
<text text-anchor="middle" x="159.048" y="-161.5" font-family="Helvetica,sans-Serif" font-size="10.00">unsigned</text>
</g>
<!-- Node4&#45;&gt;Node2 -->
<g id="edge3" class="edge"><title>Node4&#45;&gt;Node2</title>
<path fill="none" stroke="#9a32cd" stroke-dasharray="5,2" d="M155.374,-145.197C152.121,-132.239 146.402,-114.934 137.048,-102 131.697,-94.6017 123.725,-88.2364 116.844,-83.5998"/>
<polygon fill="#9a32cd" stroke="#9a32cd" points="152.024,-146.255 157.628,-155.247 158.855,-144.723 152.024,-146.255"/>
<text text-anchor="middle" x="168.72" y="-124" font-family="Helvetica,sans-Serif" font-size="10.00"> _minor</text>
<text text-anchor="middle" x="168.72" y="-114" font-family="Helvetica,sans-Serif" font-size="10.00">_patch</text>
<text text-anchor="middle" x="168.72" y="-104" font-family="Helvetica,sans-Serif" font-size="10.00">_major</text>
</g>
<!-- Node5 -->
<g id="node5" class="node"><title>Node5</title>
<g id="a_node5"><a xlink:href="class_arbiter_1_1_shared_user_value.html" target="_top" xlink:title="Expresses shared ownership of opaque user&#45;provided data, which was originally described in an Arbiter...">
<polygon fill="white" stroke="black" points="181.444,-65.5 181.444,-83.5 310.652,-83.5 310.652,-65.5 181.444,-65.5"/>
<text text-anchor="middle" x="246.048" y="-71.5" font-family="Helvetica,sans-Serif" font-size="10.00">Arbiter::SharedUserValue</text>
</a>
</g>
</g>
<!-- Node5&#45;&gt;Node1 -->
<g id="edge4" class="edge"><title>Node5&#45;&gt;Node1</title>
<path fill="none" stroke="#9a32cd" stroke-dasharray="5,2" d="M232.566,-57.4742C222.101,-45.0344 208.031,-28.3107 199.811,-18.539"/>
<polygon fill="#9a32cd" stroke="#9a32cd" points="230.003,-59.8647 239.119,-65.2639 235.36,-55.3584 230.003,-59.8647"/>
<text text-anchor="middle" x="248.065" y="-39" font-family="Helvetica,sans-Serif" font-size="10.00"> _metadata</text>
</g>
</g>
</svg>
