<?xml version="1.0" encoding="UTF-8" standalone="no"?>
<!DOCTYPE svg PUBLIC "-//W3C//DTD SVG 1.1//EN"
 "http://www.w3.org/Graphics/SVG/1.1/DTD/svg11.dtd">
<!-- Generated by graphviz version 2.38.0 (20140413.2041)
 -->
<!-- Title: ArbiterDependencyList Pages: 1 -->
<svg width="172pt" height="297pt"
 viewBox="0.00 0.00 172.42 297.00" xmlns="http://www.w3.org/2000/svg" xmlns:xlink="http://www.w3.org/1999/xlink">
<g id="graph0" class="graph" transform="scale(1 1) rotate(0) translate(4 293)">
<title>ArbiterDependencyList</title>
<polygon fill="white" stroke="none" points="-4,4 -4,-293 168.423,-293 168.423,4 -4,4"/>
<!-- Node1 -->
<g id="node1" class="node"><title>Node1</title>
<polygon fill="#bfbfbf" stroke="black" points="23.6279,-0.5 23.6279,-18.5 140.795,-18.5 140.795,-0.5 23.6279,-0.5"/>
<text text-anchor="middle" x="82.2114" y="-6.5" font-family="Helvetica,sans-Serif" font-size="10.00">ArbiterDependencyList</text>
</g>
<!-- Node2 -->
<g id="node2" class="node"><title>Node2</title>
<polygon fill="white" stroke="#bfbfbf" points="0,-65.5 0,-83.5 164.423,-83.5 164.423,-65.5 0,-65.5"/>
<text text-anchor="middle" x="82.2114" y="-71.5" font-family="Helvetica,sans-Serif" font-size="10.00">std::vector&lt; ArbiterDependency &gt;</text>
</g>
<!-- Node2&#45;&gt;Node1 -->
<g id="edge1" class="edge"><title>Node2&#45;&gt;Node1</title>
<path fill="none" stroke="#9a32cd" stroke-dasharray="5,2" d="M82.2114,-54.9075C82.2114,-42.8146 82.2114,-27.6529 82.2114,-18.539"/>
<polygon fill="#9a32cd" stroke="#9a32cd" points="78.7115,-55.2638 82.2114,-65.2639 85.7115,-55.2639 78.7115,-55.2638"/>
<text text-anchor="middle" x="117.519" y="-39" font-family="Helvetica,sans-Serif" font-size="10.00"> _dependencies</text>
</g>
<!-- Node3 -->
<g id="node3" class="node"><title>Node3</title>
<g id="a_node3"><a xlink:href="struct_arbiter_dependency.html" target="_top" xlink:title="Represents a dependency specification, which consists of a project identifier and a version requireme...">
<polygon fill="white" stroke="black" points="31.4087,-130.5 31.4087,-148.5 133.014,-148.5 133.014,-130.5 31.4087,-130.5"/>
<text text-anchor="middle" x="82.2114" y="-136.5" font-family="Helvetica,sans-Serif" font-size="10.00">ArbiterDependency</text>
</a>
</g>
</g>
<!-- Node3&#45;&gt;Node2 -->
<g id="edge2" class="edge"><title>Node3&#45;&gt;Node2</title>
<path fill="none" stroke="#9a32cd" stroke-dasharray="5,2" d="M82.2114,-119.907C82.2114,-107.815 82.2114,-92.6529 82.2114,-83.539"/>
<polygon fill="#9a32cd" stroke="#9a32cd" points="78.7115,-120.264 82.2114,-130.264 85.7115,-120.264 78.7115,-120.264"/>
<text text-anchor="middle" x="103.889" y="-104" font-family="Helvetica,sans-Serif" font-size="10.00"> elements</text>
</g>
<!-- Node4 -->
<g id="node4" class="node"><title>Node4</title>
<g id="a_node4"><a xlink:href="struct_arbiter_project_identifier.html" target="_top" xlink:title="An opaque value which identifies a project participating in dependency resolution. ">
<polygon fill="white" stroke="black" points="24.7461,-195.5 24.7461,-213.5 139.677,-213.5 139.677,-195.5 24.7461,-195.5"/>
<text text-anchor="middle" x="82.2114" y="-201.5" font-family="Helvetica,sans-Serif" font-size="10.00">ArbiterProjectIdentifier</text>
</a>
</g>
</g>
<!-- Node4&#45;&gt;Node3 -->
<g id="edge3" class="edge"><title>Node4&#45;&gt;Node3</title>
<path fill="none" stroke="#9a32cd" stroke-dasharray="5,2" d="M82.2114,-184.907C82.2114,-172.815 82.2114,-157.653 82.2114,-148.539"/>
<polygon fill="#9a32cd" stroke="#9a32cd" points="78.7115,-185.264 82.2114,-195.264 85.7115,-185.264 78.7115,-185.264"/>
<text text-anchor="middle" x="120.566" y="-169" font-family="Helvetica,sans-Serif" font-size="10.00"> _projectIdentifier</text>
</g>
<!-- Node5 -->
<g id="node5" class="node"><title>Node5</title>
<g id="a_node5"><a xlink:href="class_arbiter_1_1_shared_user_value.html" target="_top" xlink:title="Arbiter::SharedUserValue\l\&lt; ArbiterProjectIdentifier \&gt;">
<polygon fill="white" stroke="black" points="16.4014,-260.5 16.4014,-288.5 148.021,-288.5 148.021,-260.5 16.4014,-260.5"/>
<text text-anchor="start" x="24.4014" y="-276.5" font-family="Helvetica,sans-Serif" font-size="10.00">Arbiter::SharedUserValue</text>
<text text-anchor="middle" x="82.2114" y="-266.5" font-family="Helvetica,sans-Serif" font-size="10.00">&lt; ArbiterProjectIdentifier &gt;</text>
</a>
</g>
</g>
<!-- Node5&#45;&gt;Node4 -->
<g id="edge4" class="edge"><title>Node5&#45;&gt;Node4</title>
<path fill="none" stroke="#9a32cd" stroke-dasharray="5,2" d="M82.2114,-250.104C82.2114,-237.547 82.2114,-222.846 82.2114,-213.855"/>
<polygon fill="#9a32cd" stroke="#9a32cd" points="78.7115,-250.389 82.2114,-260.389 85.7115,-250.389 78.7115,-250.389"/>
<text text-anchor="middle" x="98.3345" y="-234" font-family="Helvetica,sans-Serif" font-size="10.00"> _value</text>
</g>
</g>
</svg>
