<?xml version="1.0" encoding="UTF-8" standalone="no"?>
<!DOCTYPE svg PUBLIC "-//W3C//DTD SVG 1.1//EN"
 "http://www.w3.org/Graphics/SVG/1.1/DTD/svg11.dtd">
<!-- Generated by graphviz version 2.38.0 (20140413.2041)
 -->
<!-- Title: ArbiterDependencyList Pages: 1 -->
<svg width="238pt" height="297pt"
 viewBox="0.00 0.00 238.39 297.00" xmlns="http://www.w3.org/2000/svg" xmlns:xlink="http://www.w3.org/1999/xlink">
<g id="graph0" class="graph" transform="scale(1 1) rotate(0) translate(4 293)">
<title>ArbiterDependencyList</title>
<polygon fill="white" stroke="none" points="-4,4 -4,-293 234.394,-293 234.394,4 -4,4"/>
<!-- Node0 -->
<g id="node1" class="node"><title>Node0</title>
<polygon fill="#bfbfbf" stroke="black" points="0,-0.5 0,-18.5 117.167,-18.5 117.167,-0.5 0,-0.5"/>
<text text-anchor="middle" x="58.5835" y="-6.5" font-family="Helvetica,sans-Serif" font-size="10.00">ArbiterDependencyList</text>
</g>
<!-- Node1 -->
<g id="node2" class="node"><title>Node1</title>
<g id="a_node2"><a xlink:href="class_arbiter_1_1_base.html" target="_top" xlink:title="Base class for public&#45;facing Arbiter types, such that they automatically get freeing, cloning, equality, and description functionality. ">
<polygon fill="white" stroke="black" points="6.68213,-265.5 6.68213,-283.5 80.4849,-283.5 80.4849,-265.5 6.68213,-265.5"/>
<text text-anchor="middle" x="43.5835" y="-271.5" font-family="Helvetica,sans-Serif" font-size="10.00">Arbiter::Base</text>
</a>
</g>
</g>
<!-- Node1&#45;&gt;Node0 -->
<g id="edge1" class="edge"><title>Node1&#45;&gt;Node0</title>
<path fill="none" stroke="midnightblue" d="M35.4037,-255.907C29.8773,-242.416 23.5835,-223.172 23.5835,-205.5 23.5835,-205.5 23.5835,-205.5 23.5835,-73.5 23.5835,-51.4788 40.1265,-29.9594 50.4658,-18.6603"/>
<polygon fill="midnightblue" stroke="midnightblue" points="32.3215,-257.594 39.5362,-265.353 38.7347,-254.789 32.3215,-257.594"/>
</g>
<!-- Node3 -->
<g id="node4" class="node"><title>Node3</title>
<g id="a_node4"><a xlink:href="struct_arbiter_dependency.html" target="_top" xlink:title="Represents a dependency specification, which consists of a project identifier and a version requireme...">
<polygon fill="white" stroke="black" points="82.7808,-130.5 82.7808,-148.5 184.386,-148.5 184.386,-130.5 82.7808,-130.5"/>
<text text-anchor="middle" x="133.583" y="-136.5" font-family="Helvetica,sans-Serif" font-size="10.00">ArbiterDependency</text>
</a>
</g>
</g>
<!-- Node1&#45;&gt;Node3 -->
<g id="edge4" class="edge"><title>Node1&#45;&gt;Node3</title>
<path fill="none" stroke="midnightblue" d="M49.9995,-255.722C56.4054,-239.198 67.2092,-214.302 80.5835,-195 93.3623,-176.558 112.541,-158.576 123.985,-148.575"/>
<polygon fill="midnightblue" stroke="midnightblue" points="46.6688,-254.637 46.4423,-265.229 53.2249,-257.09 46.6688,-254.637"/>
</g>
<!-- Node4 -->
<g id="node5" class="node"><title>Node4</title>
<g id="a_node5"><a xlink:href="struct_arbiter_project_identifier.html" target="_top" xlink:title="An opaque value which identifies a project participating in dependency resolution. ">
<polygon fill="white" stroke="black" points="89.1182,-195.5 89.1182,-213.5 204.049,-213.5 204.049,-195.5 89.1182,-195.5"/>
<text text-anchor="middle" x="146.583" y="-201.5" font-family="Helvetica,sans-Serif" font-size="10.00">ArbiterProjectIdentifier</text>
</a>
</g>
</g>
<!-- Node1&#45;&gt;Node4 -->
<g id="edge6" class="edge"><title>Node1&#45;&gt;Node4</title>
<path fill="none" stroke="midnightblue" d="M64.3405,-259.796C85.348,-245.927 117.12,-224.951 134.379,-213.557"/>
<polygon fill="midnightblue" stroke="midnightblue" points="62.2204,-257.002 55.8034,-265.432 66.0771,-262.844 62.2204,-257.002"/>
</g>
<!-- Node2 -->
<g id="node3" class="node"><title>Node2</title>
<polygon fill="white" stroke="#bfbfbf" points="51.3721,-65.5 51.3721,-83.5 215.795,-83.5 215.795,-65.5 51.3721,-65.5"/>
<text text-anchor="middle" x="133.583" y="-71.5" font-family="Helvetica,sans-Serif" font-size="10.00">std::vector&lt; ArbiterDependency &gt;</text>
</g>
<!-- Node2&#45;&gt;Node0 -->
<g id="edge2" class="edge"><title>Node2&#45;&gt;Node0</title>
<path fill="none" stroke="#9a32cd" stroke-dasharray="5,2" d="M115.774,-58.5397C100.851,-46.005 80.1222,-28.5925 68.1537,-18.539"/>
<polygon fill="#9a32cd" stroke="#9a32cd" points="113.87,-61.5119 123.779,-65.2639 118.373,-56.1519 113.87,-61.5119"/>
<text text-anchor="middle" x="135.891" y="-39" font-family="Helvetica,sans-Serif" font-size="10.00"> _dependencies</text>
</g>
<!-- Node3&#45;&gt;Node2 -->
<g id="edge3" class="edge"><title>Node3&#45;&gt;Node2</title>
<path fill="none" stroke="#9a32cd" stroke-dasharray="5,2" d="M133.583,-119.907C133.583,-107.815 133.583,-92.6529 133.583,-83.539"/>
<polygon fill="#9a32cd" stroke="#9a32cd" points="130.084,-120.264 133.583,-130.264 137.084,-120.264 130.084,-120.264"/>
<text text-anchor="middle" x="155.261" y="-104" font-family="Helvetica,sans-Serif" font-size="10.00"> elements</text>
</g>
<!-- Node4&#45;&gt;Node3 -->
<g id="edge5" class="edge"><title>Node4&#45;&gt;Node3</title>
<path fill="none" stroke="#9a32cd" stroke-dasharray="5,2" d="M142.824,-185.281C140.316,-173.128 137.142,-157.747 135.242,-148.539"/>
<polygon fill="#9a32cd" stroke="#9a32cd" points="139.435,-186.178 144.884,-195.264 146.291,-184.763 139.435,-186.178"/>
<text text-anchor="middle" x="179.938" y="-169" font-family="Helvetica,sans-Serif" font-size="10.00"> _projectIdentifier</text>
</g>
<!-- Node5 -->
<g id="node6" class="node"><title>Node5</title>
<g id="a_node6"><a xlink:href="class_arbiter_1_1_shared_user_value.html" target="_top" xlink:title="Arbiter::SharedUserValue\l\&lt; ArbiterProjectIdentifier \&gt;">
<polygon fill="white" stroke="black" points="98.7734,-260.5 98.7734,-288.5 230.394,-288.5 230.394,-260.5 98.7734,-260.5"/>
<text text-anchor="start" x="106.773" y="-276.5" font-family="Helvetica,sans-Serif" font-size="10.00">Arbiter::SharedUserValue</text>
<text text-anchor="middle" x="164.583" y="-266.5" font-family="Helvetica,sans-Serif" font-size="10.00">&lt; ArbiterProjectIdentifier &gt;</text>
</a>
</g>
</g>
<!-- Node5&#45;&gt;Node4 -->
<g id="edge7" class="edge"><title>Node5&#45;&gt;Node4</title>
<path fill="none" stroke="#9a32cd" stroke-dasharray="5,2" d="M158.491,-250.483C155.145,-237.845 151.199,-222.937 148.795,-213.855"/>
<polygon fill="#9a32cd" stroke="#9a32cd" points="155.17,-251.618 161.113,-260.389 161.937,-249.826 155.17,-251.618"/>
<text text-anchor="middle" x="172.707" y="-234" font-family="Helvetica,sans-Serif" font-size="10.00"> _value</text>
</g>
</g>
</svg>
