<?xml version="1.0" encoding="UTF-8" standalone="no"?>
<!DOCTYPE svg PUBLIC "-//W3C//DTD SVG 1.1//EN"
 "http://www.w3.org/Graphics/SVG/1.1/DTD/svg11.dtd">
<!-- Generated by graphviz version 2.38.0 (20140413.2041)
 -->
<!-- Title: Arbiter::Exception::UserError Pages: 1 -->
<svg width="103pt" height="212pt"
 viewBox="0.00 0.00 102.93 212.00" xmlns="http://www.w3.org/2000/svg" xmlns:xlink="http://www.w3.org/1999/xlink">
<g id="graph0" class="graph" transform="scale(1 1) rotate(0) translate(4 208)">
<title>Arbiter::Exception::UserError</title>
<polygon fill="white" stroke="none" points="-4,4 -4,-208 98.9258,-208 98.9258,4 -4,4"/>
<!-- Node0 -->
<g id="node1" class="node"><title>Node0</title>
<polygon fill="#bfbfbf" stroke="black" points="0,-0.5 0,-28.5 94.9258,-28.5 94.9258,-0.5 0,-0.5"/>
<text text-anchor="start" x="8" y="-16.5" font-family="Helvetica,sans-Serif" font-size="10.00">Arbiter::Exception</text>
<text text-anchor="middle" x="47.4629" y="-6.5" font-family="Helvetica,sans-Serif" font-size="10.00">::UserError</text>
</g>
<!-- Node1 -->
<g id="node2" class="node"><title>Node1</title>
<g id="a_node2"><a xlink:href="struct_arbiter_1_1_exception_1_1_base.html" target="_top" xlink:title="Base type for Arbiter exceptions. ">
<polygon fill="white" stroke="black" points="0,-65.5 0,-93.5 94.9258,-93.5 94.9258,-65.5 0,-65.5"/>
<text text-anchor="start" x="8" y="-81.5" font-family="Helvetica,sans-Serif" font-size="10.00">Arbiter::Exception</text>
<text text-anchor="middle" x="47.4629" y="-71.5" font-family="Helvetica,sans-Serif" font-size="10.00">::Base</text>
</a>
</g>
</g>
<!-- Node1&#45;&gt;Node0 -->
<g id="edge1" class="edge"><title>Node1&#45;&gt;Node0</title>
<path fill="none" stroke="midnightblue" d="M47.4629,-55.1641C47.4629,-46.1693 47.4629,-36.2205 47.4629,-28.5369"/>
<polygon fill="midnightblue" stroke="midnightblue" points="43.963,-55.4463 47.4629,-65.4464 50.963,-55.4464 43.963,-55.4463"/>
</g>
<!-- Node2 -->
<g id="node3" class="node"><title>Node2</title>
<g id="a_node3"><a xlink:title="STL class. ">
<polygon fill="white" stroke="#bfbfbf" points="0.00488281,-130.5 0.00488281,-148.5 94.9209,-148.5 94.9209,-130.5 0.00488281,-130.5"/>
<text text-anchor="middle" x="47.4629" y="-136.5" font-family="Helvetica,sans-Serif" font-size="10.00">std::runtime_error</text>
</a>
</g>
</g>
<!-- Node2&#45;&gt;Node1 -->
<g id="edge2" class="edge"><title>Node2&#45;&gt;Node1</title>
<path fill="none" stroke="midnightblue" d="M47.4629,-120.321C47.4629,-111.747 47.4629,-101.7 47.4629,-93.8428"/>
<polygon fill="midnightblue" stroke="midnightblue" points="43.963,-120.435 47.4629,-130.435 50.963,-120.435 43.963,-120.435"/>
</g>
<!-- Node3 -->
<g id="node4" class="node"><title>Node3</title>
<g id="a_node4"><a xlink:title="STL class. ">
<polygon fill="white" stroke="#bfbfbf" points="8.61084,-185.5 8.61084,-203.5 86.3149,-203.5 86.3149,-185.5 8.61084,-185.5"/>
<text text-anchor="middle" x="47.4629" y="-191.5" font-family="Helvetica,sans-Serif" font-size="10.00">std::exception</text>
</a>
</g>
</g>
<!-- Node3&#45;&gt;Node2 -->
<g id="edge3" class="edge"><title>Node3&#45;&gt;Node2</title>
<path fill="none" stroke="midnightblue" d="M47.4629,-175.175C47.4629,-166.094 47.4629,-155.595 47.4629,-148.55"/>
<polygon fill="midnightblue" stroke="midnightblue" points="43.963,-175.219 47.4629,-185.219 50.963,-175.219 43.963,-175.219"/>
</g>
</g>
</svg>
