<?xml version="1.0" encoding="UTF-8" standalone="no"?>
<!DOCTYPE svg PUBLIC "-//W3C//DTD SVG 1.1//EN"
 "http://www.w3.org/Graphics/SVG/1.1/DTD/svg11.dtd">
<!-- Generated by graphviz version 2.38.0 (20140413.2041)
 -->
<!-- Title: ArbiterResolvedDependency Pages: 1 -->
<svg width="854pt" height="294pt"
 viewBox="0.00 0.00 854.30 294.00" xmlns="http://www.w3.org/2000/svg" xmlns:xlink="http://www.w3.org/1999/xlink">
<g id="graph0" class="graph" transform="scale(1 1) rotate(0) translate(4 290)">
<title>ArbiterResolvedDependency</title>
<polygon fill="white" stroke="none" points="-4,4 -4,-290 850.302,-290 850.302,4 -4,4"/>
<!-- Node1 -->
<g id="node1" class="node"><title>Node1</title>
<polygon fill="#bfbfbf" stroke="black" points="703.007,-204.5 703.007,-222.5 846.302,-222.5 846.302,-204.5 703.007,-204.5"/>
<text text-anchor="middle" x="774.654" y="-210.5" font-family="Helvetica,sans-Serif" font-size="10.00">ArbiterResolvedDependency</text>
</g>
<!-- Node2 -->
<g id="node2" class="node"><title>Node2</title>
<g id="a_node2"><a xlink:href="class_arbiter_1_1_base.html" target="_top" xlink:title="Base class for public&#45;facing Arbiter types, such that they automatically get freeing, cloning, equality, and description functionality. ">
<polygon fill="white" stroke="black" points="28.9087,-161.5 28.9087,-179.5 102.711,-179.5 102.711,-161.5 28.9087,-161.5"/>
<text text-anchor="middle" x="65.8101" y="-167.5" font-family="Helvetica,sans-Serif" font-size="10.00">Arbiter::Base</text>
</a>
</g>
</g>
<!-- Node2&#45;&gt;Node1 -->
<g id="edge1" class="edge"><title>Node2&#45;&gt;Node1</title>
<path fill="none" stroke="midnightblue" d="M113.077,-177.183C151.434,-182.465 207.434,-189.579 256.57,-193.5 415.752,-206.204 603.17,-210.908 702.872,-212.597"/>
<polygon fill="midnightblue" stroke="midnightblue" points="113.134,-173.657 102.747,-175.746 112.169,-180.591 113.134,-173.657"/>
</g>
<!-- Node3 -->
<g id="node3" class="node"><title>Node3</title>
<g id="a_node3"><a xlink:href="struct_arbiter_selected_version.html" target="_top" xlink:title="Represents a &quot;selected&quot; version, which is a concrete choice of a real project version. ">
<polygon fill="white" stroke="black" points="508.702,-139.5 508.702,-157.5 626.431,-157.5 626.431,-139.5 508.702,-139.5"/>
<text text-anchor="middle" x="567.566" y="-145.5" font-family="Helvetica,sans-Serif" font-size="10.00">ArbiterSelectedVersion</text>
</a>
</g>
</g>
<!-- Node2&#45;&gt;Node3 -->
<g id="edge3" class="edge"><title>Node2&#45;&gt;Node3</title>
<path fill="none" stroke="midnightblue" d="M113.384,-162.948C151.703,-157.136 207.495,-149.591 256.57,-146.5 316.193,-142.745 331.248,-146.16 390.988,-146.5 430.16,-146.723 474.245,-147.226 508.441,-147.672"/>
<polygon fill="midnightblue" stroke="midnightblue" points="112.411,-159.557 103.059,-164.537 113.475,-166.475 112.411,-159.557"/>
</g>
<!-- Node4 -->
<g id="node4" class="node"><title>Node4</title>
<g id="a_node4"><a xlink:href="struct_arbiter_semantic_version.html" target="_top" xlink:title="Represents a semantic version, as defined by semver.org. ">
<polygon fill="white" stroke="black" points="263.531,-59.5 263.531,-77.5 384.028,-77.5 384.028,-59.5 263.531,-59.5"/>
<text text-anchor="middle" x="323.779" y="-65.5" font-family="Helvetica,sans-Serif" font-size="10.00">ArbiterSemanticVersion</text>
</a>
</g>
</g>
<!-- Node2&#45;&gt;Node4 -->
<g id="edge5" class="edge"><title>Node2&#45;&gt;Node4</title>
<path fill="none" stroke="midnightblue" d="M86.3414,-155.275C102.521,-143.292 126.523,-126.929 149.62,-116.5 173.716,-105.62 241.815,-88.1047 285.084,-77.5105"/>
<polygon fill="midnightblue" stroke="midnightblue" points="84.0825,-152.595 78.2132,-161.415 88.302,-158.18 84.0825,-152.595"/>
</g>
<!-- Node8 -->
<g id="node8" class="node"><title>Node8</title>
<g id="a_node8"><a xlink:href="struct_arbiter_project_identifier.html" target="_top" xlink:title="An opaque value which identifies a project participating in dependency resolution. ">
<polygon fill="white" stroke="black" points="266.314,-250.5 266.314,-268.5 381.245,-268.5 381.245,-250.5 266.314,-250.5"/>
<text text-anchor="middle" x="323.779" y="-256.5" font-family="Helvetica,sans-Serif" font-size="10.00">ArbiterProjectIdentifier</text>
</a>
</g>
</g>
<!-- Node2&#45;&gt;Node8 -->
<g id="edge10" class="edge"><title>Node2&#45;&gt;Node8</title>
<path fill="none" stroke="midnightblue" d="M85.8757,-185.96C101.946,-198.218 126.033,-214.842 149.62,-224.5 186.944,-239.783 231.613,-248.6 266.233,-253.562"/>
<polygon fill="midnightblue" stroke="midnightblue" points="87.8615,-183.07 77.8266,-179.671 83.5516,-188.586 87.8615,-183.07"/>
</g>
<!-- Node3&#45;&gt;Node1 -->
<g id="edge2" class="edge"><title>Node3&#45;&gt;Node1</title>
<path fill="none" stroke="#9a32cd" stroke-dasharray="5,2" d="M606.774,-160.609C646.871,-173.318 708.988,-193.005 745.05,-204.434"/>
<polygon fill="#9a32cd" stroke="#9a32cd" points="607.673,-157.223 597.083,-157.538 605.558,-163.896 607.673,-157.223"/>
<text text-anchor="middle" x="664.719" y="-187.5" font-family="Helvetica,sans-Serif" font-size="10.00"> _version</text>
</g>
<!-- Node4&#45;&gt;Node3 -->
<g id="edge4" class="edge"><title>Node4&#45;&gt;Node3</title>
<path fill="none" stroke="#9a32cd" stroke-dasharray="5,2" d="M394.171,-77.9195C424.473,-83.3515 460.02,-91.5417 490.702,-103.5 514.53,-112.787 539.554,-129.107 554.074,-139.332"/>
<polygon fill="#9a32cd" stroke="#9a32cd" points="394.56,-74.4349 384.11,-76.1816 393.368,-81.3328 394.56,-74.4349"/>
<text text-anchor="middle" x="449.845" y="-105.5" font-family="Helvetica,sans-Serif" font-size="10.00"> _semanticVersion</text>
</g>
<!-- Node5 -->
<g id="node5" class="node"><title>Node5</title>
<g id="a_node5"><a xlink:href="struct_arbiter_1_1_optional.html" target="_top" xlink:title="Arbiter::Optional\&lt;\l std::string \&gt;">
<polygon fill="white" stroke="black" points="18.7622,-0.5 18.7622,-28.5 112.858,-28.5 112.858,-0.5 18.7622,-0.5"/>
<text text-anchor="start" x="26.7622" y="-16.5" font-family="Helvetica,sans-Serif" font-size="10.00">Arbiter::Optional&lt;</text>
<text text-anchor="middle" x="65.8101" y="-6.5" font-family="Helvetica,sans-Serif" font-size="10.00"> std::string &gt;</text>
</a>
</g>
</g>
<!-- Node5&#45;&gt;Node4 -->
<g id="edge6" class="edge"><title>Node5&#45;&gt;Node4</title>
<path fill="none" stroke="#9a32cd" stroke-dasharray="5,2" d="M123.224,-16.1634C157.111,-18.2063 200.832,-22.6945 238.57,-32.5 262.884,-38.8174 289.263,-51.0499 305.895,-59.4896"/>
<polygon fill="#9a32cd" stroke="#9a32cd" points="123.218,-12.6578 113.041,-15.6047 122.834,-19.6473 123.218,-12.6578"/>
<text text-anchor="middle" x="194.095" y="-44.5" font-family="Helvetica,sans-Serif" font-size="10.00"> _prereleaseVersion</text>
<text text-anchor="middle" x="194.095" y="-34.5" font-family="Helvetica,sans-Serif" font-size="10.00">_buildMetadata</text>
</g>
<!-- Node6 -->
<g id="node6" class="node"><title>Node6</title>
<polygon fill="white" stroke="#bfbfbf" points="37.5146,-48.5 37.5146,-66.5 94.1055,-66.5 94.1055,-48.5 37.5146,-48.5"/>
<text text-anchor="middle" x="65.8101" y="-54.5" font-family="Helvetica,sans-Serif" font-size="10.00">unsigned</text>
</g>
<!-- Node6&#45;&gt;Node4 -->
<g id="edge7" class="edge"><title>Node6&#45;&gt;Node4</title>
<path fill="none" stroke="#9a32cd" stroke-dasharray="5,2" d="M104.399,-56.5062C139.225,-55.8732 192.447,-55.6362 238.57,-58.5 246.652,-59.0018 255.148,-59.7496 263.507,-60.6144"/>
<polygon fill="#9a32cd" stroke="#9a32cd" points="104.137,-53.0107 94.2101,-56.7124 104.279,-60.0093 104.137,-53.0107"/>
<text text-anchor="middle" x="194.095" y="-80.5" font-family="Helvetica,sans-Serif" font-size="10.00"> _minor</text>
<text text-anchor="middle" x="194.095" y="-70.5" font-family="Helvetica,sans-Serif" font-size="10.00">_patch</text>
<text text-anchor="middle" x="194.095" y="-60.5" font-family="Helvetica,sans-Serif" font-size="10.00">_major</text>
</g>
<!-- Node7 -->
<g id="node7" class="node"><title>Node7</title>
<g id="a_node7"><a xlink:href="class_arbiter_1_1_shared_user_value.html" target="_top" xlink:title="Arbiter::SharedUserValue\l\&lt; ArbiterSelectedVersion \&gt;">
<polygon fill="white" stroke="black" points="256.57,-156.5 256.57,-184.5 390.988,-184.5 390.988,-156.5 256.57,-156.5"/>
<text text-anchor="start" x="264.57" y="-172.5" font-family="Helvetica,sans-Serif" font-size="10.00">Arbiter::SharedUserValue</text>
<text text-anchor="middle" x="323.779" y="-162.5" font-family="Helvetica,sans-Serif" font-size="10.00">&lt; ArbiterSelectedVersion &gt;</text>
</a>
</g>
</g>
<!-- Node7&#45;&gt;Node3 -->
<g id="edge8" class="edge"><title>Node7&#45;&gt;Node3</title>
<path fill="none" stroke="#9a32cd" stroke-dasharray="5,2" d="M401.271,-163.54C435.992,-160.381 476.386,-156.705 508.552,-153.779"/>
<polygon fill="#9a32cd" stroke="#9a32cd" points="400.81,-160.067 391.168,-164.459 401.445,-167.039 400.81,-160.067"/>
<text text-anchor="middle" x="449.845" y="-165.5" font-family="Helvetica,sans-Serif" font-size="10.00"> _metadata</text>
</g>
<!-- Node8&#45;&gt;Node1 -->
<g id="edge9" class="edge"><title>Node8&#45;&gt;Node1</title>
<path fill="none" stroke="#9a32cd" stroke-dasharray="5,2" d="M391.714,-254.923C464.153,-249.65 582.999,-240.071 685.007,-227.5 696.45,-226.09 708.685,-224.325 720.297,-222.529"/>
<polygon fill="#9a32cd" stroke="#9a32cd" points="391.093,-251.458 381.371,-255.669 391.597,-258.44 391.093,-251.458"/>
<text text-anchor="middle" x="567.566" y="-247.5" font-family="Helvetica,sans-Serif" font-size="10.00"> _project</text>
</g>
<!-- Node9 -->
<g id="node9" class="node"><title>Node9</title>
<g id="a_node9"><a xlink:href="class_arbiter_1_1_shared_user_value.html" target="_top" xlink:title="Arbiter::SharedUserValue\l\&lt; ArbiterProjectIdentifier \&gt;">
<polygon fill="white" stroke="black" points="0,-257.5 0,-285.5 131.62,-285.5 131.62,-257.5 0,-257.5"/>
<text text-anchor="start" x="8" y="-273.5" font-family="Helvetica,sans-Serif" font-size="10.00">Arbiter::SharedUserValue</text>
<text text-anchor="middle" x="65.8101" y="-263.5" font-family="Helvetica,sans-Serif" font-size="10.00">&lt; ArbiterProjectIdentifier &gt;</text>
</a>
</g>
</g>
<!-- Node9&#45;&gt;Node8 -->
<g id="edge11" class="edge"><title>Node9&#45;&gt;Node8</title>
<path fill="none" stroke="#9a32cd" stroke-dasharray="5,2" d="M141.909,-267.979C181.646,-266.116 229.635,-263.867 266.195,-262.153"/>
<polygon fill="#9a32cd" stroke="#9a32cd" points="141.558,-264.492 131.733,-268.456 141.886,-271.484 141.558,-264.492"/>
<text text-anchor="middle" x="194.095" y="-269.5" font-family="Helvetica,sans-Serif" font-size="10.00"> _value</text>
</g>
</g>
</svg>
