<?xml version="1.0" encoding="UTF-8" standalone="no"?>
<!DOCTYPE svg PUBLIC "-//W3C//DTD SVG 1.1//EN"
 "http://www.w3.org/Graphics/SVG/1.1/DTD/svg11.dtd">
<!-- Generated by graphviz version 2.38.0 (20140413.2041)
 -->
<!-- Title: ArbiterSelectedVersionList Pages: 1 -->
<svg width="811pt" height="125pt"
 viewBox="0.00 0.00 810.65 125.00" xmlns="http://www.w3.org/2000/svg" xmlns:xlink="http://www.w3.org/1999/xlink">
<g id="graph0" class="graph" transform="scale(1 1) rotate(0) translate(4 121)">
<title>ArbiterSelectedVersionList</title>
<polygon fill="white" stroke="none" points="-4,4 -4,-121 806.649,-121 806.649,4 -4,4"/>
<!-- Node0 -->
<g id="node1" class="node"><title>Node0</title>
<polygon fill="#bfbfbf" stroke="black" points="669.359,-84.5 669.359,-102.5 802.649,-102.5 802.649,-84.5 669.359,-84.5"/>
<text text-anchor="middle" x="736.004" y="-90.5" font-family="Helvetica,sans-Serif" font-size="10.00">ArbiterSelectedVersionList</text>
</g>
<!-- Node1 -->
<g id="node2" class="node"><title>Node1</title>
<g id="a_node2"><a xlink:href="class_arbiter_1_1_base.html" target="_top" xlink:title="Base class for public&#45;facing Arbiter types, such that they automatically get freeing, cloning, equality, and description functionality. ">
<polygon fill="white" stroke="black" points="30.3076,-98.5 30.3076,-116.5 104.11,-116.5 104.11,-98.5 30.3076,-98.5"/>
<text text-anchor="middle" x="67.209" y="-104.5" font-family="Helvetica,sans-Serif" font-size="10.00">Arbiter::Base</text>
</a>
</g>
</g>
<!-- Node1&#45;&gt;Node0 -->
<g id="edge1" class="edge"><title>Node1&#45;&gt;Node0</title>
<path fill="none" stroke="midnightblue" d="M114.613,-106.892C213.367,-105.54 451.639,-101.965 651.359,-96.5 657.17,-96.341 663.206,-96.1585 669.257,-95.9636"/>
<polygon fill="midnightblue" stroke="midnightblue" points="114.334,-103.396 104.382,-107.031 114.429,-110.395 114.334,-103.396"/>
</g>
<!-- Node3 -->
<g id="node4" class="node"><title>Node3</title>
<g id="a_node4"><a xlink:href="struct_arbiter_selected_version.html" target="_top" xlink:title="Represents a &quot;selected&quot; version, which is a concrete choice of a real project version. ">
<polygon fill="white" stroke="black" points="252.132,-53.5 252.132,-71.5 369.86,-71.5 369.86,-53.5 252.132,-53.5"/>
<text text-anchor="middle" x="310.996" y="-59.5" font-family="Helvetica,sans-Serif" font-size="10.00">ArbiterSelectedVersion</text>
</a>
</g>
</g>
<!-- Node1&#45;&gt;Node3 -->
<g id="edge4" class="edge"><title>Node1&#45;&gt;Node3</title>
<path fill="none" stroke="midnightblue" d="M114.128,-98.9538C156.225,-91.119 218.362,-79.5545 261.309,-71.5613"/>
<polygon fill="midnightblue" stroke="midnightblue" points="113.337,-95.5409 104.146,-100.812 114.617,-102.423 113.337,-95.5409"/>
</g>
<!-- Node2 -->
<g id="node3" class="node"><title>Node2</title>
<polygon fill="white" stroke="#bfbfbf" points="449.215,-52.5 449.215,-80.5 587.783,-80.5 587.783,-52.5 449.215,-52.5"/>
<text text-anchor="start" x="457.215" y="-68.5" font-family="Helvetica,sans-Serif" font-size="10.00">std::vector&lt; ArbiterSelected</text>
<text text-anchor="middle" x="518.499" y="-58.5" font-family="Helvetica,sans-Serif" font-size="10.00">Version &gt;</text>
</g>
<!-- Node2&#45;&gt;Node0 -->
<g id="edge2" class="edge"><title>Node2&#45;&gt;Node0</title>
<path fill="none" stroke="#9a32cd" stroke-dasharray="5,2" d="M598.2,-76.3602C621.541,-79.2845 646.847,-82.455 669.274,-85.2648"/>
<polygon fill="#9a32cd" stroke="#9a32cd" points="598.34,-72.8505 587.982,-75.0801 597.47,-79.7962 598.34,-72.8505"/>
<text text-anchor="middle" x="628.571" y="-84.5" font-family="Helvetica,sans-Serif" font-size="10.00"> _versions</text>
</g>
<!-- Node3&#45;&gt;Node2 -->
<g id="edge3" class="edge"><title>Node3&#45;&gt;Node2</title>
<path fill="none" stroke="#9a32cd" stroke-dasharray="5,2" d="M380.356,-63.8306C402.446,-64.2605 426.932,-64.7372 449.029,-65.1673"/>
<polygon fill="#9a32cd" stroke="#9a32cd" points="380.127,-60.3256 370.061,-63.6302 379.991,-67.3242 380.127,-60.3256"/>
<text text-anchor="middle" x="409.538" y="-67.5" font-family="Helvetica,sans-Serif" font-size="10.00"> elements</text>
</g>
<!-- Node4 -->
<g id="node5" class="node"><title>Node4</title>
<g id="a_node5"><a xlink:href="struct_arbiter_1_1_optional.html" target="_top" xlink:title="Arbiter::Optional\&lt;\l ArbiterSemanticVersion \&gt;">
<polygon fill="white" stroke="black" points="1.53564,-47.5 1.53564,-75.5 132.882,-75.5 132.882,-47.5 1.53564,-47.5"/>
<text text-anchor="start" x="9.53564" y="-63.5" font-family="Helvetica,sans-Serif" font-size="10.00">Arbiter::Optional&lt;</text>
<text text-anchor="middle" x="67.209" y="-53.5" font-family="Helvetica,sans-Serif" font-size="10.00"> ArbiterSemanticVersion &gt;</text>
</a>
</g>
</g>
<!-- Node4&#45;&gt;Node3 -->
<g id="edge5" class="edge"><title>Node4&#45;&gt;Node3</title>
<path fill="none" stroke="#9a32cd" stroke-dasharray="5,2" d="M143.2,-61.8102C178.275,-61.9552 219.405,-62.1253 252.046,-62.2603"/>
<polygon fill="#9a32cd" stroke="#9a32cd" points="143.018,-58.3095 133.003,-61.768 142.989,-65.3094 143.018,-58.3095"/>
<text text-anchor="middle" x="193.275" y="-64.5" font-family="Helvetica,sans-Serif" font-size="10.00"> _semanticVersion</text>
</g>
<!-- Node5 -->
<g id="node6" class="node"><title>Node5</title>
<g id="a_node6"><a xlink:href="class_arbiter_1_1_shared_user_value.html" target="_top" xlink:title="Arbiter::SharedUserValue\l\&lt; ArbiterSelectedVersion \&gt;">
<polygon fill="white" stroke="black" points="0,-0.5 0,-28.5 134.418,-28.5 134.418,-0.5 0,-0.5"/>
<text text-anchor="start" x="8" y="-16.5" font-family="Helvetica,sans-Serif" font-size="10.00">Arbiter::SharedUserValue</text>
<text text-anchor="middle" x="67.209" y="-6.5" font-family="Helvetica,sans-Serif" font-size="10.00">&lt; ArbiterSelectedVersion &gt;</text>
</a>
</g>
</g>
<!-- Node5&#45;&gt;Node3 -->
<g id="edge6" class="edge"><title>Node5&#45;&gt;Node3</title>
<path fill="none" stroke="#9a32cd" stroke-dasharray="5,2" d="M144.448,-29.6351C183.863,-37.4598 230.646,-46.7472 264.407,-53.4496"/>
<polygon fill="#9a32cd" stroke="#9a32cd" points="145.088,-26.194 134.598,-27.6797 143.725,-33.06 145.088,-26.194"/>
<text text-anchor="middle" x="193.275" y="-49.5" font-family="Helvetica,sans-Serif" font-size="10.00"> _metadata</text>
</g>
</g>
</svg>
