<?xml version="1.0" encoding="UTF-8" standalone="no"?>
<!DOCTYPE svg PUBLIC "-//W3C//DTD SVG 1.1//EN"
 "http://www.w3.org/Graphics/SVG/1.1/DTD/svg11.dtd">
<!-- Generated by graphviz version 2.38.0 (20140413.2041)
 -->
<!-- Title: ArbiterUserContext Pages: 1 -->
<svg width="164pt" height="92pt"
 viewBox="0.00 0.00 163.52 92.00" xmlns="http://www.w3.org/2000/svg" xmlns:xlink="http://www.w3.org/1999/xlink">
<g id="graph0" class="graph" transform="scale(1 1) rotate(0) translate(4 88)">
<title>ArbiterUserContext</title>
<polygon fill="white" stroke="none" points="-4,4 -4,-88 159.524,-88 159.524,4 -4,4"/>
<!-- Node0 -->
<g id="node1" class="node"><title>Node0</title>
<polygon fill="#bfbfbf" stroke="black" points="40.5024,-0.5 40.5024,-18.5 141.532,-18.5 141.532,-0.5 40.5024,-0.5"/>
<text text-anchor="middle" x="91.0171" y="-6.5" font-family="Helvetica,sans-Serif" font-size="10.00">ArbiterUserContext</text>
</g>
<!-- Node1 -->
<g id="node2" class="node"><title>Node1</title>
<polygon fill="white" stroke="#bfbfbf" points="0,-65.5 0,-83.5 96.0342,-83.5 96.0342,-65.5 0,-65.5"/>
<text text-anchor="middle" x="48.0171" y="-71.5" font-family="Helvetica,sans-Serif" font-size="10.00">void(*)(void *data)</text>
</g>
<!-- Node1&#45;&gt;Node0 -->
<g id="edge1" class="edge"><title>Node1&#45;&gt;Node0</title>
<path fill="none" stroke="#9a32cd" stroke-dasharray="5,2" d="M55.2913,-55.794C58.172,-49.6155 61.759,-42.7848 65.7759,-37 70.4145,-30.3198 76.7248,-23.6948 81.8755,-18.7399"/>
<polygon fill="#9a32cd" stroke="#9a32cd" points="51.9455,-54.7107 51.1591,-65.2763 58.3627,-57.5072 51.9455,-54.7107"/>
<text text-anchor="middle" x="89.6377" y="-39" font-family="Helvetica,sans-Serif" font-size="10.00"> destructor</text>
</g>
<!-- Node2 -->
<g id="node3" class="node"><title>Node2</title>
<polygon fill="white" stroke="#bfbfbf" points="114.51,-65.5 114.51,-83.5 155.524,-83.5 155.524,-65.5 114.51,-65.5"/>
<text text-anchor="middle" x="135.017" y="-71.5" font-family="Helvetica,sans-Serif" font-size="10.00">void *</text>
</g>
<!-- Node2&#45;&gt;Node0 -->
<g id="edge2" class="edge"><title>Node2&#45;&gt;Node0</title>
<path fill="none" stroke="#9a32cd" stroke-dasharray="5,2" d="M125.497,-56.5141C121.8,-50.2485 117.404,-43.1751 113.017,-37 108.446,-30.5654 102.74,-23.7209 98.2843,-18.6"/>
<polygon fill="#9a32cd" stroke="#9a32cd" points="122.614,-58.5213 130.629,-65.4502 128.684,-55.0354 122.614,-58.5213"/>
<text text-anchor="middle" x="131.138" y="-39" font-family="Helvetica,sans-Serif" font-size="10.00"> data</text>
</g>
</g>
</svg>
