<?xml version="1.0" encoding="UTF-8" standalone="no"?>
<!DOCTYPE svg PUBLIC "-//W3C//DTD SVG 1.1//EN"
 "http://www.w3.org/Graphics/SVG/1.1/DTD/svg11.dtd">
<!-- Generated by graphviz version 2.38.0 (20140413.2041)
 -->
<!-- Title: ArbiterResolvedDependencyGraph Pages: 1 -->
<svg width="222pt" height="232pt"
 viewBox="0.00 0.00 221.55 232.00" xmlns="http://www.w3.org/2000/svg" xmlns:xlink="http://www.w3.org/1999/xlink">
<g id="graph0" class="graph" transform="scale(1 1) rotate(0) translate(4 228)">
<title>ArbiterResolvedDependencyGraph</title>
<polygon fill="white" stroke="none" points="-4,4 -4,-228 217.549,-228 217.549,4 -4,4"/>
<!-- Node1 -->
<g id="node1" class="node"><title>Node1</title>
<polygon fill="#bfbfbf" stroke="black" points="2.25391,-0.5 2.25391,-28.5 145.549,-28.5 145.549,-0.5 2.25391,-0.5"/>
<text text-anchor="start" x="10.2539" y="-16.5" font-family="Helvetica,sans-Serif" font-size="10.00">ArbiterResolvedDependency</text>
<text text-anchor="middle" x="73.9014" y="-6.5" font-family="Helvetica,sans-Serif" font-size="10.00">Graph</text>
</g>
<!-- Node2 -->
<g id="node2" class="node"><title>Node2</title>
<g id="a_node2"><a xlink:href="class_arbiter_1_1_base.html" target="_top" xlink:title="Base class for public&#45;facing Arbiter types, such that they automatically get freeing, cloning, equality, and description functionality. ">
<polygon fill="white" stroke="black" points="0,-75.5 0,-93.5 73.8027,-93.5 73.8027,-75.5 0,-75.5"/>
<text text-anchor="middle" x="36.9014" y="-81.5" font-family="Helvetica,sans-Serif" font-size="10.00">Arbiter::Base</text>
</a>
</g>
</g>
<!-- Node2&#45;&gt;Node1 -->
<g id="edge1" class="edge"><title>Node2&#45;&gt;Node1</title>
<path fill="none" stroke="midnightblue" d="M46.0793,-66.6325C52.4572,-54.9109 60.8363,-39.5114 66.7263,-28.6867"/>
<polygon fill="midnightblue" stroke="midnightblue" points="42.9962,-64.9757 41.291,-75.4325 49.1449,-68.3214 42.9962,-64.9757"/>
</g>
<!-- Node3 -->
<g id="node3" class="node"><title>Node3</title>
<polygon fill="white" stroke="#bfbfbf" points="91.3721,-75.5 91.3721,-93.5 212.431,-93.5 212.431,-75.5 91.3721,-75.5"/>
<text text-anchor="middle" x="151.901" y="-81.5" font-family="Helvetica,sans-Serif" font-size="10.00">std::vector&lt; DepthSet &gt;</text>
</g>
<!-- Node3&#45;&gt;Node1 -->
<g id="edge2" class="edge"><title>Node3&#45;&gt;Node1</title>
<path fill="none" stroke="#9a32cd" stroke-dasharray="5,2" d="M134.926,-68.7009C121.247,-56.7753 102.189,-40.1609 89.0273,-28.6867"/>
<polygon fill="#9a32cd" stroke="#9a32cd" points="132.81,-71.4993 142.647,-75.4325 137.41,-66.2229 132.81,-71.4993"/>
<text text-anchor="middle" x="138.083" y="-49" font-family="Helvetica,sans-Serif" font-size="10.00"> _depths</text>
</g>
<!-- Node4 -->
<g id="node4" class="node"><title>Node4</title>
<g id="a_node4"><a xlink:title="STL class. ">
<polygon fill="white" stroke="#bfbfbf" points="90.2539,-140.5 90.2539,-158.5 213.549,-158.5 213.549,-140.5 90.2539,-140.5"/>
<text text-anchor="middle" x="151.901" y="-146.5" font-family="Helvetica,sans-Serif" font-size="10.00">std::unordered_set&lt; K &gt;</text>
</a>
</g>
</g>
<!-- Node4&#45;&gt;Node3 -->
<g id="edge3" class="edge"><title>Node4&#45;&gt;Node3</title>
<path fill="none" stroke="#9a32cd" stroke-dasharray="5,2" d="M151.901,-129.907C151.901,-117.815 151.901,-102.653 151.901,-93.539"/>
<polygon fill="#9a32cd" stroke="#9a32cd" points="148.401,-130.264 151.901,-140.264 155.401,-130.264 148.401,-130.264"/>
<text text-anchor="middle" x="173.579" y="-114" font-family="Helvetica,sans-Serif" font-size="10.00"> elements</text>
</g>
<!-- Node5 -->
<g id="node5" class="node"><title>Node5</title>
<polygon fill="white" stroke="#bfbfbf" points="137.401,-205.5 137.401,-223.5 166.401,-223.5 166.401,-205.5 137.401,-205.5"/>
<text text-anchor="middle" x="151.736" y="-211.5" font-family="Helvetica,sans-Serif" font-size="10.00">K</text>
</g>
<!-- Node5&#45;&gt;Node4 -->
<g id="edge4" class="edge"><title>Node5&#45;&gt;Node4</title>
<path fill="none" stroke="#9a32cd" stroke-dasharray="5,2" d="M151.901,-194.907C151.901,-182.815 151.901,-167.653 151.901,-158.539"/>
<polygon fill="#9a32cd" stroke="#9a32cd" points="148.401,-195.264 151.901,-205.264 155.401,-195.264 148.401,-195.264"/>
<text text-anchor="middle" x="163.571" y="-179" font-family="Helvetica,sans-Serif" font-size="10.00"> keys</text>
</g>
</g>
</svg>
