<?xml version="1.0" encoding="UTF-8" standalone="no"?>
<!DOCTYPE svg PUBLIC "-//W3C//DTD SVG 1.1//EN"
 "http://www.w3.org/Graphics/SVG/1.1/DTD/svg11.dtd">
<!-- Generated by graphviz version 2.38.0 (20140413.2041)
 -->
<!-- Title: Arbiter::IteratorRange&lt; It &gt; Pages: 1 -->
<svg width="120pt" height="112pt"
 viewBox="0.00 0.00 120.16 112.00" xmlns="http://www.w3.org/2000/svg" xmlns:xlink="http://www.w3.org/1999/xlink">
<g id="graph0" class="graph" transform="scale(1 1) rotate(0) translate(4 108)">
<title>Arbiter::IteratorRange&lt; It &gt;</title>
<polygon fill="white" stroke="none" points="-4,4 -4,-108 116.157,-108 116.157,4 -4,4"/>
<!-- Node1 -->
<g id="node1" class="node"><title>Node1</title>
<polygon fill="#bfbfbf" stroke="black" points="0,-0.5 0,-28.5 112.157,-28.5 112.157,-0.5 0,-0.5"/>
<text text-anchor="start" x="8" y="-16.5" font-family="Helvetica,sans-Serif" font-size="10.00">Arbiter::IteratorRange</text>
<text text-anchor="middle" x="56.0786" y="-6.5" font-family="Helvetica,sans-Serif" font-size="10.00">&lt; It &gt;</text>
</g>
<!-- Node2 -->
<g id="node2" class="node"><title>Node2</title>
<polygon fill="white" stroke="#bfbfbf" points="41.5786,-85.5 41.5786,-103.5 70.5786,-103.5 70.5786,-85.5 41.5786,-85.5"/>
<text text-anchor="middle" x="55.8569" y="-91.5" font-family="Helvetica,sans-Serif" font-size="10.00">It</text>
</g>
<!-- Node2&#45;&gt;Node1 -->
<g id="edge1" class="edge"><title>Node2&#45;&gt;Node1</title>
<path fill="none" stroke="#9a32cd" stroke-dasharray="5,2" d="M56.0786,-75.3218C56.0786,-60.9889 56.0786,-41.3474 56.0786,-28.5431"/>
<polygon fill="#9a32cd" stroke="#9a32cd" points="52.5787,-75.4464 56.0786,-85.4464 59.5787,-75.4464 52.5787,-75.4464"/>
<text text-anchor="middle" x="72.4824" y="-59" font-family="Helvetica,sans-Serif" font-size="10.00"> _begin</text>
<text text-anchor="middle" x="72.4824" y="-49" font-family="Helvetica,sans-Serif" font-size="10.00">_end</text>
</g>
</g>
</svg>
