<?xml version="1.0" encoding="UTF-8" standalone="no"?>
<!DOCTYPE svg PUBLIC "-//W3C//DTD SVG 1.1//EN"
 "http://www.w3.org/Graphics/SVG/1.1/DTD/svg11.dtd">
<!-- Generated by graphviz version 2.38.0 (20140413.2041)
 -->
<!-- Title: ArbiterResolverBehaviors Pages: 1 -->
<svg width="1408pt" height="378pt"
 viewBox="0.00 0.00 1408.39 378.00" xmlns="http://www.w3.org/2000/svg" xmlns:xlink="http://www.w3.org/1999/xlink">
<g id="graph0" class="graph" transform="scale(1 1) rotate(0) translate(4 374)">
<title>ArbiterResolverBehaviors</title>
<polygon fill="white" stroke="none" points="-4,4 -4,-374 1404.39,-374 1404.39,4 -4,4"/>
<!-- Node1 -->
<g id="node1" class="node"><title>Node1</title>
<polygon fill="#bfbfbf" stroke="black" points="1271.01,-218.5 1271.01,-236.5 1400.39,-236.5 1400.39,-218.5 1271.01,-218.5"/>
<text text-anchor="middle" x="1335.7" y="-224.5" font-family="Helvetica,sans-Serif" font-size="10.00">ArbiterResolverBehaviors</text>
</g>
<!-- Node2 -->
<g id="node2" class="node"><title>Node2</title>
<g id="a_node2"><a xlink:href="struct_arbiter_selected_version_list.html" target="_top" xlink:title="Represents a list of selected versions. ">
<polygon fill="white" stroke="black" points="976.823,-199.5 976.823,-217.5 1110.11,-217.5 1110.11,-199.5 976.823,-199.5"/>
<text text-anchor="middle" x="1043.47" y="-205.5" font-family="Helvetica,sans-Serif" font-size="10.00">ArbiterSelectedVersionList</text>
</a>
</g>
</g>
<!-- Node2&#45;&gt;Node1 -->
<g id="edge1" class="edge"><title>Node2&#45;&gt;Node1</title>
<path fill="none" stroke="#9a32cd" stroke-dasharray="5,2" d="M1120.49,-207.001C1160.09,-206.967 1209.26,-208.093 1253.01,-212.5 1266.07,-213.815 1280.16,-216.091 1292.91,-218.478"/>
<polygon fill="#9a32cd" stroke="#9a32cd" points="1120.37,-203.501 1110.38,-207.034 1120.39,-210.501 1120.37,-203.501"/>
<text text-anchor="middle" x="1190.56" y="-214.5" font-family="Helvetica,sans-Serif" font-size="10.00"> createAvailableVersionsList</text>
</g>
<!-- Node3 -->
<g id="node3" class="node"><title>Node3</title>
<g id="a_node3"><a xlink:href="class_arbiter_1_1_base.html" target="_top" xlink:title="Base class for public&#45;facing Arbiter types, such that they automatically get freeing, cloning, equality, and description functionality. ">
<polygon fill="white" stroke="black" points="28.9087,-218.5 28.9087,-236.5 102.711,-236.5 102.711,-218.5 28.9087,-218.5"/>
<text text-anchor="middle" x="65.8101" y="-224.5" font-family="Helvetica,sans-Serif" font-size="10.00">Arbiter::Base</text>
</a>
</g>
</g>
<!-- Node3&#45;&gt;Node2 -->
<g id="edge2" class="edge"><title>Node3&#45;&gt;Node2</title>
<path fill="none" stroke="midnightblue" d="M112.86,-222.017C164.044,-216.405 249.198,-208.5 322.779,-208.5 322.779,-208.5 322.779,-208.5 788.997,-208.5 852.805,-208.5 925.648,-208.5 976.821,-208.5"/>
<polygon fill="midnightblue" stroke="midnightblue" points="112.33,-218.554 102.779,-223.141 113.106,-225.511 112.33,-218.554"/>
</g>
<!-- Node5 -->
<g id="node5" class="node"><title>Node5</title>
<g id="a_node5"><a xlink:href="struct_arbiter_selected_version.html" target="_top" xlink:title="Represents a &quot;selected&quot; version, which is a concrete choice of a real project version. ">
<polygon fill="white" stroke="black" points="508.702,-119.5 508.702,-137.5 626.431,-137.5 626.431,-119.5 508.702,-119.5"/>
<text text-anchor="middle" x="567.566" y="-125.5" font-family="Helvetica,sans-Serif" font-size="10.00">ArbiterSelectedVersion</text>
</a>
</g>
</g>
<!-- Node3&#45;&gt;Node5 -->
<g id="edge5" class="edge"><title>Node3&#45;&gt;Node5</title>
<path fill="none" stroke="midnightblue" d="M90.7992,-212.962C125.788,-192.629 193.531,-156.507 256.57,-141.5 342.509,-121.041 445.561,-121.46 508.531,-124.403"/>
<polygon fill="midnightblue" stroke="midnightblue" points="88.6685,-210.155 81.8302,-218.248 92.2225,-216.186 88.6685,-210.155"/>
</g>
<!-- Node6 -->
<g id="node6" class="node"><title>Node6</title>
<g id="a_node6"><a xlink:href="struct_arbiter_semantic_version.html" target="_top" xlink:title="Represents a semantic version, as defined by semver.org. ">
<polygon fill="white" stroke="black" points="263.531,-62.5 263.531,-80.5 384.028,-80.5 384.028,-62.5 263.531,-62.5"/>
<text text-anchor="middle" x="323.779" y="-68.5" font-family="Helvetica,sans-Serif" font-size="10.00">ArbiterSemanticVersion</text>
</a>
</g>
</g>
<!-- Node3&#45;&gt;Node6 -->
<g id="edge7" class="edge"><title>Node3&#45;&gt;Node6</title>
<path fill="none" stroke="midnightblue" d="M74.7395,-209.099C86.9171,-183.124 112.746,-136.131 149.62,-111.5 168.221,-99.0748 221.303,-87.8924 263.838,-80.5311"/>
<polygon fill="midnightblue" stroke="midnightblue" points="71.5417,-207.676 70.6177,-218.23 77.9219,-210.556 71.5417,-207.676"/>
</g>
<!-- Node10 -->
<g id="node10" class="node"><title>Node10</title>
<g id="a_node10"><a xlink:href="struct_arbiter_dependency_list.html" target="_top" xlink:title="Represents a list of dependencies. ">
<polygon fill="white" stroke="black" points="984.885,-237.5 984.885,-255.5 1102.05,-255.5 1102.05,-237.5 984.885,-237.5"/>
<text text-anchor="middle" x="1043.47" y="-243.5" font-family="Helvetica,sans-Serif" font-size="10.00">ArbiterDependencyList</text>
</a>
</g>
</g>
<!-- Node3&#45;&gt;Node10 -->
<g id="edge12" class="edge"><title>Node3&#45;&gt;Node10</title>
<path fill="none" stroke="midnightblue" d="M112.86,-232.983C164.044,-238.595 249.198,-246.5 322.779,-246.5 322.779,-246.5 322.779,-246.5 788.997,-246.5 856.215,-246.5 933.46,-246.5 984.835,-246.5"/>
<polygon fill="midnightblue" stroke="midnightblue" points="113.106,-229.489 102.779,-231.859 112.33,-236.446 113.106,-229.489"/>
</g>
<!-- Node12 -->
<g id="node12" class="node"><title>Node12</title>
<g id="a_node12"><a xlink:href="struct_arbiter_dependency.html" target="_top" xlink:title="Represents a dependency specification, which consists of a project identifier and a version requireme...">
<polygon fill="white" stroke="black" points="516.764,-275.5 516.764,-293.5 618.369,-293.5 618.369,-275.5 516.764,-275.5"/>
<text text-anchor="middle" x="567.566" y="-281.5" font-family="Helvetica,sans-Serif" font-size="10.00">ArbiterDependency</text>
</a>
</g>
</g>
<!-- Node3&#45;&gt;Node12 -->
<g id="edge15" class="edge"><title>Node3&#45;&gt;Node12</title>
<path fill="none" stroke="midnightblue" d="M85.1768,-243.273C101.15,-256.129 125.464,-273.706 149.62,-283.5 280.095,-336.403 452.989,-309.496 528.529,-293.514"/>
<polygon fill="midnightblue" stroke="midnightblue" points="87.1537,-240.366 77.2151,-236.695 82.6954,-245.763 87.1537,-240.366"/>
</g>
<!-- Node13 -->
<g id="node13" class="node"><title>Node13</title>
<g id="a_node13"><a xlink:href="struct_arbiter_project_identifier.html" target="_top" xlink:title="An opaque value which identifies a project participating in dependency resolution. ">
<polygon fill="white" stroke="black" points="266.314,-275.5 266.314,-293.5 381.245,-293.5 381.245,-275.5 266.314,-275.5"/>
<text text-anchor="middle" x="323.779" y="-281.5" font-family="Helvetica,sans-Serif" font-size="10.00">ArbiterProjectIdentifier</text>
</a>
</g>
</g>
<!-- Node3&#45;&gt;Node13 -->
<g id="edge17" class="edge"><title>Node3&#45;&gt;Node13</title>
<path fill="none" stroke="midnightblue" d="M94.9605,-240.688C110.72,-247.566 130.91,-255.553 149.62,-260.5 187.764,-270.585 231.821,-276.616 265.95,-280.11"/>
<polygon fill="midnightblue" stroke="midnightblue" points="96.3311,-237.467 85.773,-236.586 93.4774,-243.859 96.3311,-237.467"/>
</g>
<!-- Node4 -->
<g id="node4" class="node"><title>Node4</title>
<polygon fill="white" stroke="#bfbfbf" points="718.712,-146.5 718.712,-174.5 857.281,-174.5 857.281,-146.5 718.712,-146.5"/>
<text text-anchor="start" x="726.712" y="-162.5" font-family="Helvetica,sans-Serif" font-size="10.00">std::vector&lt; ArbiterSelected</text>
<text text-anchor="middle" x="787.997" y="-152.5" font-family="Helvetica,sans-Serif" font-size="10.00">Version &gt;</text>
</g>
<!-- Node4&#45;&gt;Node2 -->
<g id="edge3" class="edge"><title>Node4&#45;&gt;Node2</title>
<path fill="none" stroke="#9a32cd" stroke-dasharray="5,2" d="M867.578,-169.289C896.428,-173.123 929.255,-178.201 958.823,-184.5 977.589,-188.498 998.321,-194.436 1014.45,-199.405"/>
<polygon fill="#9a32cd" stroke="#9a32cd" points="867.919,-165.804 857.551,-167.984 867.016,-172.745 867.919,-165.804"/>
<text text-anchor="middle" x="923.516" y="-186.5" font-family="Helvetica,sans-Serif" font-size="10.00"> _versions</text>
</g>
<!-- Node5&#45;&gt;Node4 -->
<g id="edge4" class="edge"><title>Node5&#45;&gt;Node4</title>
<path fill="none" stroke="#9a32cd" stroke-dasharray="5,2" d="M636.709,-138.483C662.803,-142.306 692.559,-146.665 718.67,-150.49"/>
<polygon fill="#9a32cd" stroke="#9a32cd" points="636.93,-134.978 626.528,-136.991 635.915,-141.904 636.93,-134.978"/>
<text text-anchor="middle" x="666.108" y="-147.5" font-family="Helvetica,sans-Serif" font-size="10.00"> elements</text>
</g>
<!-- Node6&#45;&gt;Node5 -->
<g id="edge6" class="edge"><title>Node6&#45;&gt;Node5</title>
<path fill="none" stroke="#9a32cd" stroke-dasharray="5,2" d="M394.148,-79.394C424.157,-83.6777 459.483,-89.8955 490.702,-98.5 510.364,-103.919 531.91,-112.734 547,-119.41"/>
<polygon fill="#9a32cd" stroke="#9a32cd" points="394.574,-75.9197 384.188,-78.0148 393.614,-82.8536 394.574,-75.9197"/>
<text text-anchor="middle" x="449.845" y="-100.5" font-family="Helvetica,sans-Serif" font-size="10.00"> _semanticVersion</text>
</g>
<!-- Node7 -->
<g id="node7" class="node"><title>Node7</title>
<g id="a_node7"><a xlink:href="struct_arbiter_1_1_optional.html" target="_top" xlink:title="Arbiter::Optional\&lt;\l std::string \&gt;">
<polygon fill="white" stroke="black" points="18.7622,-48.5 18.7622,-76.5 112.858,-76.5 112.858,-48.5 18.7622,-48.5"/>
<text text-anchor="start" x="26.7622" y="-64.5" font-family="Helvetica,sans-Serif" font-size="10.00">Arbiter::Optional&lt;</text>
<text text-anchor="middle" x="65.8101" y="-54.5" font-family="Helvetica,sans-Serif" font-size="10.00"> std::string &gt;</text>
</a>
</g>
</g>
<!-- Node7&#45;&gt;Node6 -->
<g id="edge8" class="edge"><title>Node7&#45;&gt;Node6</title>
<path fill="none" stroke="#9a32cd" stroke-dasharray="5,2" d="M123.208,-61.5678C156.743,-61.3277 200.109,-61.5649 238.57,-63.5 246.637,-63.9059 255.125,-64.5066 263.48,-65.1997"/>
<polygon fill="#9a32cd" stroke="#9a32cd" points="123.102,-58.0685 113.133,-61.6562 123.163,-65.0682 123.102,-58.0685"/>
<text text-anchor="middle" x="194.095" y="-75.5" font-family="Helvetica,sans-Serif" font-size="10.00"> _prereleaseVersion</text>
<text text-anchor="middle" x="194.095" y="-65.5" font-family="Helvetica,sans-Serif" font-size="10.00">_buildMetadata</text>
</g>
<!-- Node8 -->
<g id="node8" class="node"><title>Node8</title>
<polygon fill="white" stroke="#bfbfbf" points="37.5146,-0.5 37.5146,-18.5 94.1055,-18.5 94.1055,-0.5 37.5146,-0.5"/>
<text text-anchor="middle" x="65.8101" y="-6.5" font-family="Helvetica,sans-Serif" font-size="10.00">unsigned</text>
</g>
<!-- Node8&#45;&gt;Node6 -->
<g id="edge9" class="edge"><title>Node8&#45;&gt;Node6</title>
<path fill="none" stroke="#9a32cd" stroke-dasharray="5,2" d="M104.523,-9.7855C139.85,-10.9555 193.774,-15.0762 238.57,-28.5 264.83,-36.3691 292.665,-52.2702 308.844,-62.3754"/>
<polygon fill="#9a32cd" stroke="#9a32cd" points="104.276,-6.27779 94.1864,-9.51012 104.09,-13.2753 104.276,-6.27779"/>
<text text-anchor="middle" x="194.095" y="-50.5" font-family="Helvetica,sans-Serif" font-size="10.00"> _minor</text>
<text text-anchor="middle" x="194.095" y="-40.5" font-family="Helvetica,sans-Serif" font-size="10.00">_patch</text>
<text text-anchor="middle" x="194.095" y="-30.5" font-family="Helvetica,sans-Serif" font-size="10.00">_major</text>
</g>
<!-- Node9 -->
<g id="node9" class="node"><title>Node9</title>
<g id="a_node9"><a xlink:href="class_arbiter_1_1_shared_user_value.html" target="_top" xlink:title="Arbiter::SharedUserValue\l\&lt; ArbiterSelectedVersion \&gt;">
<polygon fill="white" stroke="black" points="256.57,-151.5 256.57,-179.5 390.988,-179.5 390.988,-151.5 256.57,-151.5"/>
<text text-anchor="start" x="264.57" y="-167.5" font-family="Helvetica,sans-Serif" font-size="10.00">Arbiter::SharedUserValue</text>
<text text-anchor="middle" x="323.779" y="-157.5" font-family="Helvetica,sans-Serif" font-size="10.00">&lt; ArbiterSelectedVersion &gt;</text>
</a>
</g>
</g>
<!-- Node9&#45;&gt;Node5 -->
<g id="edge10" class="edge"><title>Node9&#45;&gt;Node5</title>
<path fill="none" stroke="#9a32cd" stroke-dasharray="5,2" d="M401.271,-153.795C435.992,-148.482 476.386,-142.3 508.552,-137.378"/>
<polygon fill="#9a32cd" stroke="#9a32cd" points="400.524,-150.368 391.168,-155.341 401.583,-157.288 400.524,-150.368"/>
<text text-anchor="middle" x="449.845" y="-154.5" font-family="Helvetica,sans-Serif" font-size="10.00"> _metadata</text>
</g>
<!-- Node10&#45;&gt;Node1 -->
<g id="edge11" class="edge"><title>Node10&#45;&gt;Node1</title>
<path fill="none" stroke="#9a32cd" stroke-dasharray="5,2" d="M1112.42,-242.052C1160.27,-238.919 1223.9,-234.754 1270.82,-231.682"/>
<polygon fill="#9a32cd" stroke="#9a32cd" points="1111.91,-238.578 1102.16,-242.723 1112.36,-245.563 1111.91,-238.578"/>
<text text-anchor="middle" x="1190.56" y="-243.5" font-family="Helvetica,sans-Serif" font-size="10.00"> createDependencyList</text>
</g>
<!-- Node11 -->
<g id="node11" class="node"><title>Node11</title>
<polygon fill="white" stroke="#bfbfbf" points="705.785,-275.5 705.785,-293.5 870.208,-293.5 870.208,-275.5 705.785,-275.5"/>
<text text-anchor="middle" x="787.997" y="-281.5" font-family="Helvetica,sans-Serif" font-size="10.00">std::vector&lt; ArbiterDependency &gt;</text>
</g>
<!-- Node11&#45;&gt;Node10 -->
<g id="edge13" class="edge"><title>Node11&#45;&gt;Node10</title>
<path fill="none" stroke="#9a32cd" stroke-dasharray="5,2" d="M861.148,-274.009C891.338,-269.586 926.79,-264.347 958.823,-259.5 967.251,-258.225 976.154,-256.86 984.883,-255.512"/>
<polygon fill="#9a32cd" stroke="#9a32cd" points="860.511,-270.565 851.123,-275.476 861.525,-277.491 860.511,-270.565"/>
<text text-anchor="middle" x="923.516" y="-272.5" font-family="Helvetica,sans-Serif" font-size="10.00"> _dependencies</text>
</g>
<!-- Node12&#45;&gt;Node11 -->
<g id="edge14" class="edge"><title>Node12&#45;&gt;Node11</title>
<path fill="none" stroke="#9a32cd" stroke-dasharray="5,2" d="M628.684,-284.5C652.463,-284.5 680.163,-284.5 705.685,-284.5"/>
<polygon fill="#9a32cd" stroke="#9a32cd" points="628.405,-281 618.405,-284.5 628.405,-288 628.405,-281"/>
<text text-anchor="middle" x="666.108" y="-286.5" font-family="Helvetica,sans-Serif" font-size="10.00"> elements</text>
</g>
<!-- Node13&#45;&gt;Node12 -->
<g id="edge16" class="edge"><title>Node13&#45;&gt;Node12</title>
<path fill="none" stroke="#9a32cd" stroke-dasharray="5,2" d="M391.543,-284.5C431.028,-284.5 480.22,-284.5 516.389,-284.5"/>
<polygon fill="#9a32cd" stroke="#9a32cd" points="391.468,-281 381.468,-284.5 391.468,-288 391.468,-281"/>
<text text-anchor="middle" x="449.845" y="-286.5" font-family="Helvetica,sans-Serif" font-size="10.00"> _projectIdentifier</text>
</g>
<!-- Node14 -->
<g id="node14" class="node"><title>Node14</title>
<g id="a_node14"><a xlink:href="class_arbiter_1_1_shared_user_value.html" target="_top" xlink:title="Arbiter::SharedUserValue\l\&lt; ArbiterProjectIdentifier \&gt;">
<polygon fill="white" stroke="black" points="0,-341.5 0,-369.5 131.62,-369.5 131.62,-341.5 0,-341.5"/>
<text text-anchor="start" x="8" y="-357.5" font-family="Helvetica,sans-Serif" font-size="10.00">Arbiter::SharedUserValue</text>
<text text-anchor="middle" x="65.8101" y="-347.5" font-family="Helvetica,sans-Serif" font-size="10.00">&lt; ArbiterProjectIdentifier &gt;</text>
</a>
</g>
</g>
<!-- Node14&#45;&gt;Node13 -->
<g id="edge18" class="edge"><title>Node14&#45;&gt;Node13</title>
<path fill="none" stroke="#9a32cd" stroke-dasharray="5,2" d="M127.294,-338.723C178.265,-324.585 249.245,-304.897 290.166,-293.546"/>
<polygon fill="#9a32cd" stroke="#9a32cd" points="126.082,-335.427 117.381,-341.473 127.953,-342.172 126.082,-335.427"/>
<text text-anchor="middle" x="194.095" y="-333.5" font-family="Helvetica,sans-Serif" font-size="10.00"> _value</text>
</g>
</g>
</svg>
