<?xml version="1.0" encoding="UTF-8" standalone="no"?>
<!DOCTYPE svg PUBLIC "-//W3C//DTD SVG 1.1//EN"
 "http://www.w3.org/Graphics/SVG/1.1/DTD/svg11.dtd">
<!-- Generated by graphviz version 2.38.0 (20140413.2041)
 -->
<!-- Title: ArbiterDependencyListFetch Pages: 1 -->
<svg width="848pt" height="199pt"
 viewBox="0.00 0.00 848.47 199.00" xmlns="http://www.w3.org/2000/svg" xmlns:xlink="http://www.w3.org/1999/xlink">
<g id="graph0" class="graph" transform="scale(1 1) rotate(0) translate(4 195)">
<title>ArbiterDependencyListFetch</title>
<polygon fill="white" stroke="none" points="-4,4 -4,-195 844.467,-195 844.467,4 -4,4"/>
<!-- Node1 -->
<g id="node1" class="node"><title>Node1</title>
<polygon fill="#bfbfbf" stroke="black" points="698.29,-52.5 698.29,-70.5 840.467,-70.5 840.467,-52.5 698.29,-52.5"/>
<text text-anchor="middle" x="769.378" y="-58.5" font-family="Helvetica,sans-Serif" font-size="10.00">ArbiterDependencyListFetch</text>
</g>
<!-- Node2 -->
<g id="node2" class="node"><title>Node2</title>
<g id="a_node2"><a xlink:href="struct_arbiter_selected_version.html" target="_top" xlink:title="Represents a &quot;selected&quot; version, which is a concrete choice of a real project version. ">
<polygon fill="white" stroke="black" points="471.178,-99.5 471.178,-117.5 588.906,-117.5 588.906,-99.5 471.178,-99.5"/>
<text text-anchor="middle" x="530.042" y="-105.5" font-family="Helvetica,sans-Serif" font-size="10.00">ArbiterSelectedVersion</text>
</a>
</g>
</g>
<!-- Node2&#45;&gt;Node1 -->
<g id="edge1" class="edge"><title>Node2&#45;&gt;Node1</title>
<path fill="none" stroke="#9a32cd" stroke-dasharray="5,2" d="M586.45,-97.5275C627.855,-89.328 683.779,-78.2533 722.648,-70.556"/>
<polygon fill="#9a32cd" stroke="#9a32cd" points="585.652,-94.1175 576.522,-99.4935 587.011,-100.984 585.652,-94.1175"/>
<text text-anchor="middle" x="643.598" y="-95.5" font-family="Helvetica,sans-Serif" font-size="10.00"> selectedVersion</text>
</g>
<!-- Node3 -->
<g id="node3" class="node"><title>Node3</title>
<g id="a_node3"><a xlink:href="struct_arbiter_semantic_version.html" target="_top" xlink:title="Represents a semantic version, as defined by semver.org. ">
<polygon fill="white" stroke="black" points="226.006,-141.5 226.006,-159.5 346.503,-159.5 346.503,-141.5 226.006,-141.5"/>
<text text-anchor="middle" x="286.255" y="-147.5" font-family="Helvetica,sans-Serif" font-size="10.00">ArbiterSemanticVersion</text>
</a>
</g>
</g>
<!-- Node3&#45;&gt;Node2 -->
<g id="edge2" class="edge"><title>Node3&#45;&gt;Node2</title>
<path fill="none" stroke="#9a32cd" stroke-dasharray="5,2" d="M352.345,-139.753C382.964,-134.636 419.965,-128.367 453.178,-122.5 462.014,-120.939 471.422,-119.236 480.497,-117.573"/>
<polygon fill="#9a32cd" stroke="#9a32cd" points="351.509,-136.344 342.221,-141.441 352.661,-143.248 351.509,-136.344"/>
<text text-anchor="middle" x="412.321" y="-138.5" font-family="Helvetica,sans-Serif" font-size="10.00"> _semanticVersion</text>
</g>
<!-- Node4 -->
<g id="node4" class="node"><title>Node4</title>
<g id="a_node4"><a xlink:href="struct_arbiter_1_1_optional.html" target="_top" xlink:title="Arbiter::Optional\&lt;\l std::string \&gt;">
<polygon fill="white" stroke="black" points="0,-162.5 0,-190.5 94.0957,-190.5 94.0957,-162.5 0,-162.5"/>
<text text-anchor="start" x="8" y="-178.5" font-family="Helvetica,sans-Serif" font-size="10.00">Arbiter::Optional&lt;</text>
<text text-anchor="middle" x="47.0479" y="-168.5" font-family="Helvetica,sans-Serif" font-size="10.00"> std::string &gt;</text>
</a>
</g>
</g>
<!-- Node4&#45;&gt;Node3 -->
<g id="edge3" class="edge"><title>Node4&#45;&gt;Node3</title>
<path fill="none" stroke="#9a32cd" stroke-dasharray="5,2" d="M104.375,-170.326C141.033,-166.308 188.772,-161.075 226.001,-156.995"/>
<polygon fill="#9a32cd" stroke="#9a32cd" points="103.906,-166.856 94.3469,-171.425 104.669,-173.815 103.906,-166.856"/>
<text text-anchor="middle" x="156.571" y="-180.5" font-family="Helvetica,sans-Serif" font-size="10.00"> _prereleaseVersion</text>
<text text-anchor="middle" x="156.571" y="-170.5" font-family="Helvetica,sans-Serif" font-size="10.00">_buildMetadata</text>
</g>
<!-- Node5 -->
<g id="node5" class="node"><title>Node5</title>
<polygon fill="white" stroke="#bfbfbf" points="18.7524,-114.5 18.7524,-132.5 75.3433,-132.5 75.3433,-114.5 18.7524,-114.5"/>
<text text-anchor="middle" x="47.0479" y="-120.5" font-family="Helvetica,sans-Serif" font-size="10.00">unsigned</text>
</g>
<!-- Node5&#45;&gt;Node3 -->
<g id="edge4" class="edge"><title>Node5&#45;&gt;Node3</title>
<path fill="none" stroke="#9a32cd" stroke-dasharray="5,2" d="M85.4385,-120.303C116.651,-118.51 162.155,-117.941 201.046,-125.5 209.472,-127.138 210.893,-129.815 219.046,-132.5 228.776,-135.705 239.441,-138.788 249.314,-141.469"/>
<polygon fill="#9a32cd" stroke="#9a32cd" points="85.1856,-116.812 75.4314,-120.948 85.6359,-123.798 85.1856,-116.812"/>
<text text-anchor="middle" x="156.571" y="-147.5" font-family="Helvetica,sans-Serif" font-size="10.00"> _minor</text>
<text text-anchor="middle" x="156.571" y="-137.5" font-family="Helvetica,sans-Serif" font-size="10.00">_patch</text>
<text text-anchor="middle" x="156.571" y="-127.5" font-family="Helvetica,sans-Serif" font-size="10.00">_major</text>
</g>
<!-- Node6 -->
<g id="node6" class="node"><title>Node6</title>
<g id="a_node6"><a xlink:href="class_arbiter_1_1_shared_user_value.html" target="_top" xlink:title="Arbiter::SharedUserValue\l\&lt; ArbiterSelectedVersion \&gt;">
<polygon fill="white" stroke="black" points="219.046,-94.5 219.046,-122.5 353.464,-122.5 353.464,-94.5 219.046,-94.5"/>
<text text-anchor="start" x="227.046" y="-110.5" font-family="Helvetica,sans-Serif" font-size="10.00">Arbiter::SharedUserValue</text>
<text text-anchor="middle" x="286.255" y="-100.5" font-family="Helvetica,sans-Serif" font-size="10.00">&lt; ArbiterSelectedVersion &gt;</text>
</a>
</g>
</g>
<!-- Node6&#45;&gt;Node2 -->
<g id="edge5" class="edge"><title>Node6&#45;&gt;Node2</title>
<path fill="none" stroke="#9a32cd" stroke-dasharray="5,2" d="M363.747,-108.5C398.467,-108.5 438.862,-108.5 471.028,-108.5"/>
<polygon fill="#9a32cd" stroke="#9a32cd" points="363.644,-105 353.644,-108.5 363.644,-112 363.644,-105"/>
<text text-anchor="middle" x="412.321" y="-110.5" font-family="Helvetica,sans-Serif" font-size="10.00"> _metadata</text>
</g>
<!-- Node7 -->
<g id="node7" class="node"><title>Node7</title>
<g id="a_node7"><a xlink:href="struct_arbiter_project_identifier.html" target="_top" xlink:title="An opaque value which identifies a project participating in dependency resolution. ">
<polygon fill="white" stroke="black" points="472.577,-52.5 472.577,-70.5 587.507,-70.5 587.507,-52.5 472.577,-52.5"/>
<text text-anchor="middle" x="530.042" y="-58.5" font-family="Helvetica,sans-Serif" font-size="10.00">ArbiterProjectIdentifier</text>
</a>
</g>
</g>
<!-- Node7&#45;&gt;Node1 -->
<g id="edge6" class="edge"><title>Node7&#45;&gt;Node1</title>
<path fill="none" stroke="#9a32cd" stroke-dasharray="5,2" d="M597.961,-61.5C629.27,-61.5 666.556,-61.5 698.257,-61.5"/>
<polygon fill="#9a32cd" stroke="#9a32cd" points="597.588,-58.0001 587.588,-61.5 597.588,-65.0001 597.588,-58.0001"/>
<text text-anchor="middle" x="643.598" y="-63.5" font-family="Helvetica,sans-Serif" font-size="10.00"> project</text>
</g>
<!-- Node8 -->
<g id="node8" class="node"><title>Node8</title>
<g id="a_node8"><a xlink:href="class_arbiter_1_1_shared_user_value.html" target="_top" xlink:title="Arbiter::SharedUserValue\l\&lt; ArbiterProjectIdentifier \&gt;">
<polygon fill="white" stroke="black" points="220.445,-47.5 220.445,-75.5 352.065,-75.5 352.065,-47.5 220.445,-47.5"/>
<text text-anchor="start" x="228.445" y="-63.5" font-family="Helvetica,sans-Serif" font-size="10.00">Arbiter::SharedUserValue</text>
<text text-anchor="middle" x="286.255" y="-53.5" font-family="Helvetica,sans-Serif" font-size="10.00">&lt; ArbiterProjectIdentifier &gt;</text>
</a>
</g>
</g>
<!-- Node8&#45;&gt;Node7 -->
<g id="edge7" class="edge"><title>Node8&#45;&gt;Node7</title>
<path fill="none" stroke="#9a32cd" stroke-dasharray="5,2" d="M362.678,-61.5C398.149,-61.5 439.732,-61.5 472.451,-61.5"/>
<polygon fill="#9a32cd" stroke="#9a32cd" points="362.367,-58.0001 352.367,-61.5 362.367,-65.0001 362.367,-58.0001"/>
<text text-anchor="middle" x="412.321" y="-63.5" font-family="Helvetica,sans-Serif" font-size="10.00"> _value</text>
</g>
<!-- Node9 -->
<g id="node9" class="node"><title>Node9</title>
<g id="a_node9"><a xlink:href="struct_arbiter_resolver.html" target="_top" xlink:title="A dependency resolver which contains context about how to evaluate the dependency graph...">
<polygon fill="white" stroke="black" points="487.586,-10.5 487.586,-28.5 572.498,-28.5 572.498,-10.5 487.586,-10.5"/>
<text text-anchor="middle" x="530.042" y="-16.5" font-family="Helvetica,sans-Serif" font-size="10.00">ArbiterResolver</text>
</a>
</g>
</g>
<!-- Node9&#45;&gt;Node1 -->
<g id="edge8" class="edge"><title>Node9&#45;&gt;Node1</title>
<path fill="none" stroke="#9a32cd" stroke-dasharray="5,2" d="M582.713,-28.6439C622.615,-35.7051 677.548,-45.4263 717.3,-52.461"/>
<polygon fill="#9a32cd" stroke="#9a32cd" points="583.111,-25.1601 572.654,-26.8639 581.892,-32.053 583.111,-25.1601"/>
<text text-anchor="middle" x="643.598" y="-47.5" font-family="Helvetica,sans-Serif" font-size="10.00"> resolver</text>
</g>
<!-- Node10 -->
<g id="node10" class="node"><title>Node10</title>
<g id="a_node10"><a xlink:href="class_arbiter_1_1_shared_user_value.html" target="_top" xlink:title="Arbiter::SharedUserValue\l\&lt; ArbiterResolver \&gt;">
<polygon fill="white" stroke="black" points="221.651,-0.5 221.651,-28.5 350.859,-28.5 350.859,-0.5 221.651,-0.5"/>
<text text-anchor="start" x="229.651" y="-16.5" font-family="Helvetica,sans-Serif" font-size="10.00">Arbiter::SharedUserValue</text>
<text text-anchor="middle" x="286.255" y="-6.5" font-family="Helvetica,sans-Serif" font-size="10.00">&lt; ArbiterResolver &gt;</text>
</a>
</g>
</g>
<!-- Node10&#45;&gt;Node9 -->
<g id="edge9" class="edge"><title>Node10&#45;&gt;Node9</title>
<path fill="none" stroke="#9a32cd" stroke-dasharray="5,2" d="M361.15,-16.0281C402.562,-16.8845 452.688,-17.921 487.329,-18.6374"/>
<polygon fill="#9a32cd" stroke="#9a32cd" points="361.168,-12.5278 351.098,-15.8202 361.023,-19.5263 361.168,-12.5278"/>
<text text-anchor="middle" x="412.321" y="-20.5" font-family="Helvetica,sans-Serif" font-size="10.00"> _context</text>
</g>
</g>
</svg>
