<?xml version="1.0" encoding="UTF-8" standalone="no"?>
<!DOCTYPE svg PUBLIC "-//W3C//DTD SVG 1.1//EN"
 "http://www.w3.org/Graphics/SVG/1.1/DTD/svg11.dtd">
<!-- Generated by graphviz version 2.38.0 (20140413.2041)
 -->
<!-- Title: ArbiterSelectedVersion Pages: 1 -->
<svg width="597pt" height="131pt"
 viewBox="0.00 0.00 596.91 131.00" xmlns="http://www.w3.org/2000/svg" xmlns:xlink="http://www.w3.org/1999/xlink">
<g id="graph0" class="graph" transform="scale(1 1) rotate(0) translate(4 127)">
<title>ArbiterSelectedVersion</title>
<polygon fill="white" stroke="none" points="-4,4 -4,-127 592.906,-127 592.906,4 -4,4"/>
<!-- Node1 -->
<g id="node1" class="node"><title>Node1</title>
<polygon fill="#bfbfbf" stroke="black" points="471.178,-64.5 471.178,-82.5 588.906,-82.5 588.906,-64.5 471.178,-64.5"/>
<text text-anchor="middle" x="530.042" y="-70.5" font-family="Helvetica,sans-Serif" font-size="10.00">ArbiterSelectedVersion</text>
</g>
<!-- Node2 -->
<g id="node2" class="node"><title>Node2</title>
<g id="a_node2"><a xlink:href="class_arbiter_1_1_base.html" target="_top" xlink:title="Base class for public&#45;facing Arbiter types, such that they automatically get freeing, cloning, equality, and description functionality. ">
<polygon fill="white" stroke="black" points="10.1465,-104.5 10.1465,-122.5 83.9492,-122.5 83.9492,-104.5 10.1465,-104.5"/>
<text text-anchor="middle" x="47.0479" y="-110.5" font-family="Helvetica,sans-Serif" font-size="10.00">Arbiter::Base</text>
</a>
</g>
</g>
<!-- Node2&#45;&gt;Node1 -->
<g id="edge1" class="edge"><title>Node2&#45;&gt;Node1</title>
<path fill="none" stroke="midnightblue" d="M94.078,-112.602C169.443,-110.672 323.739,-104.79 453.178,-87.5 463.267,-86.1523 474.052,-84.3709 484.231,-82.5321"/>
<polygon fill="midnightblue" stroke="midnightblue" points="93.8897,-109.106 83.9783,-112.849 94.0608,-116.104 93.8897,-109.106"/>
</g>
<!-- Node3 -->
<g id="node3" class="node"><title>Node3</title>
<g id="a_node3"><a xlink:href="struct_arbiter_semantic_version.html" target="_top" xlink:title="Represents a semantic version, as defined by semver.org. ">
<polygon fill="white" stroke="black" points="226.006,-64.5 226.006,-82.5 346.503,-82.5 346.503,-64.5 226.006,-64.5"/>
<text text-anchor="middle" x="286.255" y="-70.5" font-family="Helvetica,sans-Serif" font-size="10.00">ArbiterSemanticVersion</text>
</a>
</g>
</g>
<!-- Node2&#45;&gt;Node3 -->
<g id="edge3" class="edge"><title>Node2&#45;&gt;Node3</title>
<path fill="none" stroke="midnightblue" d="M93.9482,-105.76C133.358,-99.1142 190.204,-89.5283 231.686,-82.5333"/>
<polygon fill="midnightblue" stroke="midnightblue" points="93.3533,-102.311 84.0745,-107.425 94.5173,-109.213 93.3533,-102.311"/>
</g>
<!-- Node3&#45;&gt;Node1 -->
<g id="edge2" class="edge"><title>Node3&#45;&gt;Node1</title>
<path fill="none" stroke="#9a32cd" stroke-dasharray="5,2" d="M357.175,-73.5C393.294,-73.5 436.844,-73.5 471.067,-73.5"/>
<polygon fill="#9a32cd" stroke="#9a32cd" points="356.712,-70.0001 346.712,-73.5 356.712,-77.0001 356.712,-70.0001"/>
<text text-anchor="middle" x="412.321" y="-75.5" font-family="Helvetica,sans-Serif" font-size="10.00"> _semanticVersion</text>
</g>
<!-- Node4 -->
<g id="node4" class="node"><title>Node4</title>
<g id="a_node4"><a xlink:href="struct_arbiter_1_1_optional.html" target="_top" xlink:title="Arbiter::Optional\&lt;\l std::string \&gt;">
<polygon fill="white" stroke="black" points="0,-48.5 0,-76.5 94.0957,-76.5 94.0957,-48.5 0,-48.5"/>
<text text-anchor="start" x="8" y="-64.5" font-family="Helvetica,sans-Serif" font-size="10.00">Arbiter::Optional&lt;</text>
<text text-anchor="middle" x="47.0479" y="-54.5" font-family="Helvetica,sans-Serif" font-size="10.00"> std::string &gt;</text>
</a>
</g>
</g>
<!-- Node4&#45;&gt;Node3 -->
<g id="edge4" class="edge"><title>Node4&#45;&gt;Node3</title>
<path fill="none" stroke="#9a32cd" stroke-dasharray="5,2" d="M104.605,-61.3659C133.487,-61.1681 169.17,-61.5094 201.046,-63.5 209.127,-64.0047 217.623,-64.7541 225.983,-65.6198"/>
<polygon fill="#9a32cd" stroke="#9a32cd" points="104.258,-57.8688 94.291,-61.4611 104.323,-64.8685 104.258,-57.8688"/>
<text text-anchor="middle" x="156.571" y="-75.5" font-family="Helvetica,sans-Serif" font-size="10.00"> _prereleaseVersion</text>
<text text-anchor="middle" x="156.571" y="-65.5" font-family="Helvetica,sans-Serif" font-size="10.00">_buildMetadata</text>
</g>
<!-- Node5 -->
<g id="node5" class="node"><title>Node5</title>
<polygon fill="white" stroke="#bfbfbf" points="18.7524,-0.5 18.7524,-18.5 75.3433,-18.5 75.3433,-0.5 18.7524,-0.5"/>
<text text-anchor="middle" x="47.0479" y="-6.5" font-family="Helvetica,sans-Serif" font-size="10.00">unsigned</text>
</g>
<!-- Node5&#45;&gt;Node3 -->
<g id="edge5" class="edge"><title>Node5&#45;&gt;Node3</title>
<path fill="none" stroke="#9a32cd" stroke-dasharray="5,2" d="M85.5116,-5.50874C118.356,-3.86232 166.171,-6.12048 201.046,-27.5 213.342,-35.0377 207.402,-45.9901 219.046,-54.5 224.742,-58.6632 231.33,-61.9166 238.095,-64.4584"/>
<polygon fill="#9a32cd" stroke="#9a32cd" points="85.1628,-2.02388 75.4092,-6.16121 85.614,-9.00933 85.1628,-2.02388"/>
<text text-anchor="middle" x="156.571" y="-50.5" font-family="Helvetica,sans-Serif" font-size="10.00"> _minor</text>
<text text-anchor="middle" x="156.571" y="-40.5" font-family="Helvetica,sans-Serif" font-size="10.00">_patch</text>
<text text-anchor="middle" x="156.571" y="-30.5" font-family="Helvetica,sans-Serif" font-size="10.00">_major</text>
</g>
<!-- Node6 -->
<g id="node6" class="node"><title>Node6</title>
<g id="a_node6"><a xlink:href="class_arbiter_1_1_shared_user_value.html" target="_top" xlink:title="Arbiter::SharedUserValue\l\&lt; ArbiterSelectedVersion \&gt;">
<polygon fill="white" stroke="black" points="219.046,-17.5 219.046,-45.5 353.464,-45.5 353.464,-17.5 219.046,-17.5"/>
<text text-anchor="start" x="227.046" y="-33.5" font-family="Helvetica,sans-Serif" font-size="10.00">Arbiter::SharedUserValue</text>
<text text-anchor="middle" x="286.255" y="-23.5" font-family="Helvetica,sans-Serif" font-size="10.00">&lt; ArbiterSelectedVersion &gt;</text>
</a>
</g>
</g>
<!-- Node6&#45;&gt;Node1 -->
<g id="edge6" class="edge"><title>Node6&#45;&gt;Node1</title>
<path fill="none" stroke="#9a32cd" stroke-dasharray="5,2" d="M363.68,-44.1454C391.83,-48.8695 423.969,-54.3407 453.178,-59.5 462.014,-61.0609 471.422,-62.7637 480.497,-64.4272"/>
<polygon fill="#9a32cd" stroke="#9a32cd" points="363.942,-40.6407 353.501,-42.4407 362.786,-47.5446 363.942,-40.6407"/>
<text text-anchor="middle" x="412.321" y="-61.5" font-family="Helvetica,sans-Serif" font-size="10.00"> _metadata</text>
</g>
</g>
</svg>
