<?xml version="1.0" encoding="UTF-8" standalone="no"?>
<!DOCTYPE svg PUBLIC "-//W3C//DTD SVG 1.1//EN"
 "http://www.w3.org/Graphics/SVG/1.1/DTD/svg11.dtd">
<!-- Generated by graphviz version 2.38.0 (20140413.2041)
 -->
<!-- Title: ArbiterDependency Pages: 1 -->
<svg width="232pt" height="167pt"
 viewBox="0.00 0.00 231.71 167.00" xmlns="http://www.w3.org/2000/svg" xmlns:xlink="http://www.w3.org/1999/xlink">
<g id="graph0" class="graph" transform="scale(1 1) rotate(0) translate(4 163)">
<title>ArbiterDependency</title>
<polygon fill="white" stroke="none" points="-4,4 -4,-163 227.711,-163 227.711,4 -4,4"/>
<!-- Node1 -->
<g id="node1" class="node"><title>Node1</title>
<polygon fill="#bfbfbf" stroke="black" points="15.0986,-0.5 15.0986,-18.5 116.704,-18.5 116.704,-0.5 15.0986,-0.5"/>
<text text-anchor="middle" x="65.9014" y="-6.5" font-family="Helvetica,sans-Serif" font-size="10.00">ArbiterDependency</text>
</g>
<!-- Node2 -->
<g id="node2" class="node"><title>Node2</title>
<g id="a_node2"><a xlink:href="class_arbiter_1_1_base.html" target="_top" xlink:title="Base class for public&#45;facing Arbiter types, such that they automatically get freeing, cloning, equality, and description functionality. ">
<polygon fill="white" stroke="black" points="0,-135.5 0,-153.5 73.8027,-153.5 73.8027,-135.5 0,-135.5"/>
<text text-anchor="middle" x="36.9014" y="-141.5" font-family="Helvetica,sans-Serif" font-size="10.00">Arbiter::Base</text>
</a>
</g>
</g>
<!-- Node2&#45;&gt;Node1 -->
<g id="edge1" class="edge"><title>Node2&#45;&gt;Node1</title>
<path fill="none" stroke="midnightblue" d="M40.9167,-125.085C47.2952,-95.8318 59.491,-39.8991 64.088,-18.8166"/>
<polygon fill="midnightblue" stroke="midnightblue" points="37.4263,-124.664 38.7154,-135.18 44.2656,-126.155 37.4263,-124.664"/>
</g>
<!-- Node3 -->
<g id="node3" class="node"><title>Node3</title>
<g id="a_node3"><a xlink:href="struct_arbiter_project_identifier.html" target="_top" xlink:title="An opaque value which identifies a project participating in dependency resolution. ">
<polygon fill="white" stroke="black" points="64.436,-65.5 64.436,-83.5 179.367,-83.5 179.367,-65.5 64.436,-65.5"/>
<text text-anchor="middle" x="121.901" y="-71.5" font-family="Helvetica,sans-Serif" font-size="10.00">ArbiterProjectIdentifier</text>
</a>
</g>
</g>
<!-- Node2&#45;&gt;Node3 -->
<g id="edge3" class="edge"><title>Node2&#45;&gt;Node3</title>
<path fill="none" stroke="midnightblue" d="M55.2102,-128.853C72.537,-114.991 97.9066,-94.6958 111.83,-83.557"/>
<polygon fill="midnightblue" stroke="midnightblue" points="52.608,-126.452 46.9858,-135.432 56.9809,-131.919 52.608,-126.452"/>
</g>
<!-- Node3&#45;&gt;Node1 -->
<g id="edge2" class="edge"><title>Node3&#45;&gt;Node1</title>
<path fill="none" stroke="#9a32cd" stroke-dasharray="5,2" d="M107.656,-57.4742C96.5986,-45.0344 81.7331,-28.3107 73.0471,-18.539"/>
<polygon fill="#9a32cd" stroke="#9a32cd" points="105.321,-60.115 114.58,-65.2639 110.553,-55.4644 105.321,-60.115"/>
<text text-anchor="middle" x="136.256" y="-39" font-family="Helvetica,sans-Serif" font-size="10.00"> _projectIdentifier</text>
</g>
<!-- Node4 -->
<g id="node4" class="node"><title>Node4</title>
<g id="a_node4"><a xlink:href="class_arbiter_1_1_shared_user_value.html" target="_top" xlink:title="Arbiter::SharedUserValue\l\&lt; ArbiterProjectIdentifier \&gt;">
<polygon fill="white" stroke="black" points="92.0913,-130.5 92.0913,-158.5 223.711,-158.5 223.711,-130.5 92.0913,-130.5"/>
<text text-anchor="start" x="100.091" y="-146.5" font-family="Helvetica,sans-Serif" font-size="10.00">Arbiter::SharedUserValue</text>
<text text-anchor="middle" x="157.901" y="-136.5" font-family="Helvetica,sans-Serif" font-size="10.00">&lt; ArbiterProjectIdentifier &gt;</text>
</a>
</g>
</g>
<!-- Node4&#45;&gt;Node3 -->
<g id="edge4" class="edge"><title>Node4&#45;&gt;Node3</title>
<path fill="none" stroke="#9a32cd" stroke-dasharray="5,2" d="M146.116,-121.239C139.342,-108.443 131.229,-93.1186 126.325,-83.8552"/>
<polygon fill="#9a32cd" stroke="#9a32cd" points="143.188,-123.189 150.96,-130.389 149.375,-119.913 143.188,-123.189"/>
<text text-anchor="middle" x="158.024" y="-104" font-family="Helvetica,sans-Serif" font-size="10.00"> _value</text>
</g>
</g>
</svg>
