<?xml version="1.0" encoding="UTF-8" standalone="no"?>
<!DOCTYPE svg PUBLIC "-//W3C//DTD SVG 1.1//EN"
 "http://www.w3.org/Graphics/SVG/1.1/DTD/svg11.dtd">
<!-- Generated by graphviz version 2.38.0 (20140413.2041)
 -->
<!-- Title: ArbiterResolvedDependency Pages: 1 -->
<svg width="817pt" height="152pt"
 viewBox="0.00 0.00 816.78 152.00" xmlns="http://www.w3.org/2000/svg" xmlns:xlink="http://www.w3.org/1999/xlink">
<g id="graph0" class="graph" transform="scale(1 1) rotate(0) translate(4 148)">
<title>ArbiterResolvedDependency</title>
<polygon fill="white" stroke="none" points="-4,4 -4,-148 812.777,-148 812.777,4 -4,4"/>
<!-- Node1 -->
<g id="node1" class="node"><title>Node1</title>
<polygon fill="#bfbfbf" stroke="black" points="665.482,-31.5 665.482,-49.5 808.777,-49.5 808.777,-31.5 665.482,-31.5"/>
<text text-anchor="middle" x="737.13" y="-37.5" font-family="Helvetica,sans-Serif" font-size="10.00">ArbiterResolvedDependency</text>
</g>
<!-- Node2 -->
<g id="node2" class="node"><title>Node2</title>
<g id="a_node2"><a xlink:href="struct_arbiter_selected_version.html" target="_top" xlink:title="Represents a &quot;selected&quot; version, which is a concrete choice of a real project version. ">
<polygon fill="white" stroke="black" points="471.178,-52.5 471.178,-70.5 588.906,-70.5 588.906,-52.5 471.178,-52.5"/>
<text text-anchor="middle" x="530.042" y="-58.5" font-family="Helvetica,sans-Serif" font-size="10.00">ArbiterSelectedVersion</text>
</a>
</g>
</g>
<!-- Node2&#45;&gt;Node1 -->
<g id="edge1" class="edge"><title>Node2&#45;&gt;Node1</title>
<path fill="none" stroke="#9a32cd" stroke-dasharray="5,2" d="M599.199,-54.521C620.397,-52.3504 643.813,-49.9528 665.196,-47.7633"/>
<polygon fill="#9a32cd" stroke="#9a32cd" points="598.581,-51.0659 588.99,-55.5664 599.294,-58.0295 598.581,-51.0659"/>
<text text-anchor="middle" x="627.194" y="-54.5" font-family="Helvetica,sans-Serif" font-size="10.00"> _version</text>
</g>
<!-- Node3 -->
<g id="node3" class="node"><title>Node3</title>
<g id="a_node3"><a xlink:href="struct_arbiter_semantic_version.html" target="_top" xlink:title="Represents a semantic version, as defined by semver.org. ">
<polygon fill="white" stroke="black" points="226.006,-94.5 226.006,-112.5 346.503,-112.5 346.503,-94.5 226.006,-94.5"/>
<text text-anchor="middle" x="286.255" y="-100.5" font-family="Helvetica,sans-Serif" font-size="10.00">ArbiterSemanticVersion</text>
</a>
</g>
</g>
<!-- Node3&#45;&gt;Node2 -->
<g id="edge2" class="edge"><title>Node3&#45;&gt;Node2</title>
<path fill="none" stroke="#9a32cd" stroke-dasharray="5,2" d="M352.345,-92.7525C382.964,-87.6363 419.965,-81.3665 453.178,-75.5 462.014,-73.9391 471.422,-72.2363 480.497,-70.5728"/>
<polygon fill="#9a32cd" stroke="#9a32cd" points="351.509,-89.3436 342.221,-94.4411 352.661,-96.2482 351.509,-89.3436"/>
<text text-anchor="middle" x="412.321" y="-91.5" font-family="Helvetica,sans-Serif" font-size="10.00"> _semanticVersion</text>
</g>
<!-- Node4 -->
<g id="node4" class="node"><title>Node4</title>
<g id="a_node4"><a xlink:href="struct_arbiter_1_1_optional.html" target="_top" xlink:title="Arbiter::Optional\&lt;\l std::string \&gt;">
<polygon fill="white" stroke="black" points="0,-115.5 0,-143.5 94.0957,-143.5 94.0957,-115.5 0,-115.5"/>
<text text-anchor="start" x="8" y="-131.5" font-family="Helvetica,sans-Serif" font-size="10.00">Arbiter::Optional&lt;</text>
<text text-anchor="middle" x="47.0479" y="-121.5" font-family="Helvetica,sans-Serif" font-size="10.00"> std::string &gt;</text>
</a>
</g>
</g>
<!-- Node4&#45;&gt;Node3 -->
<g id="edge3" class="edge"><title>Node4&#45;&gt;Node3</title>
<path fill="none" stroke="#9a32cd" stroke-dasharray="5,2" d="M104.375,-123.326C141.033,-119.308 188.772,-114.075 226.001,-109.995"/>
<polygon fill="#9a32cd" stroke="#9a32cd" points="103.906,-119.856 94.3469,-124.425 104.669,-126.815 103.906,-119.856"/>
<text text-anchor="middle" x="156.571" y="-133.5" font-family="Helvetica,sans-Serif" font-size="10.00"> _prereleaseVersion</text>
<text text-anchor="middle" x="156.571" y="-123.5" font-family="Helvetica,sans-Serif" font-size="10.00">_buildMetadata</text>
</g>
<!-- Node5 -->
<g id="node5" class="node"><title>Node5</title>
<polygon fill="white" stroke="#bfbfbf" points="18.7524,-67.5 18.7524,-85.5 75.3433,-85.5 75.3433,-67.5 18.7524,-67.5"/>
<text text-anchor="middle" x="47.0479" y="-73.5" font-family="Helvetica,sans-Serif" font-size="10.00">unsigned</text>
</g>
<!-- Node5&#45;&gt;Node3 -->
<g id="edge4" class="edge"><title>Node5&#45;&gt;Node3</title>
<path fill="none" stroke="#9a32cd" stroke-dasharray="5,2" d="M85.4385,-73.3031C116.651,-71.5104 162.155,-70.9407 201.046,-78.5 209.472,-80.1378 210.893,-82.8148 219.046,-85.5 228.776,-88.7047 239.441,-91.7876 249.314,-94.4689"/>
<polygon fill="#9a32cd" stroke="#9a32cd" points="85.1856,-69.8121 75.4314,-73.948 85.6359,-76.7976 85.1856,-69.8121"/>
<text text-anchor="middle" x="156.571" y="-100.5" font-family="Helvetica,sans-Serif" font-size="10.00"> _minor</text>
<text text-anchor="middle" x="156.571" y="-90.5" font-family="Helvetica,sans-Serif" font-size="10.00">_patch</text>
<text text-anchor="middle" x="156.571" y="-80.5" font-family="Helvetica,sans-Serif" font-size="10.00">_major</text>
</g>
<!-- Node6 -->
<g id="node6" class="node"><title>Node6</title>
<g id="a_node6"><a xlink:href="class_arbiter_1_1_shared_user_value.html" target="_top" xlink:title="Arbiter::SharedUserValue\l\&lt; ArbiterSelectedVersion \&gt;">
<polygon fill="white" stroke="black" points="219.046,-47.5 219.046,-75.5 353.464,-75.5 353.464,-47.5 219.046,-47.5"/>
<text text-anchor="start" x="227.046" y="-63.5" font-family="Helvetica,sans-Serif" font-size="10.00">Arbiter::SharedUserValue</text>
<text text-anchor="middle" x="286.255" y="-53.5" font-family="Helvetica,sans-Serif" font-size="10.00">&lt; ArbiterSelectedVersion &gt;</text>
</a>
</g>
</g>
<!-- Node6&#45;&gt;Node2 -->
<g id="edge5" class="edge"><title>Node6&#45;&gt;Node2</title>
<path fill="none" stroke="#9a32cd" stroke-dasharray="5,2" d="M363.747,-61.5C398.467,-61.5 438.862,-61.5 471.028,-61.5"/>
<polygon fill="#9a32cd" stroke="#9a32cd" points="363.644,-58.0001 353.644,-61.5 363.644,-65.0001 363.644,-58.0001"/>
<text text-anchor="middle" x="412.321" y="-63.5" font-family="Helvetica,sans-Serif" font-size="10.00"> _metadata</text>
</g>
<!-- Node7 -->
<g id="node7" class="node"><title>Node7</title>
<g id="a_node7"><a xlink:href="struct_arbiter_project_identifier.html" target="_top" xlink:title="An opaque value which identifies a project participating in dependency resolution. ">
<polygon fill="white" stroke="black" points="472.577,-10.5 472.577,-28.5 587.507,-28.5 587.507,-10.5 472.577,-10.5"/>
<text text-anchor="middle" x="530.042" y="-16.5" font-family="Helvetica,sans-Serif" font-size="10.00">ArbiterProjectIdentifier</text>
</a>
</g>
</g>
<!-- Node7&#45;&gt;Node1 -->
<g id="edge6" class="edge"><title>Node7&#45;&gt;Node1</title>
<path fill="none" stroke="#9a32cd" stroke-dasharray="5,2" d="M597.718,-26.3273C619.386,-28.546 643.498,-31.015 665.448,-33.2625"/>
<polygon fill="#9a32cd" stroke="#9a32cd" points="597.931,-22.8309 587.626,-25.2939 597.217,-29.7944 597.931,-22.8309"/>
<text text-anchor="middle" x="627.194" y="-33.5" font-family="Helvetica,sans-Serif" font-size="10.00"> _project</text>
</g>
<!-- Node8 -->
<g id="node8" class="node"><title>Node8</title>
<g id="a_node8"><a xlink:href="class_arbiter_1_1_shared_user_value.html" target="_top" xlink:title="Arbiter::SharedUserValue\l\&lt; ArbiterProjectIdentifier \&gt;">
<polygon fill="white" stroke="black" points="220.445,-0.5 220.445,-28.5 352.065,-28.5 352.065,-0.5 220.445,-0.5"/>
<text text-anchor="start" x="228.445" y="-16.5" font-family="Helvetica,sans-Serif" font-size="10.00">Arbiter::SharedUserValue</text>
<text text-anchor="middle" x="286.255" y="-6.5" font-family="Helvetica,sans-Serif" font-size="10.00">&lt; ArbiterProjectIdentifier &gt;</text>
</a>
</g>
</g>
<!-- Node8&#45;&gt;Node7 -->
<g id="edge7" class="edge"><title>Node8&#45;&gt;Node7</title>
<path fill="none" stroke="#9a32cd" stroke-dasharray="5,2" d="M362.678,-16.0597C398.149,-16.7932 439.732,-17.6531 472.451,-18.3297"/>
<polygon fill="#9a32cd" stroke="#9a32cd" points="362.438,-12.5541 352.367,-15.8465 362.293,-19.5526 362.438,-12.5541"/>
<text text-anchor="middle" x="412.321" y="-20.5" font-family="Helvetica,sans-Serif" font-size="10.00"> _value</text>
</g>
</g>
</svg>
