<?xml version="1.0" encoding="UTF-8" standalone="no"?>
<!DOCTYPE svg PUBLIC "-//W3C//DTD SVG 1.1//EN"
 "http://www.w3.org/Graphics/SVG/1.1/DTD/svg11.dtd">
<!-- Generated by graphviz version 2.38.0 (20140413.2041)
 -->
<!-- Title: ArbiterSelectedVersion Pages: 1 -->
<svg width="378pt" height="121pt"
 viewBox="0.00 0.00 377.86 121.00" xmlns="http://www.w3.org/2000/svg" xmlns:xlink="http://www.w3.org/1999/xlink">
<g id="graph0" class="graph" transform="scale(1 1) rotate(0) translate(4 117)">
<title>ArbiterSelectedVersion</title>
<polygon fill="white" stroke="none" points="-4,4 -4,-117 373.86,-117 373.86,4 -4,4"/>
<!-- Node0 -->
<g id="node1" class="node"><title>Node0</title>
<polygon fill="#bfbfbf" stroke="black" points="252.132,-52.5 252.132,-70.5 369.86,-70.5 369.86,-52.5 252.132,-52.5"/>
<text text-anchor="middle" x="310.996" y="-58.5" font-family="Helvetica,sans-Serif" font-size="10.00">ArbiterSelectedVersion</text>
</g>
<!-- Node1 -->
<g id="node2" class="node"><title>Node1</title>
<g id="a_node2"><a xlink:href="class_arbiter_1_1_base.html" target="_top" xlink:title="Base class for public&#45;facing Arbiter types, such that they automatically get freeing, cloning, equality, and description functionality. ">
<polygon fill="white" stroke="black" points="30.3076,-94.5 30.3076,-112.5 104.11,-112.5 104.11,-94.5 30.3076,-94.5"/>
<text text-anchor="middle" x="67.209" y="-100.5" font-family="Helvetica,sans-Serif" font-size="10.00">Arbiter::Base</text>
</a>
</g>
</g>
<!-- Node1&#45;&gt;Node0 -->
<g id="edge1" class="edge"><title>Node1&#45;&gt;Node0</title>
<path fill="none" stroke="midnightblue" d="M114.074,-95.9538C147.405,-90.4227 193.591,-82.6609 234.132,-75.5 242.969,-73.9391 252.376,-72.2363 261.451,-70.5728"/>
<polygon fill="midnightblue" stroke="midnightblue" points="113.457,-92.5083 104.163,-97.5957 114.601,-99.4142 113.457,-92.5083"/>
</g>
<!-- Node2 -->
<g id="node3" class="node"><title>Node2</title>
<g id="a_node3"><a xlink:href="struct_arbiter_1_1_optional.html" target="_top" xlink:title="Arbiter::Optional\&lt;\l ArbiterSemanticVersion \&gt;">
<polygon fill="white" stroke="black" points="1.53564,-47.5 1.53564,-75.5 132.882,-75.5 132.882,-47.5 1.53564,-47.5"/>
<text text-anchor="start" x="9.53564" y="-63.5" font-family="Helvetica,sans-Serif" font-size="10.00">Arbiter::Optional&lt;</text>
<text text-anchor="middle" x="67.209" y="-53.5" font-family="Helvetica,sans-Serif" font-size="10.00"> ArbiterSemanticVersion &gt;</text>
</a>
</g>
</g>
<!-- Node2&#45;&gt;Node0 -->
<g id="edge2" class="edge"><title>Node2&#45;&gt;Node0</title>
<path fill="none" stroke="#9a32cd" stroke-dasharray="5,2" d="M143.2,-61.5C178.275,-61.5 219.405,-61.5 252.046,-61.5"/>
<polygon fill="#9a32cd" stroke="#9a32cd" points="143.004,-58.0001 133.003,-61.5 143.003,-65.0001 143.004,-58.0001"/>
<text text-anchor="middle" x="193.275" y="-63.5" font-family="Helvetica,sans-Serif" font-size="10.00"> _semanticVersion</text>
</g>
<!-- Node3 -->
<g id="node4" class="node"><title>Node3</title>
<g id="a_node4"><a xlink:href="class_arbiter_1_1_shared_user_value.html" target="_top" xlink:title="Arbiter::SharedUserValue\l\&lt; ArbiterSelectedVersion \&gt;">
<polygon fill="white" stroke="black" points="0,-0.5 0,-28.5 134.418,-28.5 134.418,-0.5 0,-0.5"/>
<text text-anchor="start" x="8" y="-16.5" font-family="Helvetica,sans-Serif" font-size="10.00">Arbiter::SharedUserValue</text>
<text text-anchor="middle" x="67.209" y="-6.5" font-family="Helvetica,sans-Serif" font-size="10.00">&lt; ArbiterSelectedVersion &gt;</text>
</a>
</g>
</g>
<!-- Node3&#45;&gt;Node0 -->
<g id="edge3" class="edge"><title>Node3&#45;&gt;Node0</title>
<path fill="none" stroke="#9a32cd" stroke-dasharray="5,2" d="M144.878,-29.4033C183.912,-36.9911 230.081,-45.9657 263.66,-52.493"/>
<polygon fill="#9a32cd" stroke="#9a32cd" points="145.082,-25.8777 134.598,-27.4051 143.747,-32.749 145.082,-25.8777"/>
<text text-anchor="middle" x="193.275" y="-47.5" font-family="Helvetica,sans-Serif" font-size="10.00"> _metadata</text>
</g>
</g>
</svg>
