<?xml version="1.0" encoding="UTF-8" standalone="no"?>
<!DOCTYPE svg PUBLIC "-//W3C//DTD SVG 1.1//EN"
 "http://www.w3.org/Graphics/SVG/1.1/DTD/svg11.dtd">
<!-- Generated by graphviz version 2.38.0 (20140413.2041)
 -->
<!-- Title: ArbiterUserValue Pages: 1 -->
<svg width="317pt" height="168pt"
 viewBox="0.00 0.00 317.03 168.00" xmlns="http://www.w3.org/2000/svg" xmlns:xlink="http://www.w3.org/1999/xlink">
<g id="graph0" class="graph" transform="scale(1 1) rotate(0) translate(4 164)">
<title>ArbiterUserValue</title>
<polygon fill="white" stroke="none" points="-4,4 -4,-164 313.025,-164 313.025,4 -4,4"/>
<!-- Node1 -->
<g id="node1" class="node"><title>Node1</title>
<polygon fill="#bfbfbf" stroke="black" points="217.62,-70.5 217.62,-88.5 309.025,-88.5 309.025,-70.5 217.62,-70.5"/>
<text text-anchor="middle" x="263.323" y="-76.5" font-family="Helvetica,sans-Serif" font-size="10.00">ArbiterUserValue</text>
</g>
<!-- Node2 -->
<g id="node2" class="node"><title>Node2</title>
<polygon fill="white" stroke="#bfbfbf" points="0,-131.5 0,-159.5 101.029,-159.5 101.029,-131.5 0,-131.5"/>
<text text-anchor="start" x="8" y="-147.5" font-family="Helvetica,sans-Serif" font-size="10.00">char *(*)(const void</text>
<text text-anchor="middle" x="50.5146" y="-137.5" font-family="Helvetica,sans-Serif" font-size="10.00"> *data)</text>
</g>
<!-- Node2&#45;&gt;Node1 -->
<g id="edge1" class="edge"><title>Node2&#45;&gt;Node1</title>
<path fill="none" stroke="#9a32cd" stroke-dasharray="5,2" d="M111.12,-133.977C138.473,-127.938 171.094,-119.666 199.62,-109.5 215.762,-103.747 233.289,-95.1462 245.697,-88.6266"/>
<polygon fill="#9a32cd" stroke="#9a32cd" points="110.333,-130.566 101.299,-136.1 111.812,-137.408 110.333,-130.566"/>
<text text-anchor="middle" x="159.325" y="-133.5" font-family="Helvetica,sans-Serif" font-size="10.00"> createDescription</text>
</g>
<!-- Node3 -->
<g id="node3" class="node"><title>Node3</title>
<polygon fill="white" stroke="#bfbfbf" points="2.49756,-94.5 2.49756,-112.5 98.5317,-112.5 98.5317,-94.5 2.49756,-94.5"/>
<text text-anchor="middle" x="50.5146" y="-100.5" font-family="Helvetica,sans-Serif" font-size="10.00">void(*)(void *data)</text>
</g>
<!-- Node3&#45;&gt;Node1 -->
<g id="edge2" class="edge"><title>Node3&#45;&gt;Node1</title>
<path fill="none" stroke="#9a32cd" stroke-dasharray="5,2" d="M108.881,-96.969C143.09,-93.0744 185.887,-88.2021 217.585,-84.5933"/>
<polygon fill="#9a32cd" stroke="#9a32cd" points="108.102,-93.535 98.5617,-98.1438 108.893,-100.49 108.102,-93.535"/>
<text text-anchor="middle" x="159.325" y="-97.5" font-family="Helvetica,sans-Serif" font-size="10.00"> destructor</text>
</g>
<!-- Node4 -->
<g id="node4" class="node"><title>Node4</title>
<polygon fill="white" stroke="#bfbfbf" points="3.6084,-37.5 3.6084,-75.5 97.4209,-75.5 97.4209,-37.5 3.6084,-37.5"/>
<text text-anchor="start" x="11.6084" y="-63.5" font-family="Helvetica,sans-Serif" font-size="10.00">bool(*)(const void</text>
<text text-anchor="start" x="11.6084" y="-53.5" font-family="Helvetica,sans-Serif" font-size="10.00"> *first, const void</text>
<text text-anchor="middle" x="50.5146" y="-43.5" font-family="Helvetica,sans-Serif" font-size="10.00"> *second)</text>
</g>
<!-- Node4&#45;&gt;Node1 -->
<g id="edge3" class="edge"><title>Node4&#45;&gt;Node1</title>
<path fill="none" stroke="#9a32cd" stroke-dasharray="5,2" d="M107.821,-55.162C135.608,-55.3224 169.538,-56.7487 199.62,-61.5 211.814,-63.4259 224.991,-66.975 236.104,-70.4159"/>
<polygon fill="#9a32cd" stroke="#9a32cd" points="107.494,-51.6619 97.4929,-55.1582 107.492,-58.6619 107.494,-51.6619"/>
<text text-anchor="middle" x="159.325" y="-73.5" font-family="Helvetica,sans-Serif" font-size="10.00"> lessThan</text>
<text text-anchor="middle" x="159.325" y="-63.5" font-family="Helvetica,sans-Serif" font-size="10.00">equalTo</text>
</g>
<!-- Node5 -->
<g id="node5" class="node"><title>Node5</title>
<polygon fill="white" stroke="#bfbfbf" points="30.0073,-0.5 30.0073,-18.5 71.022,-18.5 71.022,-0.5 30.0073,-0.5"/>
<text text-anchor="middle" x="50.5146" y="-6.5" font-family="Helvetica,sans-Serif" font-size="10.00">void *</text>
</g>
<!-- Node5&#45;&gt;Node1 -->
<g id="edge4" class="edge"><title>Node5&#45;&gt;Node1</title>
<path fill="none" stroke="#9a32cd" stroke-dasharray="5,2" d="M81.3375,-12.634C111.896,-16.5536 160.36,-24.7564 199.62,-40.5 218.658,-48.1344 238.392,-61.4602 250.515,-70.3809"/>
<polygon fill="#9a32cd" stroke="#9a32cd" points="81.668,-9.14848 71.3197,-11.4208 80.8264,-16.0977 81.668,-9.14848"/>
<text text-anchor="middle" x="159.325" y="-42.5" font-family="Helvetica,sans-Serif" font-size="10.00"> data</text>
</g>
</g>
</svg>
