<?xml version="1.0" encoding="UTF-8" standalone="no"?>
<!DOCTYPE svg PUBLIC "-//W3C//DTD SVG 1.1//EN"
 "http://www.w3.org/Graphics/SVG/1.1/DTD/svg11.dtd">
<!-- Generated by graphviz version 2.38.0 (20140413.2041)
 -->
<!-- Title: ArbiterAvailableVersionsFetch Pages: 1 -->
<svg width="530pt" height="84pt"
 viewBox="0.00 0.00 529.69 84.00" xmlns="http://www.w3.org/2000/svg" xmlns:xlink="http://www.w3.org/1999/xlink">
<g id="graph0" class="graph" transform="scale(1 1) rotate(0) translate(4 80)">
<title>ArbiterAvailableVersionsFetch</title>
<polygon fill="white" stroke="none" points="-4,4 -4,-80 525.694,-80 525.694,4 -4,4"/>
<!-- Node1 -->
<g id="node1" class="node"><title>Node1</title>
<polygon fill="#bfbfbf" stroke="black" points="397.477,-25.5 397.477,-53.5 521.694,-53.5 521.694,-25.5 397.477,-25.5"/>
<text text-anchor="start" x="405.477" y="-41.5" font-family="Helvetica,sans-Serif" font-size="10.00">ArbiterAvailableVersions</text>
<text text-anchor="middle" x="459.585" y="-31.5" font-family="Helvetica,sans-Serif" font-size="10.00">Fetch</text>
</g>
<!-- Node2 -->
<g id="node2" class="node"><title>Node2</title>
<g id="a_node2"><a xlink:href="struct_arbiter_project_identifier.html" target="_top" xlink:title="An opaque value which identifies a project participating in dependency resolution. ">
<polygon fill="white" stroke="black" points="208.201,-49.5 208.201,-67.5 323.132,-67.5 323.132,-49.5 208.201,-49.5"/>
<text text-anchor="middle" x="265.667" y="-55.5" font-family="Helvetica,sans-Serif" font-size="10.00">ArbiterProjectIdentifier</text>
</a>
</g>
</g>
<!-- Node2&#45;&gt;Node1 -->
<g id="edge1" class="edge"><title>Node2&#45;&gt;Node1</title>
<path fill="none" stroke="#9a32cd" stroke-dasharray="5,2" d="M333.256,-51.9076C354.095,-49.8446 376.978,-47.5791 397.424,-45.555"/>
<polygon fill="#9a32cd" stroke="#9a32cd" points="332.817,-48.4339 323.21,-52.9021 333.507,-55.3998 332.817,-48.4339"/>
<text text-anchor="middle" x="360.304" y="-52.5" font-family="Helvetica,sans-Serif" font-size="10.00"> project</text>
</g>
<!-- Node3 -->
<g id="node3" class="node"><title>Node3</title>
<g id="a_node3"><a xlink:href="class_arbiter_1_1_shared_user_value.html" target="_top" xlink:title="Arbiter::SharedUserValue\l\&lt; ArbiterProjectIdentifier \&gt;">
<polygon fill="white" stroke="black" points="0,-47.5 0,-75.5 131.62,-75.5 131.62,-47.5 0,-47.5"/>
<text text-anchor="start" x="8" y="-63.5" font-family="Helvetica,sans-Serif" font-size="10.00">Arbiter::SharedUserValue</text>
<text text-anchor="middle" x="65.8101" y="-53.5" font-family="Helvetica,sans-Serif" font-size="10.00">&lt; ArbiterProjectIdentifier &gt;</text>
</a>
</g>
</g>
<!-- Node3&#45;&gt;Node2 -->
<g id="edge2" class="edge"><title>Node3&#45;&gt;Node2</title>
<path fill="none" stroke="#9a32cd" stroke-dasharray="5,2" d="M142.1,-60.3584C163.929,-60.0274 187.388,-59.6717 207.881,-59.361"/>
<polygon fill="#9a32cd" stroke="#9a32cd" points="141.815,-56.8622 131.87,-60.5135 141.922,-63.8614 141.815,-56.8622"/>
<text text-anchor="middle" x="169.911" y="-61.5" font-family="Helvetica,sans-Serif" font-size="10.00"> _value</text>
</g>
<!-- Node4 -->
<g id="node4" class="node"><title>Node4</title>
<g id="a_node4"><a xlink:href="struct_arbiter_resolver.html" target="_top" xlink:title="A dependency resolver which contains context about how to evaluate the dependency graph...">
<polygon fill="white" stroke="black" points="223.211,-10.5 223.211,-28.5 308.122,-28.5 308.122,-10.5 223.211,-10.5"/>
<text text-anchor="middle" x="265.667" y="-16.5" font-family="Helvetica,sans-Serif" font-size="10.00">ArbiterResolver</text>
</a>
</g>
</g>
<!-- Node4&#45;&gt;Node1 -->
<g id="edge3" class="edge"><title>Node4&#45;&gt;Node1</title>
<path fill="none" stroke="#9a32cd" stroke-dasharray="5,2" d="M318.414,-24.8926C342.741,-27.4278 371.92,-30.4685 397.342,-33.1177"/>
<polygon fill="#9a32cd" stroke="#9a32cd" points="318.619,-21.3951 308.31,-23.8397 317.893,-28.3574 318.619,-21.3951"/>
<text text-anchor="middle" x="360.304" y="-32.5" font-family="Helvetica,sans-Serif" font-size="10.00"> resolver</text>
</g>
<!-- Node5 -->
<g id="node5" class="node"><title>Node5</title>
<g id="a_node5"><a xlink:href="class_arbiter_1_1_shared_user_value.html" target="_top" xlink:title="Arbiter::SharedUserValue\l\&lt; ArbiterResolver \&gt;">
<polygon fill="white" stroke="black" points="1.20605,-0.5 1.20605,-28.5 130.414,-28.5 130.414,-0.5 1.20605,-0.5"/>
<text text-anchor="start" x="9.20605" y="-16.5" font-family="Helvetica,sans-Serif" font-size="10.00">Arbiter::SharedUserValue</text>
<text text-anchor="middle" x="65.8101" y="-6.5" font-family="Helvetica,sans-Serif" font-size="10.00">&lt; ArbiterResolver &gt;</text>
</a>
</g>
</g>
<!-- Node5&#45;&gt;Node4 -->
<g id="edge4" class="edge"><title>Node5&#45;&gt;Node4</title>
<path fill="none" stroke="#9a32cd" stroke-dasharray="5,2" d="M140.6,-16.3647C168.406,-17.0674 199.05,-17.8418 222.925,-18.4452"/>
<polygon fill="#9a32cd" stroke="#9a32cd" points="140.587,-12.8634 130.502,-16.1096 140.411,-19.8612 140.587,-12.8634"/>
<text text-anchor="middle" x="169.911" y="-19.5" font-family="Helvetica,sans-Serif" font-size="10.00"> _context</text>
</g>
</g>
</svg>
