<?xml version="1.0" encoding="UTF-8" standalone="no"?>
<!DOCTYPE svg PUBLIC "-//W3C//DTD SVG 1.1//EN"
 "http://www.w3.org/Graphics/SVG/1.1/DTD/svg11.dtd">
<!-- Generated by graphviz version 2.38.0 (20140413.2041)
 -->
<!-- Title: ArbiterSelectedVersionList Pages: 1 -->
<svg width="380pt" height="337pt"
 viewBox="0.00 0.00 379.85 337.00" xmlns="http://www.w3.org/2000/svg" xmlns:xlink="http://www.w3.org/1999/xlink">
<g id="graph0" class="graph" transform="scale(1 1) rotate(0) translate(4 333)">
<title>ArbiterSelectedVersionList</title>
<polygon fill="white" stroke="none" points="-4,4 -4,-333 375.854,-333 375.854,4 -4,4"/>
<!-- Node1 -->
<g id="node1" class="node"><title>Node1</title>
<polygon fill="#bfbfbf" stroke="black" points="0,-0.5 0,-18.5 133.29,-18.5 133.29,-0.5 0,-0.5"/>
<text text-anchor="middle" x="66.645" y="-6.5" font-family="Helvetica,sans-Serif" font-size="10.00">ArbiterSelectedVersionList</text>
</g>
<!-- Node2 -->
<g id="node2" class="node"><title>Node2</title>
<g id="a_node2"><a xlink:href="class_arbiter_1_1_base.html" target="_top" xlink:title="Base class for public&#45;facing Arbiter types, such that they automatically get freeing, cloning, equality, and description functionality. ">
<polygon fill="white" stroke="black" points="20.7437,-305.5 20.7437,-323.5 94.5464,-323.5 94.5464,-305.5 20.7437,-305.5"/>
<text text-anchor="middle" x="57.645" y="-311.5" font-family="Helvetica,sans-Serif" font-size="10.00">Arbiter::Base</text>
</a>
</g>
</g>
<!-- Node2&#45;&gt;Node1 -->
<g id="edge1" class="edge"><title>Node2&#45;&gt;Node1</title>
<path fill="none" stroke="midnightblue" d="M50.3363,-296.077C43.2763,-277.644 33.645,-247.542 33.645,-220.5 33.645,-220.5 33.645,-220.5 33.645,-78.5 33.645,-54.8799 49.9597,-30.8574 59.6466,-18.6758"/>
<polygon fill="midnightblue" stroke="midnightblue" points="47.1327,-297.491 54.1037,-305.47 53.6296,-294.886 47.1327,-297.491"/>
</g>
<!-- Node4 -->
<g id="node4" class="node"><title>Node4</title>
<g id="a_node4"><a xlink:href="struct_arbiter_selected_version.html" target="_top" xlink:title="Represents a &quot;selected&quot; version, which is a concrete choice of a real project version. ">
<polygon fill="white" stroke="black" points="96.7808,-140.5 96.7808,-158.5 214.509,-158.5 214.509,-140.5 96.7808,-140.5"/>
<text text-anchor="middle" x="155.645" y="-146.5" font-family="Helvetica,sans-Serif" font-size="10.00">ArbiterSelectedVersion</text>
</a>
</g>
</g>
<!-- Node2&#45;&gt;Node4 -->
<g id="edge4" class="edge"><title>Node2&#45;&gt;Node4</title>
<path fill="none" stroke="midnightblue" d="M59.8905,-295.563C63.4131,-272.885 71.8816,-233.382 90.645,-205 104.046,-184.73 127.174,-167.949 141.924,-158.58"/>
<polygon fill="midnightblue" stroke="midnightblue" points="56.4221,-295.094 58.5028,-305.482 63.3546,-296.064 56.4221,-295.094"/>
</g>
<!-- Node5 -->
<g id="node5" class="node"><title>Node5</title>
<g id="a_node5"><a xlink:href="struct_arbiter_semantic_version.html" target="_top" xlink:title="Represents a semantic version, as defined by semver.org. ">
<polygon fill="white" stroke="black" points="99.3965,-210.5 99.3965,-228.5 219.894,-228.5 219.894,-210.5 99.3965,-210.5"/>
<text text-anchor="middle" x="159.645" y="-216.5" font-family="Helvetica,sans-Serif" font-size="10.00">ArbiterSemanticVersion</text>
</a>
</g>
</g>
<!-- Node2&#45;&gt;Node5 -->
<g id="edge6" class="edge"><title>Node2&#45;&gt;Node5</title>
<path fill="none" stroke="midnightblue" d="M74.2165,-298.391C96.0526,-278.481 133.685,-244.17 150.759,-228.602"/>
<polygon fill="midnightblue" stroke="midnightblue" points="71.7283,-295.923 66.6968,-305.247 76.4446,-301.096 71.7283,-295.923"/>
</g>
<!-- Node3 -->
<g id="node3" class="node"><title>Node3</title>
<polygon fill="white" stroke="#bfbfbf" points="65.3608,-65.5 65.3608,-93.5 203.929,-93.5 203.929,-65.5 65.3608,-65.5"/>
<text text-anchor="start" x="73.3608" y="-81.5" font-family="Helvetica,sans-Serif" font-size="10.00">std::vector&lt; ArbiterSelected</text>
<text text-anchor="middle" x="134.645" y="-71.5" font-family="Helvetica,sans-Serif" font-size="10.00">Version &gt;</text>
</g>
<!-- Node3&#45;&gt;Node1 -->
<g id="edge2" class="edge"><title>Node3&#45;&gt;Node1</title>
<path fill="none" stroke="#9a32cd" stroke-dasharray="5,2" d="M114.247,-58.1015C101.105,-44.9602 84.7177,-28.5727 75.0002,-18.8552"/>
<polygon fill="#9a32cd" stroke="#9a32cd" points="111.988,-60.7927 121.534,-65.3889 116.938,-55.8429 111.988,-60.7927"/>
<text text-anchor="middle" x="126.433" y="-39" font-family="Helvetica,sans-Serif" font-size="10.00"> _versions</text>
</g>
<!-- Node4&#45;&gt;Node3 -->
<g id="edge3" class="edge"><title>Node4&#45;&gt;Node3</title>
<path fill="none" stroke="#9a32cd" stroke-dasharray="5,2" d="M150.107,-130.568C146.532,-118.991 141.96,-104.187 138.717,-93.6867"/>
<polygon fill="#9a32cd" stroke="#9a32cd" points="146.859,-131.911 153.154,-140.432 153.547,-129.845 146.859,-131.911"/>
<text text-anchor="middle" x="169.322" y="-114" font-family="Helvetica,sans-Serif" font-size="10.00"> elements</text>
</g>
<!-- Node5&#45;&gt;Node4 -->
<g id="edge5" class="edge"><title>Node5&#45;&gt;Node4</title>
<path fill="none" stroke="#9a32cd" stroke-dasharray="5,2" d="M158.574,-200.297C157.775,-186.702 156.72,-168.776 156.119,-158.557"/>
<polygon fill="#9a32cd" stroke="#9a32cd" points="155.089,-200.655 159.17,-210.432 162.077,-200.244 155.089,-200.655"/>
<text text-anchor="middle" x="199.502" y="-179" font-family="Helvetica,sans-Serif" font-size="10.00"> _semanticVersion</text>
</g>
<!-- Node6 -->
<g id="node6" class="node"><title>Node6</title>
<g id="a_node6"><a xlink:href="struct_arbiter_1_1_optional.html" target="_top" xlink:title="Arbiter::Optional\&lt;\l std::string \&gt;">
<polygon fill="white" stroke="black" points="112.597,-300.5 112.597,-328.5 206.693,-328.5 206.693,-300.5 112.597,-300.5"/>
<text text-anchor="start" x="120.597" y="-316.5" font-family="Helvetica,sans-Serif" font-size="10.00">Arbiter::Optional&lt;</text>
<text text-anchor="middle" x="159.645" y="-306.5" font-family="Helvetica,sans-Serif" font-size="10.00"> std::string &gt;</text>
</a>
</g>
</g>
<!-- Node6&#45;&gt;Node5 -->
<g id="edge7" class="edge"><title>Node6&#45;&gt;Node5</title>
<path fill="none" stroke="#9a32cd" stroke-dasharray="5,2" d="M159.645,-289.989C159.645,-270.007 159.645,-242.456 159.645,-228.827"/>
<polygon fill="#9a32cd" stroke="#9a32cd" points="156.145,-290.175 159.645,-300.175 163.145,-290.175 156.145,-290.175"/>
<text text-anchor="middle" x="204.12" y="-269" font-family="Helvetica,sans-Serif" font-size="10.00"> _prereleaseVersion</text>
<text text-anchor="middle" x="204.12" y="-259" font-family="Helvetica,sans-Serif" font-size="10.00">_buildMetadata</text>
</g>
<!-- Node7 -->
<g id="node7" class="node"><title>Node7</title>
<polygon fill="white" stroke="#bfbfbf" points="243.35,-305.5 243.35,-323.5 299.94,-323.5 299.94,-305.5 243.35,-305.5"/>
<text text-anchor="middle" x="271.645" y="-311.5" font-family="Helvetica,sans-Serif" font-size="10.00">unsigned</text>
</g>
<!-- Node7&#45;&gt;Node5 -->
<g id="edge8" class="edge"><title>Node7&#45;&gt;Node5</title>
<path fill="none" stroke="#9a32cd" stroke-dasharray="5,2" d="M269.336,-295.022C266.725,-281.465 261.211,-263.487 249.645,-252 238.134,-240.568 222.247,-233.272 207.021,-228.621"/>
<polygon fill="#9a32cd" stroke="#9a32cd" points="265.914,-295.792 270.916,-305.131 272.83,-294.711 265.914,-295.792"/>
<text text-anchor="middle" x="283.317" y="-274" font-family="Helvetica,sans-Serif" font-size="10.00"> _minor</text>
<text text-anchor="middle" x="283.317" y="-264" font-family="Helvetica,sans-Serif" font-size="10.00">_patch</text>
<text text-anchor="middle" x="283.317" y="-254" font-family="Helvetica,sans-Serif" font-size="10.00">_major</text>
</g>
<!-- Node8 -->
<g id="node8" class="node"><title>Node8</title>
<g id="a_node8"><a xlink:href="class_arbiter_1_1_shared_user_value.html" target="_top" xlink:title="Arbiter::SharedUserValue\l\&lt; ArbiterSelectedVersion \&gt;">
<polygon fill="white" stroke="black" points="237.436,-205.5 237.436,-233.5 371.854,-233.5 371.854,-205.5 237.436,-205.5"/>
<text text-anchor="start" x="245.436" y="-221.5" font-family="Helvetica,sans-Serif" font-size="10.00">Arbiter::SharedUserValue</text>
<text text-anchor="middle" x="304.645" y="-211.5" font-family="Helvetica,sans-Serif" font-size="10.00">&lt; ArbiterSelectedVersion &gt;</text>
</a>
</g>
</g>
<!-- Node8&#45;&gt;Node4 -->
<g id="edge9" class="edge"><title>Node8&#45;&gt;Node4</title>
<path fill="none" stroke="#9a32cd" stroke-dasharray="5,2" d="M280.436,-199.149C269.905,-191.438 257.135,-182.991 244.645,-177 228.074,-169.051 208.613,-162.927 192.121,-158.578"/>
<polygon fill="#9a32cd" stroke="#9a32cd" points="278.608,-202.155 288.699,-205.383 282.824,-196.567 278.608,-202.155"/>
<text text-anchor="middle" x="287.662" y="-179" font-family="Helvetica,sans-Serif" font-size="10.00"> _metadata</text>
</g>
</g>
</svg>
