<?xml version="1.0" encoding="UTF-8" standalone="no"?>
<!DOCTYPE svg PUBLIC "-//W3C//DTD SVG 1.1//EN"
 "http://www.w3.org/Graphics/SVG/1.1/DTD/svg11.dtd">
<!-- Generated by graphviz version 2.38.0 (20140413.2041)
 -->
<!-- Title: Arbiter::Resolver::ResolvedDependency Pages: 1 -->
<svg width="347pt" height="262pt"
 viewBox="0.00 0.00 346.51 262.00" xmlns="http://www.w3.org/2000/svg" xmlns:xlink="http://www.w3.org/1999/xlink">
<g id="graph0" class="graph" transform="scale(1 1) rotate(0) translate(4 258)">
<title>Arbiter::Resolver::ResolvedDependency</title>
<polygon fill="white" stroke="none" points="-4,4 -4,-258 342.513,-258 342.513,4 -4,4"/>
<!-- Node1 -->
<g id="node1" class="node"><title>Node1</title>
<polygon fill="#bfbfbf" stroke="black" points="147.127,-0.5 147.127,-28.5 260.969,-28.5 260.969,-0.5 147.127,-0.5"/>
<text text-anchor="start" x="155.127" y="-16.5" font-family="Helvetica,sans-Serif" font-size="10.00">Arbiter::Resolver::</text>
<text text-anchor="middle" x="204.048" y="-6.5" font-family="Helvetica,sans-Serif" font-size="10.00">ResolvedDependency</text>
</g>
<!-- Node2 -->
<g id="node2" class="node"><title>Node2</title>
<g id="a_node2"><a xlink:href="struct_arbiter_selected_version.html" target="_top" xlink:title="Represents a &quot;selected&quot; version, which is a concrete choice of a real project version. ">
<polygon fill="white" stroke="black" points="88.1836,-75.5 88.1836,-93.5 205.912,-93.5 205.912,-75.5 88.1836,-75.5"/>
<text text-anchor="middle" x="147.048" y="-81.5" font-family="Helvetica,sans-Serif" font-size="10.00">ArbiterSelectedVersion</text>
</a>
</g>
</g>
<!-- Node2&#45;&gt;Node1 -->
<g id="edge1" class="edge"><title>Node2&#45;&gt;Node1</title>
<path fill="none" stroke="#9a32cd" stroke-dasharray="5,2" d="M159.368,-67.2971C164.334,-60.896 170.177,-53.5251 175.664,-47 180.875,-40.8023 186.849,-34.1149 191.967,-28.5028"/>
<polygon fill="#9a32cd" stroke="#9a32cd" points="156.572,-65.1918 153.256,-75.2542 162.123,-69.4562 156.572,-65.1918"/>
<text text-anchor="middle" x="212.74" y="-49" font-family="Helvetica,sans-Serif" font-size="10.00"> selectedVersion</text>
</g>
<!-- Node3 -->
<g id="node3" class="node"><title>Node3</title>
<g id="a_node3"><a xlink:href="struct_arbiter_semantic_version.html" target="_top" xlink:title="Represents a semantic version, as defined by semver.org. ">
<polygon fill="white" stroke="black" points="42.7993,-140.5 42.7993,-158.5 163.296,-158.5 163.296,-140.5 42.7993,-140.5"/>
<text text-anchor="middle" x="103.048" y="-146.5" font-family="Helvetica,sans-Serif" font-size="10.00">ArbiterSemanticVersion</text>
</a>
</g>
</g>
<!-- Node3&#45;&gt;Node2 -->
<g id="edge2" class="edge"><title>Node3&#45;&gt;Node2</title>
<path fill="none" stroke="#9a32cd" stroke-dasharray="5,2" d="M100.353,-130.235C100.285,-124.086 101.194,-117.417 104.334,-112 109.061,-103.846 117.402,-97.8556 125.466,-93.6544"/>
<polygon fill="#9a32cd" stroke="#9a32cd" points="96.8814,-130.711 101.26,-140.359 103.853,-130.087 96.8814,-130.711"/>
<text text-anchor="middle" x="145.905" y="-114" font-family="Helvetica,sans-Serif" font-size="10.00"> _semanticVersion</text>
</g>
<!-- Node4 -->
<g id="node4" class="node"><title>Node4</title>
<g id="a_node4"><a xlink:href="struct_arbiter_1_1_optional.html" target="_top" xlink:title="Arbiter::Optional\&lt;\l std::string \&gt;">
<polygon fill="white" stroke="black" points="0,-225.5 0,-253.5 94.0957,-253.5 94.0957,-225.5 0,-225.5"/>
<text text-anchor="start" x="8" y="-241.5" font-family="Helvetica,sans-Serif" font-size="10.00">Arbiter::Optional&lt;</text>
<text text-anchor="middle" x="47.0479" y="-231.5" font-family="Helvetica,sans-Serif" font-size="10.00"> std::string &gt;</text>
</a>
</g>
</g>
<!-- Node4&#45;&gt;Node3 -->
<g id="edge3" class="edge"><title>Node4&#45;&gt;Node3</title>
<path fill="none" stroke="#9a32cd" stroke-dasharray="5,2" d="M41.8961,-215.131C40.493,-202.871 40.9748,-188.131 48.0977,-177 53.5781,-168.436 62.6756,-162.568 71.9067,-158.579"/>
<polygon fill="#9a32cd" stroke="#9a32cd" points="38.4573,-215.792 43.4948,-225.112 45.3692,-214.685 38.4573,-215.792"/>
<text text-anchor="middle" x="93.5229" y="-194" font-family="Helvetica,sans-Serif" font-size="10.00"> _prereleaseVersion</text>
<text text-anchor="middle" x="93.5229" y="-184" font-family="Helvetica,sans-Serif" font-size="10.00">_buildMetadata</text>
</g>
<!-- Node5 -->
<g id="node5" class="node"><title>Node5</title>
<polygon fill="white" stroke="#bfbfbf" points="130.752,-230.5 130.752,-248.5 187.343,-248.5 187.343,-230.5 130.752,-230.5"/>
<text text-anchor="middle" x="159.048" y="-236.5" font-family="Helvetica,sans-Serif" font-size="10.00">unsigned</text>
</g>
<!-- Node5&#45;&gt;Node3 -->
<g id="edge4" class="edge"><title>Node5&#45;&gt;Node3</title>
<path fill="none" stroke="#9a32cd" stroke-dasharray="5,2" d="M155.374,-220.197C152.121,-207.239 146.402,-189.934 137.048,-177 131.697,-169.602 123.725,-163.236 116.844,-158.6"/>
<polygon fill="#9a32cd" stroke="#9a32cd" points="152.024,-221.255 157.628,-230.247 158.855,-219.723 152.024,-221.255"/>
<text text-anchor="middle" x="168.72" y="-199" font-family="Helvetica,sans-Serif" font-size="10.00"> _minor</text>
<text text-anchor="middle" x="168.72" y="-189" font-family="Helvetica,sans-Serif" font-size="10.00">_patch</text>
<text text-anchor="middle" x="168.72" y="-179" font-family="Helvetica,sans-Serif" font-size="10.00">_major</text>
</g>
<!-- Node6 -->
<g id="node6" class="node"><title>Node6</title>
<g id="a_node6"><a xlink:href="class_arbiter_1_1_shared_user_value.html" target="_top" xlink:title="Expresses shared ownership of opaque user&#45;provided data, which was originally described in an Arbiter...">
<polygon fill="white" stroke="black" points="198.444,-140.5 198.444,-158.5 327.652,-158.5 327.652,-140.5 198.444,-140.5"/>
<text text-anchor="middle" x="263.048" y="-146.5" font-family="Helvetica,sans-Serif" font-size="10.00">Arbiter::SharedUserValue</text>
</a>
</g>
</g>
<!-- Node6&#45;&gt;Node2 -->
<g id="edge5" class="edge"><title>Node6&#45;&gt;Node2</title>
<path fill="none" stroke="#9a32cd" stroke-dasharray="5,2" d="M238.987,-135.432C215.754,-122.814 181.313,-104.109 161.85,-93.539"/>
<polygon fill="#9a32cd" stroke="#9a32cd" points="237.425,-138.567 247.883,-140.264 240.766,-132.416 237.425,-138.567"/>
<text text-anchor="middle" x="237.065" y="-114" font-family="Helvetica,sans-Serif" font-size="10.00"> _metadata</text>
</g>
<!-- Node7 -->
<g id="node7" class="node"><title>Node7</title>
<g id="a_node7"><a xlink:href="struct_arbiter_project_identifier.html" target="_top" xlink:title="An opaque value which identifies a project participating in dependency resolution. ">
<polygon fill="white" stroke="black" points="223.583,-75.5 223.583,-93.5 338.513,-93.5 338.513,-75.5 223.583,-75.5"/>
<text text-anchor="middle" x="281.048" y="-81.5" font-family="Helvetica,sans-Serif" font-size="10.00">ArbiterProjectIdentifier</text>
</a>
</g>
</g>
<!-- Node6&#45;&gt;Node7 -->
<g id="edge7" class="edge"><title>Node6&#45;&gt;Node7</title>
<path fill="none" stroke="#9a32cd" stroke-dasharray="5,2" d="M268.253,-130.281C271.726,-118.128 276.12,-102.747 278.751,-93.539"/>
<polygon fill="#9a32cd" stroke="#9a32cd" points="264.783,-129.687 265.401,-140.264 271.514,-131.61 264.783,-129.687"/>
<text text-anchor="middle" x="290.171" y="-114" font-family="Helvetica,sans-Serif" font-size="10.00"> _value</text>
</g>
<!-- Node7&#45;&gt;Node1 -->
<g id="edge6" class="edge"><title>Node7&#45;&gt;Node1</title>
<path fill="none" stroke="#9a32cd" stroke-dasharray="5,2" d="M268.597,-67.6623C262.966,-60.9485 256.019,-53.2494 249.048,-47 241.663,-40.3797 232.852,-33.9397 224.992,-28.6261"/>
<polygon fill="#9a32cd" stroke="#9a32cd" points="265.907,-69.9014 274.929,-75.456 271.34,-65.4875 265.907,-69.9014"/>
<text text-anchor="middle" x="294.622" y="-49" font-family="Helvetica,sans-Serif" font-size="10.00"> projectIdentifier</text>
</g>
</g>
</svg>
