<?xml version="1.0" encoding="UTF-8" standalone="no"?>
<!DOCTYPE svg PUBLIC "-//W3C//DTD SVG 1.1//EN"
 "http://www.w3.org/Graphics/SVG/1.1/DTD/svg11.dtd">
<!-- Generated by graphviz version 2.38.0 (20140413.2041)
 -->
<!-- Title: ArbiterResolver Pages: 1 -->
<svg width="168pt" height="92pt"
 viewBox="0.00 0.00 167.75 92.00" xmlns="http://www.w3.org/2000/svg" xmlns:xlink="http://www.w3.org/1999/xlink">
<g id="graph0" class="graph" transform="scale(1 1) rotate(0) translate(4 88)">
<title>ArbiterResolver</title>
<polygon fill="white" stroke="none" points="-4,4 -4,-88 163.749,-88 163.749,4 -4,4"/>
<!-- Node1 -->
<g id="node1" class="node"><title>Node1</title>
<polygon fill="#bfbfbf" stroke="black" points="38.4458,-0.5 38.4458,-18.5 123.357,-18.5 123.357,-0.5 38.4458,-0.5"/>
<text text-anchor="middle" x="80.9014" y="-6.5" font-family="Helvetica,sans-Serif" font-size="10.00">ArbiterResolver</text>
</g>
<!-- Node2 -->
<g id="node2" class="node"><title>Node2</title>
<g id="a_node2"><a xlink:href="class_arbiter_1_1_base.html" target="_top" xlink:title="Base class for public&#45;facing Arbiter types, such that they automatically get freeing, cloning, equality, and description functionality. ">
<polygon fill="white" stroke="black" points="0,-65.5 0,-83.5 73.8027,-83.5 73.8027,-65.5 0,-65.5"/>
<text text-anchor="middle" x="36.9014" y="-71.5" font-family="Helvetica,sans-Serif" font-size="10.00">Arbiter::Base</text>
</a>
</g>
</g>
<!-- Node2&#45;&gt;Node1 -->
<g id="edge1" class="edge"><title>Node2&#45;&gt;Node1</title>
<path fill="none" stroke="midnightblue" d="M48.5985,-56.7518C57.2296,-44.3937 68.5934,-28.1227 75.2868,-18.539"/>
<polygon fill="midnightblue" stroke="midnightblue" points="45.5101,-55.0613 42.6536,-65.2639 51.249,-59.0695 45.5101,-55.0613"/>
</g>
<!-- Node3 -->
<g id="node3" class="node"><title>Node3</title>
<polygon fill="white" stroke="#bfbfbf" points="92.0542,-65.5 92.0542,-83.5 159.749,-83.5 159.749,-65.5 92.0542,-65.5"/>
<text text-anchor="middle" x="125.901" y="-71.5" font-family="Helvetica,sans-Serif" font-size="10.00">const void *</text>
</g>
<!-- Node3&#45;&gt;Node1 -->
<g id="edge2" class="edge"><title>Node3&#45;&gt;Node1</title>
<path fill="none" stroke="#9a32cd" stroke-dasharray="5,2" d="M114.197,-57.1142C105.34,-44.7134 93.5561,-28.2167 86.6435,-18.539"/>
<polygon fill="#9a32cd" stroke="#9a32cd" points="111.358,-59.1608 120.018,-65.2639 117.054,-55.0921 111.358,-59.1608"/>
<text text-anchor="middle" x="127.192" y="-39" font-family="Helvetica,sans-Serif" font-size="10.00"> _context</text>
</g>
</g>
</svg>
