<?xml version="1.0" encoding="UTF-8" standalone="no"?>
<!DOCTYPE svg PUBLIC "-//W3C//DTD SVG 1.1//EN"
 "http://www.w3.org/Graphics/SVG/1.1/DTD/svg11.dtd">
<!-- Generated by graphviz version 2.38.0 (20140413.2041)
 -->
<!-- Title: ArbiterResolvedDependencyInstaller Pages: 1 -->
<svg width="405pt" height="232pt"
 viewBox="0.00 0.00 405.27 232.00" xmlns="http://www.w3.org/2000/svg" xmlns:xlink="http://www.w3.org/1999/xlink">
<g id="graph0" class="graph" transform="scale(1 1) rotate(0) translate(4 228)">
<title>ArbiterResolvedDependencyInstaller</title>
<polygon fill="white" stroke="none" points="-4,4 -4,-228 401.266,-228 401.266,4 -4,4"/>
<!-- Node0 -->
<g id="node1" class="node"><title>Node0</title>
<polygon fill="#bfbfbf" stroke="black" points="102.254,-0.5 102.254,-28.5 245.549,-28.5 245.549,-0.5 102.254,-0.5"/>
<text text-anchor="start" x="110.254" y="-16.5" font-family="Helvetica,sans-Serif" font-size="10.00">ArbiterResolvedDependency</text>
<text text-anchor="middle" x="173.901" y="-6.5" font-family="Helvetica,sans-Serif" font-size="10.00">Installer</text>
</g>
<!-- Node1 -->
<g id="node2" class="node"><title>Node1</title>
<g id="a_node2"><a xlink:href="class_arbiter_1_1_base.html" target="_top" xlink:title="Base class for public&#45;facing Arbiter types, such that they automatically get freeing, cloning, equality, and description functionality. ">
<polygon fill="white" stroke="black" points="0,-75.5 0,-93.5 73.8027,-93.5 73.8027,-75.5 0,-75.5"/>
<text text-anchor="middle" x="36.9014" y="-81.5" font-family="Helvetica,sans-Serif" font-size="10.00">Arbiter::Base</text>
</a>
</g>
</g>
<!-- Node1&#45;&gt;Node0 -->
<g id="edge1" class="edge"><title>Node1&#45;&gt;Node0</title>
<path fill="none" stroke="midnightblue" d="M62.1159,-70.9848C86.3908,-58.9359 122.952,-40.7888 147.589,-28.5601"/>
<polygon fill="midnightblue" stroke="midnightblue" points="60.5563,-67.8514 53.1551,-75.4325 63.6685,-74.1215 60.5563,-67.8514"/>
</g>
<!-- Node2 -->
<g id="node3" class="node"><title>Node2</title>
<polygon fill="white" stroke="#bfbfbf" points="91.5557,-75.5 91.5557,-93.5 256.247,-93.5 256.247,-75.5 91.5557,-75.5"/>
<text text-anchor="middle" x="173.901" y="-81.5" font-family="Helvetica,sans-Serif" font-size="10.00">vector&lt; ArbiterProjectIdentifier &gt;&gt;</text>
</g>
<!-- Node2&#45;&gt;Node0 -->
<g id="edge2" class="edge"><title>Node2&#45;&gt;Node0</title>
<path fill="none" stroke="#9a32cd" stroke-dasharray="5,2" d="M173.901,-65.2088C173.901,-53.6862 173.901,-39.0784 173.901,-28.6867"/>
<polygon fill="#9a32cd" stroke="#9a32cd" points="170.401,-65.4324 173.901,-75.4325 177.401,-65.4325 170.401,-65.4324"/>
<text text-anchor="middle" x="191.694" y="-49" font-family="Helvetica,sans-Serif" font-size="10.00"> _edges</text>
</g>
<!-- Node3 -->
<g id="node4" class="node"><title>Node3</title>
<polygon fill="white" stroke="#bfbfbf" points="274.537,-75.5 274.537,-93.5 397.266,-93.5 397.266,-75.5 274.537,-75.5"/>
<text text-anchor="middle" x="335.901" y="-81.5" font-family="Helvetica,sans-Serif" font-size="10.00">std::vector&lt; PhaseSet &gt;</text>
</g>
<!-- Node3&#45;&gt;Node0 -->
<g id="edge3" class="edge"><title>Node3&#45;&gt;Node0</title>
<path fill="none" stroke="#9a32cd" stroke-dasharray="5,2" d="M307.221,-71.4613C278.531,-59.4188 234.535,-40.9511 205.015,-28.5601"/>
<polygon fill="#9a32cd" stroke="#9a32cd" points="306.106,-74.7893 316.682,-75.4325 308.816,-68.3348 306.106,-74.7893"/>
<text text-anchor="middle" x="289.194" y="-49" font-family="Helvetica,sans-Serif" font-size="10.00"> _phases</text>
</g>
<!-- Node4 -->
<g id="node5" class="node"><title>Node4</title>
<g id="a_node5"><a xlink:title="STL class. ">
<polygon fill="white" stroke="#bfbfbf" points="299.83,-140.5 299.83,-158.5 371.973,-158.5 371.973,-140.5 299.83,-140.5"/>
<text text-anchor="middle" x="335.901" y="-146.5" font-family="Helvetica,sans-Serif" font-size="10.00">std::set&lt; K &gt;</text>
</a>
</g>
</g>
<!-- Node4&#45;&gt;Node3 -->
<g id="edge4" class="edge"><title>Node4&#45;&gt;Node3</title>
<path fill="none" stroke="#9a32cd" stroke-dasharray="5,2" d="M335.901,-129.907C335.901,-117.815 335.901,-102.653 335.901,-93.539"/>
<polygon fill="#9a32cd" stroke="#9a32cd" points="332.401,-130.264 335.901,-140.264 339.401,-130.264 332.401,-130.264"/>
<text text-anchor="middle" x="357.579" y="-114" font-family="Helvetica,sans-Serif" font-size="10.00"> elements</text>
</g>
<!-- Node5 -->
<g id="node6" class="node"><title>Node5</title>
<polygon fill="white" stroke="#bfbfbf" points="321.401,-205.5 321.401,-223.5 350.401,-223.5 350.401,-205.5 321.401,-205.5"/>
<text text-anchor="middle" x="335.736" y="-211.5" font-family="Helvetica,sans-Serif" font-size="10.00">K</text>
</g>
<!-- Node5&#45;&gt;Node4 -->
<g id="edge5" class="edge"><title>Node5&#45;&gt;Node4</title>
<path fill="none" stroke="#9a32cd" stroke-dasharray="5,2" d="M335.901,-194.907C335.901,-182.815 335.901,-167.653 335.901,-158.539"/>
<polygon fill="#9a32cd" stroke="#9a32cd" points="332.401,-195.264 335.901,-205.264 339.401,-195.264 332.401,-195.264"/>
<text text-anchor="middle" x="347.571" y="-179" font-family="Helvetica,sans-Serif" font-size="10.00"> keys</text>
</g>
</g>
</svg>
