<?xml version="1.0" encoding="UTF-8" standalone="no"?>
<!DOCTYPE svg PUBLIC "-//W3C//DTD SVG 1.1//EN"
 "http://www.w3.org/Graphics/SVG/1.1/DTD/svg11.dtd">
<!-- Generated by graphviz version 2.38.0 (20140413.2041)
 -->
<!-- Title: ArbiterProjectIdentifier Pages: 1 -->
<svg width="140pt" height="102pt"
 viewBox="0.00 0.00 139.62 102.00" xmlns="http://www.w3.org/2000/svg" xmlns:xlink="http://www.w3.org/1999/xlink">
<g id="graph0" class="graph" transform="scale(1 1) rotate(0) translate(4 98)">
<title>ArbiterProjectIdentifier</title>
<polygon fill="white" stroke="none" points="-4,4 -4,-98 135.62,-98 135.62,4 -4,4"/>
<!-- Node1 -->
<g id="node1" class="node"><title>Node1</title>
<polygon fill="#bfbfbf" stroke="black" points="8.34473,-0.5 8.34473,-18.5 123.275,-18.5 123.275,-0.5 8.34473,-0.5"/>
<text text-anchor="middle" x="65.8101" y="-6.5" font-family="Helvetica,sans-Serif" font-size="10.00">ArbiterProjectIdentifier</text>
</g>
<!-- Node2 -->
<g id="node2" class="node"><title>Node2</title>
<g id="a_node2"><a xlink:href="class_arbiter_1_1_shared_user_value.html" target="_top" xlink:title="Arbiter::SharedUserValue\l\&lt; ArbiterProjectIdentifier \&gt;">
<polygon fill="white" stroke="black" points="0,-65.5 0,-93.5 131.62,-93.5 131.62,-65.5 0,-65.5"/>
<text text-anchor="start" x="8" y="-81.5" font-family="Helvetica,sans-Serif" font-size="10.00">Arbiter::SharedUserValue</text>
<text text-anchor="middle" x="65.8101" y="-71.5" font-family="Helvetica,sans-Serif" font-size="10.00">&lt; ArbiterProjectIdentifier &gt;</text>
</a>
</g>
</g>
<!-- Node2&#45;&gt;Node1 -->
<g id="edge1" class="edge"><title>Node2&#45;&gt;Node1</title>
<path fill="none" stroke="#9a32cd" stroke-dasharray="5,2" d="M65.8101,-55.1036C65.8101,-42.547 65.8101,-27.8462 65.8101,-18.8552"/>
<polygon fill="#9a32cd" stroke="#9a32cd" points="62.3102,-55.3889 65.8101,-65.3889 69.3102,-55.389 62.3102,-55.3889"/>
<text text-anchor="middle" x="81.9331" y="-39" font-family="Helvetica,sans-Serif" font-size="10.00"> _value</text>
</g>
</g>
</svg>
