<?xml version="1.0" encoding="UTF-8" standalone="no"?>
<!DOCTYPE svg PUBLIC "-//W3C//DTD SVG 1.1//EN"
 "http://www.w3.org/Graphics/SVG/1.1/DTD/svg11.dtd">
<!-- Generated by graphviz version 2.38.0 (20140413.2041)
 -->
<!-- Title: Arbiter::Exception::MutuallyExclusiveConstraints Pages: 1 -->
<svg width="160pt" height="212pt"
 viewBox="0.00 0.00 159.61 212.00" xmlns="http://www.w3.org/2000/svg" xmlns:xlink="http://www.w3.org/1999/xlink">
<g id="graph0" class="graph" transform="scale(1 1) rotate(0) translate(4 208)">
<title>Arbiter::Exception::MutuallyExclusiveConstraints</title>
<polygon fill="white" stroke="none" points="-4,4 -4,-208 155.605,-208 155.605,4 -4,4"/>
<!-- Node0 -->
<g id="node1" class="node"><title>Node0</title>
<polygon fill="#bfbfbf" stroke="black" points="0,-0.5 0,-28.5 151.605,-28.5 151.605,-0.5 0,-0.5"/>
<text text-anchor="start" x="8" y="-16.5" font-family="Helvetica,sans-Serif" font-size="10.00">Arbiter::Exception</text>
<text text-anchor="middle" x="75.8027" y="-6.5" font-family="Helvetica,sans-Serif" font-size="10.00">::MutuallyExclusiveConstraints</text>
</g>
<!-- Node1 -->
<g id="node2" class="node"><title>Node1</title>
<g id="a_node2"><a xlink:href="struct_arbiter_1_1_exception_1_1_base.html" target="_top" xlink:title="Base type for Arbiter exceptions. ">
<polygon fill="white" stroke="black" points="28.3398,-65.5 28.3398,-93.5 123.266,-93.5 123.266,-65.5 28.3398,-65.5"/>
<text text-anchor="start" x="36.3398" y="-81.5" font-family="Helvetica,sans-Serif" font-size="10.00">Arbiter::Exception</text>
<text text-anchor="middle" x="75.8027" y="-71.5" font-family="Helvetica,sans-Serif" font-size="10.00">::Base</text>
</a>
</g>
</g>
<!-- Node1&#45;&gt;Node0 -->
<g id="edge1" class="edge"><title>Node1&#45;&gt;Node0</title>
<path fill="none" stroke="midnightblue" d="M75.8027,-55.1641C75.8027,-46.1693 75.8027,-36.2205 75.8027,-28.5369"/>
<polygon fill="midnightblue" stroke="midnightblue" points="72.3028,-55.4463 75.8027,-65.4464 79.3028,-55.4464 72.3028,-55.4463"/>
</g>
<!-- Node2 -->
<g id="node3" class="node"><title>Node2</title>
<g id="a_node3"><a xlink:title="STL class. ">
<polygon fill="white" stroke="#bfbfbf" points="28.3447,-130.5 28.3447,-148.5 123.261,-148.5 123.261,-130.5 28.3447,-130.5"/>
<text text-anchor="middle" x="75.8027" y="-136.5" font-family="Helvetica,sans-Serif" font-size="10.00">std::runtime_error</text>
</a>
</g>
</g>
<!-- Node2&#45;&gt;Node1 -->
<g id="edge2" class="edge"><title>Node2&#45;&gt;Node1</title>
<path fill="none" stroke="midnightblue" d="M75.8027,-120.321C75.8027,-111.747 75.8027,-101.7 75.8027,-93.8428"/>
<polygon fill="midnightblue" stroke="midnightblue" points="72.3028,-120.435 75.8027,-130.435 79.3028,-120.435 72.3028,-120.435"/>
</g>
<!-- Node3 -->
<g id="node4" class="node"><title>Node3</title>
<g id="a_node4"><a xlink:title="STL class. ">
<polygon fill="white" stroke="#bfbfbf" points="36.9507,-185.5 36.9507,-203.5 114.655,-203.5 114.655,-185.5 36.9507,-185.5"/>
<text text-anchor="middle" x="75.8027" y="-191.5" font-family="Helvetica,sans-Serif" font-size="10.00">std::exception</text>
</a>
</g>
</g>
<!-- Node3&#45;&gt;Node2 -->
<g id="edge3" class="edge"><title>Node3&#45;&gt;Node2</title>
<path fill="none" stroke="midnightblue" d="M75.8027,-175.175C75.8027,-166.094 75.8027,-155.595 75.8027,-148.55"/>
<polygon fill="midnightblue" stroke="midnightblue" points="72.3028,-175.219 75.8027,-185.219 79.3028,-175.219 72.3028,-175.219"/>
</g>
</g>
</svg>
