<?xml version="1.0" encoding="UTF-8" standalone="no"?>
<!DOCTYPE svg PUBLIC "-//W3C//DTD SVG 1.1//EN"
 "http://www.w3.org/Graphics/SVG/1.1/DTD/svg11.dtd">
<!-- Generated by graphviz version 2.38.0 (20140413.2041)
 -->
<!-- Title: ArbiterSelectedVersion Pages: 1 -->
<svg width="323pt" height="197pt"
 viewBox="0.00 0.00 323.26 197.00" xmlns="http://www.w3.org/2000/svg" xmlns:xlink="http://www.w3.org/1999/xlink">
<g id="graph0" class="graph" transform="scale(1 1) rotate(0) translate(4 193)">
<title>ArbiterSelectedVersion</title>
<polygon fill="white" stroke="none" points="-4,4 -4,-193 319.257,-193 319.257,4 -4,4"/>
<!-- Node1 -->
<g id="node1" class="node"><title>Node1</title>
<polygon fill="#bfbfbf" stroke="black" points="136.184,-0.5 136.184,-18.5 253.912,-18.5 253.912,-0.5 136.184,-0.5"/>
<text text-anchor="middle" x="195.048" y="-6.5" font-family="Helvetica,sans-Serif" font-size="10.00">ArbiterSelectedVersion</text>
</g>
<!-- Node2 -->
<g id="node2" class="node"><title>Node2</title>
<g id="a_node2"><a xlink:href="struct_arbiter_semantic_version.html" target="_top" xlink:title="Represents a semantic version, as defined by semver.org. ">
<polygon fill="white" stroke="black" points="42.7993,-70.5 42.7993,-88.5 163.296,-88.5 163.296,-70.5 42.7993,-70.5"/>
<text text-anchor="middle" x="103.048" y="-76.5" font-family="Helvetica,sans-Serif" font-size="10.00">ArbiterSemanticVersion</text>
</a>
</g>
</g>
<!-- Node2&#45;&gt;Node1 -->
<g id="edge1" class="edge"><title>Node2&#45;&gt;Node1</title>
<path fill="none" stroke="#9a32cd" stroke-dasharray="5,2" d="M111.555,-61.5554C116.414,-53.2571 123.169,-43.6476 131.334,-37 141.46,-28.7552 154.514,-22.7271 166.167,-18.5229"/>
<polygon fill="#9a32cd" stroke="#9a32cd" points="108.429,-59.9775 106.75,-70.4386 114.586,-63.3075 108.429,-59.9775"/>
<text text-anchor="middle" x="172.905" y="-39" font-family="Helvetica,sans-Serif" font-size="10.00"> _semanticVersion</text>
</g>
<!-- Node3 -->
<g id="node3" class="node"><title>Node3</title>
<g id="a_node3"><a xlink:href="struct_arbiter_1_1_optional.html" target="_top" xlink:title="Arbiter::Optional\&lt;\l std::string \&gt;">
<polygon fill="white" stroke="black" points="0,-160.5 0,-188.5 94.0957,-188.5 94.0957,-160.5 0,-160.5"/>
<text text-anchor="start" x="8" y="-176.5" font-family="Helvetica,sans-Serif" font-size="10.00">Arbiter::Optional&lt;</text>
<text text-anchor="middle" x="47.0479" y="-166.5" font-family="Helvetica,sans-Serif" font-size="10.00"> std::string &gt;</text>
</a>
</g>
</g>
<!-- Node3&#45;&gt;Node2 -->
<g id="edge2" class="edge"><title>Node3&#45;&gt;Node2</title>
<path fill="none" stroke="#9a32cd" stroke-dasharray="5,2" d="M42.2167,-150.328C40.9068,-138.126 41.3753,-123.377 48.0977,-112 54.5865,-101.018 66.4773,-93.5209 77.5423,-88.6052"/>
<polygon fill="#9a32cd" stroke="#9a32cd" points="38.7604,-150.881 43.7133,-160.247 45.6821,-149.836 38.7604,-150.881"/>
<text text-anchor="middle" x="93.5229" y="-129" font-family="Helvetica,sans-Serif" font-size="10.00"> _prereleaseVersion</text>
<text text-anchor="middle" x="93.5229" y="-119" font-family="Helvetica,sans-Serif" font-size="10.00">_buildMetadata</text>
</g>
<!-- Node4 -->
<g id="node4" class="node"><title>Node4</title>
<polygon fill="white" stroke="#bfbfbf" points="130.752,-165.5 130.752,-183.5 187.343,-183.5 187.343,-165.5 130.752,-165.5"/>
<text text-anchor="middle" x="159.048" y="-171.5" font-family="Helvetica,sans-Serif" font-size="10.00">unsigned</text>
</g>
<!-- Node4&#45;&gt;Node2 -->
<g id="edge3" class="edge"><title>Node4&#45;&gt;Node2</title>
<path fill="none" stroke="#9a32cd" stroke-dasharray="5,2" d="M155.034,-155.432C151.617,-142.587 145.843,-125.321 137.048,-112 130.929,-102.733 121.527,-94.3036 114.16,-88.5014"/>
<polygon fill="#9a32cd" stroke="#9a32cd" points="151.687,-156.479 157.446,-165.372 158.489,-154.828 151.687,-156.479"/>
<text text-anchor="middle" x="167.72" y="-134" font-family="Helvetica,sans-Serif" font-size="10.00"> _minor</text>
<text text-anchor="middle" x="167.72" y="-124" font-family="Helvetica,sans-Serif" font-size="10.00">_patch</text>
<text text-anchor="middle" x="167.72" y="-114" font-family="Helvetica,sans-Serif" font-size="10.00">_major</text>
</g>
<!-- Node5 -->
<g id="node5" class="node"><title>Node5</title>
<g id="a_node5"><a xlink:href="class_arbiter_1_1_shared_user_value.html" target="_top" xlink:title="Arbiter::SharedUserValue\l\&lt; ArbiterSelectedVersion \&gt;">
<polygon fill="white" stroke="black" points="180.839,-65.5 180.839,-93.5 315.257,-93.5 315.257,-65.5 180.839,-65.5"/>
<text text-anchor="start" x="188.839" y="-81.5" font-family="Helvetica,sans-Serif" font-size="10.00">Arbiter::SharedUserValue</text>
<text text-anchor="middle" x="248.048" y="-71.5" font-family="Helvetica,sans-Serif" font-size="10.00">&lt; ArbiterSelectedVersion &gt;</text>
</a>
</g>
</g>
<!-- Node5&#45;&gt;Node1 -->
<g id="edge4" class="edge"><title>Node5&#45;&gt;Node1</title>
<path fill="none" stroke="#9a32cd" stroke-dasharray="5,2" d="M231.572,-57.3613C221.431,-44.3499 208.992,-28.3911 201.56,-18.8552"/>
<polygon fill="#9a32cd" stroke="#9a32cd" points="228.921,-59.6532 237.829,-65.3889 234.442,-55.35 228.921,-59.6532"/>
<text text-anchor="middle" x="249.065" y="-39" font-family="Helvetica,sans-Serif" font-size="10.00"> _metadata</text>
</g>
</g>
</svg>
