<?xml version="1.0" encoding="UTF-8" standalone="no"?>
<!DOCTYPE svg PUBLIC "-//W3C//DTD SVG 1.1//EN"
 "http://www.w3.org/Graphics/SVG/1.1/DTD/svg11.dtd">
<!-- Generated by graphviz version 2.38.0 (20140413.2041)
 -->
<!-- Title: ArbiterResolvedDependency Pages: 1 -->
<svg width="598pt" height="172pt"
 viewBox="0.00 0.00 597.73 172.00" xmlns="http://www.w3.org/2000/svg" xmlns:xlink="http://www.w3.org/1999/xlink">
<g id="graph0" class="graph" transform="scale(1 1) rotate(0) translate(4 168)">
<title>ArbiterResolvedDependency</title>
<polygon fill="white" stroke="none" points="-4,4 -4,-168 593.731,-168 593.731,4 -4,4"/>
<!-- Node0 -->
<g id="node1" class="node"><title>Node0</title>
<polygon fill="#bfbfbf" stroke="black" points="446.437,-114.5 446.437,-132.5 589.731,-132.5 589.731,-114.5 446.437,-114.5"/>
<text text-anchor="middle" x="518.084" y="-120.5" font-family="Helvetica,sans-Serif" font-size="10.00">ArbiterResolvedDependency</text>
</g>
<!-- Node1 -->
<g id="node2" class="node"><title>Node1</title>
<g id="a_node2"><a xlink:href="class_arbiter_1_1_base.html" target="_top" xlink:title="Base class for public&#45;facing Arbiter types, such that they automatically get freeing, cloning, equality, and description functionality. ">
<polygon fill="white" stroke="black" points="30.3076,-145.5 30.3076,-163.5 104.11,-163.5 104.11,-145.5 30.3076,-145.5"/>
<text text-anchor="middle" x="67.209" y="-151.5" font-family="Helvetica,sans-Serif" font-size="10.00">Arbiter::Base</text>
</a>
</g>
</g>
<!-- Node1&#45;&gt;Node0 -->
<g id="edge1" class="edge"><title>Node1&#45;&gt;Node0</title>
<path fill="none" stroke="midnightblue" d="M114.351,-157.735C126.709,-158.466 140.066,-159.134 152.418,-159.5 275.428,-163.149 306.487,-154.025 428.437,-137.5 439.399,-136.015 451.099,-134.276 462.285,-132.539"/>
<polygon fill="midnightblue" stroke="midnightblue" points="114.446,-154.234 104.249,-157.111 114.014,-161.221 114.446,-154.234"/>
</g>
<!-- Node2 -->
<g id="node3" class="node"><title>Node2</title>
<g id="a_node3"><a xlink:href="struct_arbiter_selected_version.html" target="_top" xlink:title="Represents a &quot;selected&quot; version, which is a concrete choice of a real project version. ">
<polygon fill="white" stroke="black" points="252.132,-114.5 252.132,-132.5 369.86,-132.5 369.86,-114.5 252.132,-114.5"/>
<text text-anchor="middle" x="310.996" y="-120.5" font-family="Helvetica,sans-Serif" font-size="10.00">ArbiterSelectedVersion</text>
</a>
</g>
</g>
<!-- Node1&#45;&gt;Node2 -->
<g id="edge3" class="edge"><title>Node1&#45;&gt;Node2</title>
<path fill="none" stroke="midnightblue" d="M114.673,-152.277C148.05,-150.268 194.039,-146.654 234.132,-140.5 247.34,-138.473 261.678,-135.471 274.296,-132.552"/>
<polygon fill="midnightblue" stroke="midnightblue" points="114.085,-148.805 104.303,-152.875 114.488,-155.794 114.085,-148.805"/>
</g>
<!-- Node5 -->
<g id="node6" class="node"><title>Node5</title>
<g id="a_node6"><a xlink:href="struct_arbiter_project_identifier.html" target="_top" xlink:title="An opaque value which identifies a project participating in dependency resolution. ">
<polygon fill="white" stroke="black" points="253.531,-77.5 253.531,-95.5 368.461,-95.5 368.461,-77.5 253.531,-77.5"/>
<text text-anchor="middle" x="310.996" y="-83.5" font-family="Helvetica,sans-Serif" font-size="10.00">ArbiterProjectIdentifier</text>
</a>
</g>
</g>
<!-- Node1&#45;&gt;Node5 -->
<g id="edge7" class="edge"><title>Node1&#45;&gt;Node5</title>
<path fill="none" stroke="midnightblue" d="M114.289,-147.719C148.278,-141.758 195.186,-131.495 234.132,-115.5 242.804,-111.938 243.591,-108.366 252.132,-104.5 259.704,-101.073 268.113,-98.0463 276.121,-95.5001"/>
<polygon fill="midnightblue" stroke="midnightblue" points="113.453,-144.311 104.178,-149.432 114.622,-151.212 113.453,-144.311"/>
</g>
<!-- Node2&#45;&gt;Node0 -->
<g id="edge2" class="edge"><title>Node2&#45;&gt;Node0</title>
<path fill="none" stroke="#9a32cd" stroke-dasharray="5,2" d="M380.153,-123.5C401.352,-123.5 424.767,-123.5 446.15,-123.5"/>
<polygon fill="#9a32cd" stroke="#9a32cd" points="379.944,-120 369.944,-123.5 379.944,-127 379.944,-120"/>
<text text-anchor="middle" x="408.148" y="-125.5" font-family="Helvetica,sans-Serif" font-size="10.00"> _version</text>
</g>
<!-- Node3 -->
<g id="node4" class="node"><title>Node3</title>
<g id="a_node4"><a xlink:href="struct_arbiter_1_1_optional.html" target="_top" xlink:title="Arbiter::Optional\&lt;\l ArbiterSemanticVersion \&gt;">
<polygon fill="white" stroke="black" points="1.53564,-94.5 1.53564,-122.5 132.882,-122.5 132.882,-94.5 1.53564,-94.5"/>
<text text-anchor="start" x="9.53564" y="-110.5" font-family="Helvetica,sans-Serif" font-size="10.00">Arbiter::Optional&lt;</text>
<text text-anchor="middle" x="67.209" y="-100.5" font-family="Helvetica,sans-Serif" font-size="10.00"> ArbiterSemanticVersion &gt;</text>
</a>
</g>
</g>
<!-- Node3&#45;&gt;Node2 -->
<g id="edge4" class="edge"><title>Node3&#45;&gt;Node2</title>
<path fill="none" stroke="#9a32cd" stroke-dasharray="5,2" d="M143.2,-113.152C178.275,-115.328 219.405,-117.88 252.046,-119.905"/>
<polygon fill="#9a32cd" stroke="#9a32cd" points="143.201,-109.646 133.003,-112.52 142.768,-116.632 143.201,-109.646"/>
<text text-anchor="middle" x="193.275" y="-121.5" font-family="Helvetica,sans-Serif" font-size="10.00"> _semanticVersion</text>
</g>
<!-- Node4 -->
<g id="node5" class="node"><title>Node4</title>
<g id="a_node5"><a xlink:href="class_arbiter_1_1_shared_user_value.html" target="_top" xlink:title="Arbiter::SharedUserValue\l\&lt; ArbiterSelectedVersion \&gt;">
<polygon fill="white" stroke="black" points="0,-47.5 0,-75.5 134.418,-75.5 134.418,-47.5 0,-47.5"/>
<text text-anchor="start" x="8" y="-63.5" font-family="Helvetica,sans-Serif" font-size="10.00">Arbiter::SharedUserValue</text>
<text text-anchor="middle" x="67.209" y="-53.5" font-family="Helvetica,sans-Serif" font-size="10.00">&lt; ArbiterSelectedVersion &gt;</text>
</a>
</g>
</g>
<!-- Node4&#45;&gt;Node2 -->
<g id="edge5" class="edge"><title>Node4&#45;&gt;Node2</title>
<path fill="none" stroke="#9a32cd" stroke-dasharray="5,2" d="M142.253,-77.8449C171.038,-84.4755 204.224,-92.4601 234.132,-100.5 249.948,-104.752 267.453,-110.021 281.659,-114.442"/>
<polygon fill="#9a32cd" stroke="#9a32cd" points="142.796,-74.3789 132.267,-75.5582 141.234,-81.2022 142.796,-74.3789"/>
<text text-anchor="middle" x="193.275" y="-102.5" font-family="Helvetica,sans-Serif" font-size="10.00"> _metadata</text>
</g>
<!-- Node5&#45;&gt;Node0 -->
<g id="edge6" class="edge"><title>Node5&#45;&gt;Node0</title>
<path fill="none" stroke="#9a32cd" stroke-dasharray="5,2" d="M371.891,-97.3056C402.075,-102.751 438.258,-109.279 466.952,-114.456"/>
<polygon fill="#9a32cd" stroke="#9a32cd" points="372.367,-93.835 361.904,-95.5039 371.124,-100.724 372.367,-93.835"/>
<text text-anchor="middle" x="408.148" y="-109.5" font-family="Helvetica,sans-Serif" font-size="10.00"> _project</text>
</g>
<!-- Node6 -->
<g id="node7" class="node"><title>Node6</title>
<g id="a_node7"><a xlink:href="class_arbiter_1_1_shared_user_value.html" target="_top" xlink:title="Arbiter::SharedUserValue\l\&lt; ArbiterProjectIdentifier \&gt;">
<polygon fill="white" stroke="black" points="1.39893,-0.5 1.39893,-28.5 133.019,-28.5 133.019,-0.5 1.39893,-0.5"/>
<text text-anchor="start" x="9.39893" y="-16.5" font-family="Helvetica,sans-Serif" font-size="10.00">Arbiter::SharedUserValue</text>
<text text-anchor="middle" x="67.209" y="-6.5" font-family="Helvetica,sans-Serif" font-size="10.00">&lt; ArbiterProjectIdentifier &gt;</text>
</a>
</g>
</g>
<!-- Node6&#45;&gt;Node5 -->
<g id="edge8" class="edge"><title>Node6&#45;&gt;Node5</title>
<path fill="none" stroke="#9a32cd" stroke-dasharray="5,2" d="M125.114,-31.4454C173.505,-45.8555 241.114,-65.988 279.739,-77.4899"/>
<polygon fill="#9a32cd" stroke="#9a32cd" points="125.985,-28.0529 115.402,-28.5532 123.987,-34.7617 125.985,-28.0529"/>
<text text-anchor="middle" x="193.275" y="-65.5" font-family="Helvetica,sans-Serif" font-size="10.00"> _value</text>
</g>
</g>
</svg>
