<?xml version="1.0" encoding="UTF-8" standalone="no"?>
<!DOCTYPE svg PUBLIC "-//W3C//DTD SVG 1.1//EN"
 "http://www.w3.org/Graphics/SVG/1.1/DTD/svg11.dtd">
<!-- Generated by graphviz version 2.38.0 (20140413.2041)
 -->
<!-- Title: ArbiterResolverBehaviors Pages: 1 -->
<svg width="1408pt" height="153pt"
 viewBox="0.00 0.00 1408.39 153.00" xmlns="http://www.w3.org/2000/svg" xmlns:xlink="http://www.w3.org/1999/xlink">
<g id="graph0" class="graph" transform="scale(1 1) rotate(0) translate(4 149)">
<title>ArbiterResolverBehaviors</title>
<polygon fill="white" stroke="none" points="-4,4 -4,-149 1404.39,-149 1404.39,4 -4,4"/>
<!-- Node1 -->
<g id="node1" class="node"><title>Node1</title>
<polygon fill="#bfbfbf" stroke="black" points="1271.01,-27.5 1271.01,-45.5 1400.39,-45.5 1400.39,-27.5 1271.01,-27.5"/>
<text text-anchor="middle" x="1335.7" y="-33.5" font-family="Helvetica,sans-Serif" font-size="10.00">ArbiterResolverBehaviors</text>
</g>
<!-- Node2 -->
<g id="node2" class="node"><title>Node2</title>
<g id="a_node2"><a xlink:href="struct_arbiter_selected_version_list.html" target="_top" xlink:title="Represents a list of selected versions. ">
<polygon fill="white" stroke="black" points="976.823,-45.5 976.823,-63.5 1110.11,-63.5 1110.11,-45.5 976.823,-45.5"/>
<text text-anchor="middle" x="1043.47" y="-51.5" font-family="Helvetica,sans-Serif" font-size="10.00">ArbiterSelectedVersionList</text>
</a>
</g>
</g>
<!-- Node2&#45;&gt;Node1 -->
<g id="edge1" class="edge"><title>Node2&#45;&gt;Node1</title>
<path fill="none" stroke="#9a32cd" stroke-dasharray="5,2" d="M1120.39,-49.7912C1167.09,-46.895 1226.27,-43.2249 1270.6,-40.4754"/>
<polygon fill="#9a32cd" stroke="#9a32cd" points="1120.09,-46.3031 1110.33,-50.4155 1120.52,-53.2897 1120.09,-46.3031"/>
<text text-anchor="middle" x="1190.56" y="-50.5" font-family="Helvetica,sans-Serif" font-size="10.00"> createAvailableVersionsList</text>
</g>
<!-- Node3 -->
<g id="node3" class="node"><title>Node3</title>
<polygon fill="white" stroke="#bfbfbf" points="718.712,-42.5 718.712,-70.5 857.281,-70.5 857.281,-42.5 718.712,-42.5"/>
<text text-anchor="start" x="726.712" y="-58.5" font-family="Helvetica,sans-Serif" font-size="10.00">std::vector&lt; ArbiterSelected</text>
<text text-anchor="middle" x="787.997" y="-48.5" font-family="Helvetica,sans-Serif" font-size="10.00">Version &gt;</text>
</g>
<!-- Node3&#45;&gt;Node2 -->
<g id="edge2" class="edge"><title>Node3&#45;&gt;Node2</title>
<path fill="none" stroke="#9a32cd" stroke-dasharray="5,2" d="M867.739,-55.8787C902.617,-55.6035 943.184,-55.2834 976.445,-55.0209"/>
<polygon fill="#9a32cd" stroke="#9a32cd" points="867.562,-52.3799 857.59,-55.9588 867.617,-59.3797 867.562,-52.3799"/>
<text text-anchor="middle" x="923.516" y="-57.5" font-family="Helvetica,sans-Serif" font-size="10.00"> _versions</text>
</g>
<!-- Node4 -->
<g id="node4" class="node"><title>Node4</title>
<g id="a_node4"><a xlink:href="struct_arbiter_selected_version.html" target="_top" xlink:title="Represents a &quot;selected&quot; version, which is a concrete choice of a real project version. ">
<polygon fill="white" stroke="black" points="508.702,-47.5 508.702,-65.5 626.431,-65.5 626.431,-47.5 508.702,-47.5"/>
<text text-anchor="middle" x="567.566" y="-53.5" font-family="Helvetica,sans-Serif" font-size="10.00">ArbiterSelectedVersion</text>
</a>
</g>
</g>
<!-- Node4&#45;&gt;Node3 -->
<g id="edge3" class="edge"><title>Node4&#45;&gt;Node3</title>
<path fill="none" stroke="#9a32cd" stroke-dasharray="5,2" d="M636.709,-56.5C662.803,-56.5 692.559,-56.5 718.67,-56.5"/>
<polygon fill="#9a32cd" stroke="#9a32cd" points="636.528,-53.0001 626.528,-56.5 636.528,-60.0001 636.528,-53.0001"/>
<text text-anchor="middle" x="666.108" y="-58.5" font-family="Helvetica,sans-Serif" font-size="10.00"> elements</text>
</g>
<!-- Node5 -->
<g id="node5" class="node"><title>Node5</title>
<g id="a_node5"><a xlink:href="struct_arbiter_semantic_version.html" target="_top" xlink:title="Represents a semantic version, as defined by semver.org. ">
<polygon fill="white" stroke="black" points="263.531,-89.5 263.531,-107.5 384.028,-107.5 384.028,-89.5 263.531,-89.5"/>
<text text-anchor="middle" x="323.779" y="-95.5" font-family="Helvetica,sans-Serif" font-size="10.00">ArbiterSemanticVersion</text>
</a>
</g>
</g>
<!-- Node5&#45;&gt;Node4 -->
<g id="edge4" class="edge"><title>Node5&#45;&gt;Node4</title>
<path fill="none" stroke="#9a32cd" stroke-dasharray="5,2" d="M389.87,-87.7525C420.488,-82.6363 457.49,-76.3665 490.702,-70.5 499.539,-68.9391 508.947,-67.2363 518.021,-65.5728"/>
<polygon fill="#9a32cd" stroke="#9a32cd" points="389.034,-84.3436 379.746,-89.4411 390.185,-91.2482 389.034,-84.3436"/>
<text text-anchor="middle" x="449.845" y="-86.5" font-family="Helvetica,sans-Serif" font-size="10.00"> _semanticVersion</text>
</g>
<!-- Node6 -->
<g id="node6" class="node"><title>Node6</title>
<g id="a_node6"><a xlink:href="struct_arbiter_1_1_optional.html" target="_top" xlink:title="Arbiter::Optional\&lt;\l std::string \&gt;">
<polygon fill="white" stroke="black" points="18.7622,-116.5 18.7622,-144.5 112.858,-144.5 112.858,-116.5 18.7622,-116.5"/>
<text text-anchor="start" x="26.7622" y="-132.5" font-family="Helvetica,sans-Serif" font-size="10.00">Arbiter::Optional&lt;</text>
<text text-anchor="middle" x="65.8101" y="-122.5" font-family="Helvetica,sans-Serif" font-size="10.00"> std::string &gt;</text>
</a>
</g>
</g>
<!-- Node6&#45;&gt;Node5 -->
<g id="edge5" class="edge"><title>Node6&#45;&gt;Node5</title>
<path fill="none" stroke="#9a32cd" stroke-dasharray="5,2" d="M122.81,-123.499C164.302,-118.312 220.753,-111.255 263.096,-105.961"/>
<polygon fill="#9a32cd" stroke="#9a32cd" points="122.356,-120.029 112.868,-124.742 123.225,-126.974 122.356,-120.029"/>
<text text-anchor="middle" x="194.095" y="-130.5" font-family="Helvetica,sans-Serif" font-size="10.00"> _prereleaseVersion</text>
<text text-anchor="middle" x="194.095" y="-120.5" font-family="Helvetica,sans-Serif" font-size="10.00">_buildMetadata</text>
</g>
<!-- Node7 -->
<g id="node7" class="node"><title>Node7</title>
<polygon fill="white" stroke="#bfbfbf" points="37.5146,-68.5 37.5146,-86.5 94.1055,-86.5 94.1055,-68.5 37.5146,-68.5"/>
<text text-anchor="middle" x="65.8101" y="-74.5" font-family="Helvetica,sans-Serif" font-size="10.00">unsigned</text>
</g>
<!-- Node7&#45;&gt;Node5 -->
<g id="edge6" class="edge"><title>Node7&#45;&gt;Node5</title>
<path fill="none" stroke="#9a32cd" stroke-dasharray="5,2" d="M104.512,-75.2701C139.415,-73.785 192.688,-72.9907 238.57,-78.5 256.622,-80.6676 276.422,-85.2542 292.285,-89.4889"/>
<polygon fill="#9a32cd" stroke="#9a32cd" points="104.124,-71.7843 94.298,-75.7469 104.45,-78.7767 104.124,-71.7843"/>
<text text-anchor="middle" x="194.095" y="-100.5" font-family="Helvetica,sans-Serif" font-size="10.00"> _minor</text>
<text text-anchor="middle" x="194.095" y="-90.5" font-family="Helvetica,sans-Serif" font-size="10.00">_patch</text>
<text text-anchor="middle" x="194.095" y="-80.5" font-family="Helvetica,sans-Serif" font-size="10.00">_major</text>
</g>
<!-- Node8 -->
<g id="node8" class="node"><title>Node8</title>
<g id="a_node8"><a xlink:href="class_arbiter_1_1_shared_user_value.html" target="_top" xlink:title="Arbiter::SharedUserValue\l\&lt; ArbiterSelectedVersion \&gt;">
<polygon fill="white" stroke="black" points="256.57,-42.5 256.57,-70.5 390.988,-70.5 390.988,-42.5 256.57,-42.5"/>
<text text-anchor="start" x="264.57" y="-58.5" font-family="Helvetica,sans-Serif" font-size="10.00">Arbiter::SharedUserValue</text>
<text text-anchor="middle" x="323.779" y="-48.5" font-family="Helvetica,sans-Serif" font-size="10.00">&lt; ArbiterSelectedVersion &gt;</text>
</a>
</g>
</g>
<!-- Node8&#45;&gt;Node4 -->
<g id="edge7" class="edge"><title>Node8&#45;&gt;Node4</title>
<path fill="none" stroke="#9a32cd" stroke-dasharray="5,2" d="M401.271,-56.5C435.992,-56.5 476.386,-56.5 508.552,-56.5"/>
<polygon fill="#9a32cd" stroke="#9a32cd" points="401.169,-53.0001 391.168,-56.5 401.168,-60.0001 401.169,-53.0001"/>
<text text-anchor="middle" x="449.845" y="-58.5" font-family="Helvetica,sans-Serif" font-size="10.00"> _metadata</text>
</g>
<!-- Node9 -->
<g id="node9" class="node"><title>Node9</title>
<g id="a_node9"><a xlink:href="struct_arbiter_dependency_list.html" target="_top" xlink:title="Represents a list of dependencies. ">
<polygon fill="white" stroke="black" points="984.885,-8.5 984.885,-26.5 1102.05,-26.5 1102.05,-8.5 984.885,-8.5"/>
<text text-anchor="middle" x="1043.47" y="-14.5" font-family="Helvetica,sans-Serif" font-size="10.00">ArbiterDependencyList</text>
</a>
</g>
</g>
<!-- Node9&#45;&gt;Node1 -->
<g id="edge8" class="edge"><title>Node9&#45;&gt;Node1</title>
<path fill="none" stroke="#9a32cd" stroke-dasharray="5,2" d="M1112.17,-19.6869C1153.01,-21.2695 1206.04,-23.7901 1253.01,-27.5 1258.84,-27.9606 1264.9,-28.5046 1270.97,-29.0933"/>
<polygon fill="#9a32cd" stroke="#9a32cd" points="1112.19,-16.1852 1102.06,-19.3046 1111.93,-23.1802 1112.19,-16.1852"/>
<text text-anchor="middle" x="1190.56" y="-29.5" font-family="Helvetica,sans-Serif" font-size="10.00"> createDependencyList</text>
</g>
<!-- Node10 -->
<g id="node10" class="node"><title>Node10</title>
<polygon fill="white" stroke="#bfbfbf" points="705.785,-5.5 705.785,-23.5 870.208,-23.5 870.208,-5.5 705.785,-5.5"/>
<text text-anchor="middle" x="787.997" y="-11.5" font-family="Helvetica,sans-Serif" font-size="10.00">std::vector&lt; ArbiterDependency &gt;</text>
</g>
<!-- Node10&#45;&gt;Node9 -->
<g id="edge9" class="edge"><title>Node10&#45;&gt;Node9</title>
<path fill="none" stroke="#9a32cd" stroke-dasharray="5,2" d="M880.408,-15.5819C915.152,-15.9931 953.746,-16.4499 984.553,-16.8145"/>
<polygon fill="#9a32cd" stroke="#9a32cd" points="880.283,-12.0803 870.242,-15.4616 880.2,-19.0798 880.283,-12.0803"/>
<text text-anchor="middle" x="923.516" y="-17.5" font-family="Helvetica,sans-Serif" font-size="10.00"> _dependencies</text>
</g>
<!-- Node11 -->
<g id="node11" class="node"><title>Node11</title>
<g id="a_node11"><a xlink:href="struct_arbiter_dependency.html" target="_top" xlink:title="Represents a dependency specification, which consists of a project identifier and a version requireme...">
<polygon fill="white" stroke="black" points="516.764,-5.5 516.764,-23.5 618.369,-23.5 618.369,-5.5 516.764,-5.5"/>
<text text-anchor="middle" x="567.566" y="-11.5" font-family="Helvetica,sans-Serif" font-size="10.00">ArbiterDependency</text>
</a>
</g>
</g>
<!-- Node11&#45;&gt;Node10 -->
<g id="edge10" class="edge"><title>Node11&#45;&gt;Node10</title>
<path fill="none" stroke="#9a32cd" stroke-dasharray="5,2" d="M628.684,-14.5C652.463,-14.5 680.163,-14.5 705.685,-14.5"/>
<polygon fill="#9a32cd" stroke="#9a32cd" points="628.405,-11.0001 618.405,-14.5 628.405,-18.0001 628.405,-11.0001"/>
<text text-anchor="middle" x="666.108" y="-16.5" font-family="Helvetica,sans-Serif" font-size="10.00"> elements</text>
</g>
<!-- Node12 -->
<g id="node12" class="node"><title>Node12</title>
<g id="a_node12"><a xlink:href="struct_arbiter_project_identifier.html" target="_top" xlink:title="An opaque value which identifies a project participating in dependency resolution. ">
<polygon fill="white" stroke="black" points="266.314,-5.5 266.314,-23.5 381.245,-23.5 381.245,-5.5 266.314,-5.5"/>
<text text-anchor="middle" x="323.779" y="-11.5" font-family="Helvetica,sans-Serif" font-size="10.00">ArbiterProjectIdentifier</text>
</a>
</g>
</g>
<!-- Node12&#45;&gt;Node11 -->
<g id="edge11" class="edge"><title>Node12&#45;&gt;Node11</title>
<path fill="none" stroke="#9a32cd" stroke-dasharray="5,2" d="M391.543,-14.5C431.028,-14.5 480.22,-14.5 516.389,-14.5"/>
<polygon fill="#9a32cd" stroke="#9a32cd" points="391.468,-11.0001 381.468,-14.5 391.468,-18.0001 391.468,-11.0001"/>
<text text-anchor="middle" x="449.845" y="-16.5" font-family="Helvetica,sans-Serif" font-size="10.00"> _projectIdentifier</text>
</g>
<!-- Node13 -->
<g id="node13" class="node"><title>Node13</title>
<g id="a_node13"><a xlink:href="class_arbiter_1_1_shared_user_value.html" target="_top" xlink:title="Arbiter::SharedUserValue\l\&lt; ArbiterProjectIdentifier \&gt;">
<polygon fill="white" stroke="black" points="0,-0.5 0,-28.5 131.62,-28.5 131.62,-0.5 0,-0.5"/>
<text text-anchor="start" x="8" y="-16.5" font-family="Helvetica,sans-Serif" font-size="10.00">Arbiter::SharedUserValue</text>
<text text-anchor="middle" x="65.8101" y="-6.5" font-family="Helvetica,sans-Serif" font-size="10.00">&lt; ArbiterProjectIdentifier &gt;</text>
</a>
</g>
</g>
<!-- Node13&#45;&gt;Node12 -->
<g id="edge12" class="edge"><title>Node13&#45;&gt;Node12</title>
<path fill="none" stroke="#9a32cd" stroke-dasharray="5,2" d="M141.909,-14.5C181.646,-14.5 229.635,-14.5 266.195,-14.5"/>
<polygon fill="#9a32cd" stroke="#9a32cd" points="141.733,-11.0001 131.733,-14.5 141.733,-18.0001 141.733,-11.0001"/>
<text text-anchor="middle" x="194.095" y="-16.5" font-family="Helvetica,sans-Serif" font-size="10.00"> _value</text>
</g>
</g>
</svg>
