<?xml version="1.0" encoding="UTF-8" standalone="no"?>
<!DOCTYPE svg PUBLIC "-//W3C//DTD SVG 1.1//EN"
 "http://www.w3.org/Graphics/SVG/1.1/DTD/svg11.dtd">
<!-- Generated by graphviz version 2.38.0 (20140413.2041)
 -->
<!-- Title: ArbiterSelectedVersionList Pages: 1 -->
<svg width="323pt" height="337pt"
 viewBox="0.00 0.00 323.26 337.00" xmlns="http://www.w3.org/2000/svg" xmlns:xlink="http://www.w3.org/1999/xlink">
<g id="graph0" class="graph" transform="scale(1 1) rotate(0) translate(4 333)">
<title>ArbiterSelectedVersionList</title>
<polygon fill="white" stroke="none" points="-4,4 -4,-333 319.257,-333 319.257,4 -4,4"/>
<!-- Node1 -->
<g id="node1" class="node"><title>Node1</title>
<polygon fill="#bfbfbf" stroke="black" points="128.403,-0.5 128.403,-18.5 261.693,-18.5 261.693,-0.5 128.403,-0.5"/>
<text text-anchor="middle" x="195.048" y="-6.5" font-family="Helvetica,sans-Serif" font-size="10.00">ArbiterSelectedVersionList</text>
</g>
<!-- Node2 -->
<g id="node2" class="node"><title>Node2</title>
<polygon fill="white" stroke="#bfbfbf" points="125.764,-65.5 125.764,-93.5 264.332,-93.5 264.332,-65.5 125.764,-65.5"/>
<text text-anchor="start" x="133.764" y="-81.5" font-family="Helvetica,sans-Serif" font-size="10.00">std::vector&lt; ArbiterSelected</text>
<text text-anchor="middle" x="195.048" y="-71.5" font-family="Helvetica,sans-Serif" font-size="10.00">Version &gt;</text>
</g>
<!-- Node2&#45;&gt;Node1 -->
<g id="edge1" class="edge"><title>Node2&#45;&gt;Node1</title>
<path fill="none" stroke="#9a32cd" stroke-dasharray="5,2" d="M195.048,-55.1036C195.048,-42.547 195.048,-27.8462 195.048,-18.8552"/>
<polygon fill="#9a32cd" stroke="#9a32cd" points="191.548,-55.3889 195.048,-65.3889 198.548,-55.389 191.548,-55.3889"/>
<text text-anchor="middle" x="217.836" y="-39" font-family="Helvetica,sans-Serif" font-size="10.00"> _versions</text>
</g>
<!-- Node3 -->
<g id="node3" class="node"><title>Node3</title>
<g id="a_node3"><a xlink:href="struct_arbiter_selected_version.html" target="_top" xlink:title="Represents a &quot;selected&quot; version, which is a concrete choice of a real project version. ">
<polygon fill="white" stroke="black" points="136.184,-140.5 136.184,-158.5 253.912,-158.5 253.912,-140.5 136.184,-140.5"/>
<text text-anchor="middle" x="195.048" y="-146.5" font-family="Helvetica,sans-Serif" font-size="10.00">ArbiterSelectedVersion</text>
</a>
</g>
</g>
<!-- Node3&#45;&gt;Node2 -->
<g id="edge2" class="edge"><title>Node3&#45;&gt;Node2</title>
<path fill="none" stroke="#9a32cd" stroke-dasharray="5,2" d="M195.048,-130.209C195.048,-118.686 195.048,-104.078 195.048,-93.6867"/>
<polygon fill="#9a32cd" stroke="#9a32cd" points="191.548,-130.432 195.048,-140.432 198.548,-130.433 191.548,-130.432"/>
<text text-anchor="middle" x="216.725" y="-114" font-family="Helvetica,sans-Serif" font-size="10.00"> elements</text>
</g>
<!-- Node4 -->
<g id="node4" class="node"><title>Node4</title>
<g id="a_node4"><a xlink:href="struct_arbiter_semantic_version.html" target="_top" xlink:title="Represents a semantic version, as defined by semver.org. ">
<polygon fill="white" stroke="black" points="42.7993,-210.5 42.7993,-228.5 163.296,-228.5 163.296,-210.5 42.7993,-210.5"/>
<text text-anchor="middle" x="103.048" y="-216.5" font-family="Helvetica,sans-Serif" font-size="10.00">ArbiterSemanticVersion</text>
</a>
</g>
</g>
<!-- Node4&#45;&gt;Node3 -->
<g id="edge3" class="edge"><title>Node4&#45;&gt;Node3</title>
<path fill="none" stroke="#9a32cd" stroke-dasharray="5,2" d="M111.555,-201.555C116.414,-193.257 123.169,-183.648 131.334,-177 141.46,-168.755 154.514,-162.727 166.167,-158.523"/>
<polygon fill="#9a32cd" stroke="#9a32cd" points="108.429,-199.978 106.75,-210.439 114.586,-203.308 108.429,-199.978"/>
<text text-anchor="middle" x="172.905" y="-179" font-family="Helvetica,sans-Serif" font-size="10.00"> _semanticVersion</text>
</g>
<!-- Node5 -->
<g id="node5" class="node"><title>Node5</title>
<g id="a_node5"><a xlink:href="struct_arbiter_1_1_optional.html" target="_top" xlink:title="Arbiter::Optional\&lt;\l std::string \&gt;">
<polygon fill="white" stroke="black" points="0,-300.5 0,-328.5 94.0957,-328.5 94.0957,-300.5 0,-300.5"/>
<text text-anchor="start" x="8" y="-316.5" font-family="Helvetica,sans-Serif" font-size="10.00">Arbiter::Optional&lt;</text>
<text text-anchor="middle" x="47.0479" y="-306.5" font-family="Helvetica,sans-Serif" font-size="10.00"> std::string &gt;</text>
</a>
</g>
</g>
<!-- Node5&#45;&gt;Node4 -->
<g id="edge4" class="edge"><title>Node5&#45;&gt;Node4</title>
<path fill="none" stroke="#9a32cd" stroke-dasharray="5,2" d="M42.2167,-290.328C40.9068,-278.126 41.3753,-263.377 48.0977,-252 54.5865,-241.018 66.4773,-233.521 77.5423,-228.605"/>
<polygon fill="#9a32cd" stroke="#9a32cd" points="38.7604,-290.881 43.7133,-300.247 45.6821,-289.836 38.7604,-290.881"/>
<text text-anchor="middle" x="93.5229" y="-269" font-family="Helvetica,sans-Serif" font-size="10.00"> _prereleaseVersion</text>
<text text-anchor="middle" x="93.5229" y="-259" font-family="Helvetica,sans-Serif" font-size="10.00">_buildMetadata</text>
</g>
<!-- Node6 -->
<g id="node6" class="node"><title>Node6</title>
<polygon fill="white" stroke="#bfbfbf" points="130.752,-305.5 130.752,-323.5 187.343,-323.5 187.343,-305.5 130.752,-305.5"/>
<text text-anchor="middle" x="159.048" y="-311.5" font-family="Helvetica,sans-Serif" font-size="10.00">unsigned</text>
</g>
<!-- Node6&#45;&gt;Node4 -->
<g id="edge5" class="edge"><title>Node6&#45;&gt;Node4</title>
<path fill="none" stroke="#9a32cd" stroke-dasharray="5,2" d="M155.034,-295.432C151.617,-282.587 145.843,-265.321 137.048,-252 130.929,-242.733 121.527,-234.304 114.16,-228.501"/>
<polygon fill="#9a32cd" stroke="#9a32cd" points="151.687,-296.479 157.446,-305.372 158.489,-294.828 151.687,-296.479"/>
<text text-anchor="middle" x="167.72" y="-274" font-family="Helvetica,sans-Serif" font-size="10.00"> _minor</text>
<text text-anchor="middle" x="167.72" y="-264" font-family="Helvetica,sans-Serif" font-size="10.00">_patch</text>
<text text-anchor="middle" x="167.72" y="-254" font-family="Helvetica,sans-Serif" font-size="10.00">_major</text>
</g>
<!-- Node7 -->
<g id="node7" class="node"><title>Node7</title>
<g id="a_node7"><a xlink:href="class_arbiter_1_1_shared_user_value.html" target="_top" xlink:title="Arbiter::SharedUserValue\l\&lt; ArbiterSelectedVersion \&gt;">
<polygon fill="white" stroke="black" points="180.839,-205.5 180.839,-233.5 315.257,-233.5 315.257,-205.5 180.839,-205.5"/>
<text text-anchor="start" x="188.839" y="-221.5" font-family="Helvetica,sans-Serif" font-size="10.00">Arbiter::SharedUserValue</text>
<text text-anchor="middle" x="248.048" y="-211.5" font-family="Helvetica,sans-Serif" font-size="10.00">&lt; ArbiterSelectedVersion &gt;</text>
</a>
</g>
</g>
<!-- Node7&#45;&gt;Node3 -->
<g id="edge6" class="edge"><title>Node7&#45;&gt;Node3</title>
<path fill="none" stroke="#9a32cd" stroke-dasharray="5,2" d="M231.572,-197.361C221.431,-184.35 208.992,-168.391 201.56,-158.855"/>
<polygon fill="#9a32cd" stroke="#9a32cd" points="228.921,-199.653 237.829,-205.389 234.442,-195.35 228.921,-199.653"/>
<text text-anchor="middle" x="249.065" y="-179" font-family="Helvetica,sans-Serif" font-size="10.00"> _metadata</text>
</g>
</g>
</svg>
