<?xml version="1.0" encoding="UTF-8" standalone="no"?>
<!DOCTYPE svg PUBLIC "-//W3C//DTD SVG 1.1//EN"
 "http://www.w3.org/Graphics/SVG/1.1/DTD/svg11.dtd">
<!-- Generated by graphviz version 2.38.0 (20140413.2041)
 -->
<!-- Title: ArbiterResolverBehaviors Pages: 1 -->
<svg width="1374pt" height="281pt"
 viewBox="0.00 0.00 1374.31 281.00" xmlns="http://www.w3.org/2000/svg" xmlns:xlink="http://www.w3.org/1999/xlink">
<g id="graph0" class="graph" transform="scale(1 1) rotate(0) translate(4 277)">
<title>ArbiterResolverBehaviors</title>
<polygon fill="white" stroke="none" points="-4,4 -4,-277 1370.31,-277 1370.31,4 -4,4"/>
<!-- Node0 -->
<g id="node1" class="node"><title>Node0</title>
<polygon fill="#bfbfbf" stroke="black" points="1236.93,-148.5 1236.93,-166.5 1366.31,-166.5 1366.31,-148.5 1236.93,-148.5"/>
<text text-anchor="middle" x="1301.62" y="-154.5" font-family="Helvetica,sans-Serif" font-size="10.00">ArbiterResolverBehaviors</text>
</g>
<!-- Node1 -->
<g id="node2" class="node"><title>Node1</title>
<g id="a_node2"><a xlink:href="struct_arbiter_selected_version.html" target="_top" xlink:title="Represents a &quot;selected&quot; version, which is a concrete choice of a real project version. ">
<polygon fill="white" stroke="black" points="252.132,-202.5 252.132,-220.5 369.86,-220.5 369.86,-202.5 252.132,-202.5"/>
<text text-anchor="middle" x="310.996" y="-208.5" font-family="Helvetica,sans-Serif" font-size="10.00">ArbiterSelectedVersion</text>
</a>
</g>
</g>
<!-- Node1&#45;&gt;Node0 -->
<g id="edge1" class="edge"><title>Node1&#45;&gt;Node0</title>
<path fill="none" stroke="#9a32cd" stroke-dasharray="5,2" d="M370.237,-222.175C418.464,-230.086 488.876,-239.5 550.854,-239.5 550.854,-239.5 550.854,-239.5 1037.2,-239.5 1134.43,-239.5 1243.1,-187.938 1283.93,-166.589"/>
<polygon fill="#9a32cd" stroke="#9a32cd" points="370.734,-218.709 360.294,-220.514 369.58,-225.614 370.734,-218.709"/>
<text text-anchor="start" x="726.002" y="-251.5" font-family="Helvetica,sans-Serif" font-size="10.00"> createSelectedVersionFor</text>
<text text-anchor="middle" x="784.925" y="-241.5" font-family="Helvetica,sans-Serif" font-size="10.00">Metadata</text>
</g>
<!-- Node6 -->
<g id="node7" class="node"><title>Node6</title>
<polygon fill="white" stroke="#bfbfbf" points="482.569,-182.5 482.569,-210.5 621.138,-210.5 621.138,-182.5 482.569,-182.5"/>
<text text-anchor="start" x="490.569" y="-198.5" font-family="Helvetica,sans-Serif" font-size="10.00">std::vector&lt; ArbiterSelected</text>
<text text-anchor="middle" x="551.854" y="-188.5" font-family="Helvetica,sans-Serif" font-size="10.00">Version &gt;</text>
</g>
<!-- Node1&#45;&gt;Node6 -->
<g id="edge8" class="edge"><title>Node1&#45;&gt;Node6</title>
<path fill="none" stroke="#9a32cd" stroke-dasharray="5,2" d="M380.276,-207.212C412.25,-205.204 450.256,-202.817 482.268,-200.807"/>
<polygon fill="#9a32cd" stroke="#9a32cd" points="379.883,-203.73 370.122,-207.85 380.321,-210.716 379.883,-203.73"/>
<text text-anchor="middle" x="426.215" y="-209.5" font-family="Helvetica,sans-Serif" font-size="10.00"> elements</text>
</g>
<!-- Node2 -->
<g id="node3" class="node"><title>Node2</title>
<g id="a_node3"><a xlink:href="class_arbiter_1_1_base.html" target="_top" xlink:title="Base class for public&#45;facing Arbiter types, such that they automatically get freeing, cloning, equality, and description functionality. ">
<polygon fill="white" stroke="black" points="30.3076,-106.5 30.3076,-124.5 104.11,-124.5 104.11,-106.5 30.3076,-106.5"/>
<text text-anchor="middle" x="67.209" y="-112.5" font-family="Helvetica,sans-Serif" font-size="10.00">Arbiter::Base</text>
</a>
</g>
</g>
<!-- Node2&#45;&gt;Node1 -->
<g id="edge2" class="edge"><title>Node2&#45;&gt;Node1</title>
<path fill="none" stroke="midnightblue" d="M89.819,-130C106.401,-140.643 130.152,-154.864 152.418,-164.5 191.194,-181.281 237.802,-194.368 270.227,-202.423"/>
<polygon fill="midnightblue" stroke="midnightblue" points="91.6871,-127.04 81.3994,-124.508 87.8624,-132.903 91.6871,-127.04"/>
</g>
<!-- Node5 -->
<g id="node6" class="node"><title>Node5</title>
<g id="a_node6"><a xlink:href="struct_arbiter_selected_version_list.html" target="_top" xlink:title="Represents a list of selected versions. ">
<polygon fill="white" stroke="black" points="718.28,-148.5 718.28,-166.5 851.57,-166.5 851.57,-148.5 718.28,-148.5"/>
<text text-anchor="middle" x="784.925" y="-154.5" font-family="Helvetica,sans-Serif" font-size="10.00">ArbiterSelectedVersionList</text>
</a>
</g>
</g>
<!-- Node2&#45;&gt;Node5 -->
<g id="edge6" class="edge"><title>Node2&#45;&gt;Node5</title>
<path fill="none" stroke="midnightblue" d="M114.316,-121.545C126.674,-123.009 140.04,-124.453 152.418,-125.5 358.338,-142.924 602.893,-152.026 717.913,-155.624"/>
<polygon fill="midnightblue" stroke="midnightblue" points="114.564,-118.05 104.215,-120.318 113.72,-124.999 114.564,-118.05"/>
</g>
<!-- Node7 -->
<g id="node8" class="node"><title>Node7</title>
<g id="a_node8"><a xlink:href="struct_arbiter_dependency_list.html" target="_top" xlink:title="Represents a list of dependencies. ">
<polygon fill="white" stroke="black" points="977.617,-88.5 977.617,-106.5 1094.78,-106.5 1094.78,-88.5 977.617,-88.5"/>
<text text-anchor="middle" x="1036.2" y="-94.5" font-family="Helvetica,sans-Serif" font-size="10.00">ArbiterDependencyList</text>
</a>
</g>
</g>
<!-- Node2&#45;&gt;Node7 -->
<g id="edge10" class="edge"><title>Node2&#45;&gt;Node7</title>
<path fill="none" stroke="midnightblue" d="M93.5947,-101.866C136.756,-79.9948 227.771,-39.5 309.996,-39.5 309.996,-39.5 309.996,-39.5 785.925,-39.5 871.237,-39.5 968.798,-72.125 1012.25,-88.4375"/>
<polygon fill="midnightblue" stroke="midnightblue" points="91.9289,-98.7871 84.6475,-106.483 95.1391,-105.008 91.9289,-98.7871"/>
</g>
<!-- Node9 -->
<g id="node10" class="node"><title>Node9</title>
<g id="a_node10"><a xlink:href="struct_arbiter_dependency.html" target="_top" xlink:title="Represents a dependency specification, which consists of a project identifier and a version requireme...">
<polygon fill="white" stroke="black" points="501.051,-88.5 501.051,-106.5 602.656,-106.5 602.656,-88.5 501.051,-88.5"/>
<text text-anchor="middle" x="551.854" y="-94.5" font-family="Helvetica,sans-Serif" font-size="10.00">ArbiterDependency</text>
</a>
</g>
</g>
<!-- Node2&#45;&gt;Node9 -->
<g id="edge13" class="edge"><title>Node2&#45;&gt;Node9</title>
<path fill="none" stroke="midnightblue" d="M114.648,-114.026C188.679,-111.638 338.013,-106.668 464.569,-101.5 476.256,-101.023 488.832,-100.465 500.669,-99.92"/>
<polygon fill="midnightblue" stroke="midnightblue" points="114.166,-110.539 104.283,-114.359 114.391,-117.536 114.166,-110.539"/>
</g>
<!-- Node10 -->
<g id="node11" class="node"><title>Node10</title>
<g id="a_node11"><a xlink:href="struct_arbiter_project_identifier.html" target="_top" xlink:title="An opaque value which identifies a project participating in dependency resolution. ">
<polygon fill="white" stroke="black" points="253.531,-68.5 253.531,-86.5 368.461,-86.5 368.461,-68.5 253.531,-68.5"/>
<text text-anchor="middle" x="310.996" y="-74.5" font-family="Helvetica,sans-Serif" font-size="10.00">ArbiterProjectIdentifier</text>
</a>
</g>
</g>
<!-- Node2&#45;&gt;Node10 -->
<g id="edge15" class="edge"><title>Node2&#45;&gt;Node10</title>
<path fill="none" stroke="midnightblue" d="M114.354,-107.712C126.713,-105.658 140.069,-103.467 152.418,-101.5 185.895,-96.168 223.415,-90.4435 253.444,-85.9229"/>
<polygon fill="midnightblue" stroke="midnightblue" points="113.54,-104.299 104.252,-109.397 114.692,-111.204 113.54,-104.299"/>
</g>
<!-- Node3 -->
<g id="node4" class="node"><title>Node3</title>
<g id="a_node4"><a xlink:href="struct_arbiter_1_1_optional.html" target="_top" xlink:title="Arbiter::Optional\&lt;\l ArbiterSemanticVersion \&gt;">
<polygon fill="white" stroke="black" points="1.53564,-244.5 1.53564,-272.5 132.882,-272.5 132.882,-244.5 1.53564,-244.5"/>
<text text-anchor="start" x="9.53564" y="-260.5" font-family="Helvetica,sans-Serif" font-size="10.00">Arbiter::Optional&lt;</text>
<text text-anchor="middle" x="67.209" y="-250.5" font-family="Helvetica,sans-Serif" font-size="10.00"> ArbiterSemanticVersion &gt;</text>
</a>
</g>
</g>
<!-- Node3&#45;&gt;Node1 -->
<g id="edge3" class="edge"><title>Node3&#45;&gt;Node1</title>
<path fill="none" stroke="#9a32cd" stroke-dasharray="5,2" d="M142.834,-243.994C182.201,-236.342 229.278,-227.19 263.426,-220.553"/>
<polygon fill="#9a32cd" stroke="#9a32cd" points="142.152,-240.561 133.003,-245.905 143.488,-247.432 142.152,-240.561"/>
<text text-anchor="middle" x="193.275" y="-244.5" font-family="Helvetica,sans-Serif" font-size="10.00"> _semanticVersion</text>
</g>
<!-- Node4 -->
<g id="node5" class="node"><title>Node4</title>
<g id="a_node5"><a xlink:href="class_arbiter_1_1_shared_user_value.html" target="_top" xlink:title="Arbiter::SharedUserValue\l\&lt; ArbiterSelectedVersion \&gt;">
<polygon fill="white" stroke="black" points="0,-197.5 0,-225.5 134.418,-225.5 134.418,-197.5 0,-197.5"/>
<text text-anchor="start" x="8" y="-213.5" font-family="Helvetica,sans-Serif" font-size="10.00">Arbiter::SharedUserValue</text>
<text text-anchor="middle" x="67.209" y="-203.5" font-family="Helvetica,sans-Serif" font-size="10.00">&lt; ArbiterSelectedVersion &gt;</text>
</a>
</g>
</g>
<!-- Node4&#45;&gt;Node1 -->
<g id="edge4" class="edge"><title>Node4&#45;&gt;Node1</title>
<path fill="none" stroke="#9a32cd" stroke-dasharray="5,2" d="M144.701,-211.5C179.421,-211.5 219.816,-211.5 251.982,-211.5"/>
<polygon fill="#9a32cd" stroke="#9a32cd" points="144.598,-208 134.598,-211.5 144.598,-215 144.598,-208"/>
<text text-anchor="middle" x="193.275" y="-213.5" font-family="Helvetica,sans-Serif" font-size="10.00"> _metadata</text>
</g>
<!-- Node5&#45;&gt;Node0 -->
<g id="edge5" class="edge"><title>Node5&#45;&gt;Node0</title>
<path fill="none" stroke="#9a32cd" stroke-dasharray="5,2" d="M861.827,-157.5C963.452,-157.5 1141.92,-157.5 1236.92,-157.5"/>
<polygon fill="#9a32cd" stroke="#9a32cd" points="861.635,-154 851.635,-157.5 861.635,-161 861.635,-154"/>
<text text-anchor="middle" x="1036.2" y="-159.5" font-family="Helvetica,sans-Serif" font-size="10.00"> createAvailableVersionsList</text>
</g>
<!-- Node6&#45;&gt;Node5 -->
<g id="edge7" class="edge"><title>Node6&#45;&gt;Node5</title>
<path fill="none" stroke="#9a32cd" stroke-dasharray="5,2" d="M631.22,-183.273C663.864,-177.764 700.94,-171.506 730.383,-166.537"/>
<polygon fill="#9a32cd" stroke="#9a32cd" points="630.523,-179.841 621.245,-184.957 631.688,-186.744 630.523,-179.841"/>
<text text-anchor="middle" x="661.926" y="-184.5" font-family="Helvetica,sans-Serif" font-size="10.00"> _versions</text>
</g>
<!-- Node7&#45;&gt;Node0 -->
<g id="edge9" class="edge"><title>Node7&#45;&gt;Node0</title>
<path fill="none" stroke="#9a32cd" stroke-dasharray="5,2" d="M1099.32,-108.37C1134.57,-114.897 1179.42,-123.802 1218.93,-133.5 1236.74,-137.869 1256.46,-143.636 1272.06,-148.422"/>
<polygon fill="#9a32cd" stroke="#9a32cd" points="1099.64,-104.871 1089.17,-106.508 1098.38,-111.756 1099.64,-104.871"/>
<text text-anchor="middle" x="1167.79" y="-135.5" font-family="Helvetica,sans-Serif" font-size="10.00"> createDependencyList</text>
</g>
<!-- Node8 -->
<g id="node9" class="node"><title>Node8</title>
<polygon fill="white" stroke="#bfbfbf" points="702.714,-88.5 702.714,-106.5 867.137,-106.5 867.137,-88.5 702.714,-88.5"/>
<text text-anchor="middle" x="784.925" y="-94.5" font-family="Helvetica,sans-Serif" font-size="10.00">std::vector&lt; ArbiterDependency &gt;</text>
</g>
<!-- Node8&#45;&gt;Node7 -->
<g id="edge11" class="edge"><title>Node8&#45;&gt;Node7</title>
<path fill="none" stroke="#9a32cd" stroke-dasharray="5,2" d="M877.445,-97.5C910.842,-97.5 947.659,-97.5 977.32,-97.5"/>
<polygon fill="#9a32cd" stroke="#9a32cd" points="877.202,-94.0001 867.202,-97.5 877.202,-101 877.202,-94.0001"/>
<text text-anchor="middle" x="920.444" y="-99.5" font-family="Helvetica,sans-Serif" font-size="10.00"> _dependencies</text>
</g>
<!-- Node9&#45;&gt;Node8 -->
<g id="edge12" class="edge"><title>Node9&#45;&gt;Node8</title>
<path fill="none" stroke="#9a32cd" stroke-dasharray="5,2" d="M612.884,-97.5C640.174,-97.5 672.883,-97.5 702.356,-97.5"/>
<polygon fill="#9a32cd" stroke="#9a32cd" points="612.708,-94.0001 602.708,-97.5 612.708,-101 612.708,-94.0001"/>
<text text-anchor="middle" x="661.926" y="-99.5" font-family="Helvetica,sans-Serif" font-size="10.00"> elements</text>
</g>
<!-- Node10&#45;&gt;Node9 -->
<g id="edge14" class="edge"><title>Node10&#45;&gt;Node9</title>
<path fill="none" stroke="#9a32cd" stroke-dasharray="5,2" d="M378.733,-83.088C417.406,-86.3262 465.299,-90.3363 500.738,-93.3037"/>
<polygon fill="#9a32cd" stroke="#9a32cd" points="378.859,-79.5864 368.602,-82.2397 378.275,-86.562 378.859,-79.5864"/>
<text text-anchor="middle" x="426.215" y="-92.5" font-family="Helvetica,sans-Serif" font-size="10.00"> _projectIdentifier</text>
</g>
<!-- Node11 -->
<g id="node12" class="node"><title>Node11</title>
<g id="a_node12"><a xlink:href="class_arbiter_1_1_shared_user_value.html" target="_top" xlink:title="Arbiter::SharedUserValue\l\&lt; ArbiterProjectIdentifier \&gt;">
<polygon fill="white" stroke="black" points="1.39893,-0.5 1.39893,-28.5 133.019,-28.5 133.019,-0.5 1.39893,-0.5"/>
<text text-anchor="start" x="9.39893" y="-16.5" font-family="Helvetica,sans-Serif" font-size="10.00">Arbiter::SharedUserValue</text>
<text text-anchor="middle" x="67.209" y="-6.5" font-family="Helvetica,sans-Serif" font-size="10.00">&lt; ArbiterProjectIdentifier &gt;</text>
</a>
</g>
</g>
<!-- Node11&#45;&gt;Node10 -->
<g id="edge16" class="edge"><title>Node11&#45;&gt;Node10</title>
<path fill="none" stroke="#9a32cd" stroke-dasharray="5,2" d="M132.019,-31.1263C177.873,-43.074 237.947,-58.727 275.249,-68.4464"/>
<polygon fill="#9a32cd" stroke="#9a32cd" points="132.729,-27.6946 122.17,-28.56 130.964,-34.4684 132.729,-27.6946"/>
<text text-anchor="middle" x="193.275" y="-59.5" font-family="Helvetica,sans-Serif" font-size="10.00"> _value</text>
</g>
</g>
</svg>
