<?xml version="1.0" encoding="UTF-8" standalone="no"?>
<!DOCTYPE svg PUBLIC "-//W3C//DTD SVG 1.1//EN"
 "http://www.w3.org/Graphics/SVG/1.1/DTD/svg11.dtd">
<!-- Generated by graphviz version 2.38.0 (20140413.2041)
 -->
<!-- Title: ArbiterResolverBehaviors Pages: 1 -->
<svg width="563pt" height="164pt"
 viewBox="0.00 0.00 563.10 164.00" xmlns="http://www.w3.org/2000/svg" xmlns:xlink="http://www.w3.org/1999/xlink">
<g id="graph0" class="graph" transform="scale(1 1) rotate(0) translate(4 160)">
<title>ArbiterResolverBehaviors</title>
<polygon fill="white" stroke="none" points="-4,4 -4,-160 559.104,-160 559.104,4 -4,4"/>
<!-- Node1 -->
<g id="node1" class="node"><title>Node1</title>
<polygon fill="#bfbfbf" stroke="black" points="425.726,-73.5 425.726,-91.5 555.104,-91.5 555.104,-73.5 425.726,-73.5"/>
<text text-anchor="middle" x="490.415" y="-79.5" font-family="Helvetica,sans-Serif" font-size="10.00">ArbiterResolverBehaviors</text>
</g>
<!-- Node2 -->
<g id="node2" class="node"><title>Node2</title>
<polygon fill="white" stroke="#bfbfbf" points="21.04,-97.5 21.04,-155.5 265.463,-155.5 265.463,-97.5 21.04,-97.5"/>
<text text-anchor="start" x="29.04" y="-143.5" font-family="Helvetica,sans-Serif" font-size="10.00">void(*)(ArbiterDependency</text>
<text text-anchor="start" x="29.04" y="-133.5" font-family="Helvetica,sans-Serif" font-size="10.00">ListFetch fetch, void(*onSuccess)</text>
<text text-anchor="start" x="29.04" y="-123.5" font-family="Helvetica,sans-Serif" font-size="10.00">(ArbiterDependencyListFetch fetch,</text>
<text text-anchor="start" x="29.04" y="-113.5" font-family="Helvetica,sans-Serif" font-size="10.00"> const ArbiterDependencyList *fetchedList)</text>
<text text-anchor="middle" x="143.251" y="-103.5" font-family="Helvetica,sans-Serif" font-size="10.00">, void(*onError)(ArbiterDependencyListFetch fetch))</text>
</g>
<!-- Node2&#45;&gt;Node1 -->
<g id="edge1" class="edge"><title>Node2&#45;&gt;Node1</title>
<path fill="none" stroke="#9a32cd" stroke-dasharray="5,2" d="M276.103,-109.692C327.268,-103.17 383.498,-96.0019 425.375,-90.6635"/>
<polygon fill="#9a32cd" stroke="#9a32cd" points="275.42,-106.251 265.943,-110.987 276.306,-113.195 275.42,-106.251"/>
<text text-anchor="middle" x="356.114" y="-107.5" font-family="Helvetica,sans-Serif" font-size="10.00"> fetchDependencyList</text>
</g>
<!-- Node3 -->
<g id="node3" class="node"><title>Node3</title>
<polygon fill="white" stroke="#bfbfbf" points="0,-0.5 0,-78.5 286.503,-78.5 286.503,-0.5 0,-0.5"/>
<text text-anchor="start" x="8" y="-66.5" font-family="Helvetica,sans-Serif" font-size="10.00">void(*)(ArbiterAvailable</text>
<text text-anchor="start" x="8" y="-56.5" font-family="Helvetica,sans-Serif" font-size="10.00">VersionsFetch fetch, void</text>
<text text-anchor="start" x="8" y="-46.5" font-family="Helvetica,sans-Serif" font-size="10.00">(*onNext)(ArbiterAvailableVersions</text>
<text text-anchor="start" x="8" y="-36.5" font-family="Helvetica,sans-Serif" font-size="10.00">Fetch fetch, const ArbiterSelectedVersion</text>
<text text-anchor="start" x="8" y="-26.5" font-family="Helvetica,sans-Serif" font-size="10.00"> *nextVersion), void(*onCompleted)(ArbiterAvailable</text>
<text text-anchor="start" x="8" y="-16.5" font-family="Helvetica,sans-Serif" font-size="10.00">VersionsFetch fetch), void(*onError)(ArbiterAvailableVersions</text>
<text text-anchor="middle" x="143.251" y="-6.5" font-family="Helvetica,sans-Serif" font-size="10.00">Fetch fetch))</text>
</g>
<!-- Node3&#45;&gt;Node1 -->
<g id="edge2" class="edge"><title>Node3&#45;&gt;Node1</title>
<path fill="none" stroke="#9a32cd" stroke-dasharray="5,2" d="M296.578,-58.4766C341.906,-64.1235 389.123,-70.0058 425.49,-74.5364"/>
<polygon fill="#9a32cd" stroke="#9a32cd" points="296.991,-55.0012 286.635,-57.238 296.126,-61.9475 296.991,-55.0012"/>
<text text-anchor="middle" x="356.114" y="-73.5" font-family="Helvetica,sans-Serif" font-size="10.00"> fetchAvailableVersions</text>
</g>
</g>
</svg>
