<?xml version="1.0" encoding="UTF-8" standalone="no"?>
<!DOCTYPE svg PUBLIC "-//W3C//DTD SVG 1.1//EN"
 "http://www.w3.org/Graphics/SVG/1.1/DTD/svg11.dtd">
<!-- Generated by graphviz version 2.38.0 (20140413.2041)
 -->
<!-- Title: ArbiterAvailableVersionsFetch Pages: 1 -->
<svg width="226pt" height="167pt"
 viewBox="0.00 0.00 225.92 167.00" xmlns="http://www.w3.org/2000/svg" xmlns:xlink="http://www.w3.org/1999/xlink">
<g id="graph0" class="graph" transform="scale(1 1) rotate(0) translate(4 163)">
<title>ArbiterAvailableVersionsFetch</title>
<polygon fill="white" stroke="none" points="-4,4 -4,-163 221.921,-163 221.921,4 -4,4"/>
<!-- Node1 -->
<g id="node1" class="node"><title>Node1</title>
<polygon fill="#bfbfbf" stroke="black" points="38.3564,-0.5 38.3564,-28.5 162.574,-28.5 162.574,-0.5 38.3564,-0.5"/>
<text text-anchor="start" x="46.3564" y="-16.5" font-family="Helvetica,sans-Serif" font-size="10.00">ArbiterAvailableVersions</text>
<text text-anchor="middle" x="100.465" y="-6.5" font-family="Helvetica,sans-Serif" font-size="10.00">Fetch</text>
</g>
<!-- Node2 -->
<g id="node2" class="node"><title>Node2</title>
<g id="a_node2"><a xlink:href="struct_arbiter_project_identifier.html" target="_top" xlink:title="An opaque value which identifies a project participating in dependency resolution. ">
<polygon fill="white" stroke="black" points="0,-75.5 0,-93.5 114.931,-93.5 114.931,-75.5 0,-75.5"/>
<text text-anchor="middle" x="57.4653" y="-81.5" font-family="Helvetica,sans-Serif" font-size="10.00">ArbiterProjectIdentifier</text>
</a>
</g>
</g>
<!-- Node2&#45;&gt;Node1 -->
<g id="edge1" class="edge"><title>Node2&#45;&gt;Node1</title>
<path fill="none" stroke="#9a32cd" stroke-dasharray="5,2" d="M68.1315,-66.6325C75.5438,-54.9109 85.2817,-39.5114 92.1267,-28.6867"/>
<polygon fill="#9a32cd" stroke="#9a32cd" points="64.9533,-65.1099 62.5669,-75.4325 70.8697,-68.8512 64.9533,-65.1099"/>
<text text-anchor="middle" x="96.8618" y="-49" font-family="Helvetica,sans-Serif" font-size="10.00"> project</text>
</g>
<!-- Node3 -->
<g id="node3" class="node"><title>Node3</title>
<g id="a_node3"><a xlink:href="class_arbiter_1_1_shared_user_value.html" target="_top" xlink:title="Expresses shared ownership of opaque user&#45;provided data, which was originally described in an Arbiter...">
<polygon fill="white" stroke="black" points="58.8613,-140.5 58.8613,-158.5 188.069,-158.5 188.069,-140.5 58.8613,-140.5"/>
<text text-anchor="middle" x="123.465" y="-146.5" font-family="Helvetica,sans-Serif" font-size="10.00">Arbiter::SharedUserValue</text>
</a>
</g>
</g>
<!-- Node3&#45;&gt;Node2 -->
<g id="edge2" class="edge"><title>Node3&#45;&gt;Node2</title>
<path fill="none" stroke="#9a32cd" stroke-dasharray="5,2" d="M107.423,-133.187C94.3207,-120.68 76.321,-103.499 65.8871,-93.539"/>
<polygon fill="#9a32cd" stroke="#9a32cd" points="105.187,-135.891 114.837,-140.264 110.02,-130.827 105.187,-135.891"/>
<text text-anchor="middle" x="110.588" y="-114" font-family="Helvetica,sans-Serif" font-size="10.00"> _value</text>
</g>
<!-- Node4 -->
<g id="node4" class="node"><title>Node4</title>
<g id="a_node4"><a xlink:href="struct_arbiter_resolver.html" target="_top" xlink:title="A dependency resolver which contains context about how to evaluate the dependency graph...">
<polygon fill="white" stroke="black" points="133.01,-75.5 133.01,-93.5 217.921,-93.5 217.921,-75.5 133.01,-75.5"/>
<text text-anchor="middle" x="175.465" y="-81.5" font-family="Helvetica,sans-Serif" font-size="10.00">ArbiterResolver</text>
</a>
</g>
</g>
<!-- Node3&#45;&gt;Node4 -->
<g id="edge4" class="edge"><title>Node3&#45;&gt;Node4</title>
<path fill="none" stroke="#9a32cd" stroke-dasharray="5,2" d="M136.693,-132.474C146.961,-120.034 160.764,-103.311 168.83,-93.539"/>
<polygon fill="#9a32cd" stroke="#9a32cd" points="133.93,-130.324 130.263,-140.264 139.328,-134.78 133.93,-130.324"/>
<text text-anchor="middle" x="173.756" y="-114" font-family="Helvetica,sans-Serif" font-size="10.00"> _context</text>
</g>
<!-- Node4&#45;&gt;Node1 -->
<g id="edge3" class="edge"><title>Node4&#45;&gt;Node1</title>
<path fill="none" stroke="#9a32cd" stroke-dasharray="5,2" d="M159.143,-68.7009C145.99,-56.7753 127.665,-40.1609 115.009,-28.6867"/>
<polygon fill="#9a32cd" stroke="#9a32cd" points="156.808,-71.3085 166.567,-75.4325 161.51,-66.1226 156.808,-71.3085"/>
<text text-anchor="middle" x="164.638" y="-49" font-family="Helvetica,sans-Serif" font-size="10.00"> resolver</text>
</g>
</g>
</svg>
