<?xml version="1.0" encoding="UTF-8" standalone="no"?>
<!DOCTYPE svg PUBLIC "-//W3C//DTD SVG 1.1//EN"
 "http://www.w3.org/Graphics/SVG/1.1/DTD/svg11.dtd">
<!-- Generated by graphviz version 2.38.0 (20140413.2041)
 -->
<!-- Title: ArbiterResolver Pages: 1 -->
<svg width="137pt" height="102pt"
 viewBox="0.00 0.00 137.21 102.00" xmlns="http://www.w3.org/2000/svg" xmlns:xlink="http://www.w3.org/1999/xlink">
<g id="graph0" class="graph" transform="scale(1 1) rotate(0) translate(4 98)">
<title>ArbiterResolver</title>
<polygon fill="white" stroke="none" points="-4,4 -4,-98 133.208,-98 133.208,4 -4,4"/>
<!-- Node1 -->
<g id="node1" class="node"><title>Node1</title>
<polygon fill="#bfbfbf" stroke="black" points="22.1484,-0.5 22.1484,-18.5 107.06,-18.5 107.06,-0.5 22.1484,-0.5"/>
<text text-anchor="middle" x="64.604" y="-6.5" font-family="Helvetica,sans-Serif" font-size="10.00">ArbiterResolver</text>
</g>
<!-- Node2 -->
<g id="node2" class="node"><title>Node2</title>
<g id="a_node2"><a xlink:href="class_arbiter_1_1_shared_user_value.html" target="_top" xlink:title="Arbiter::SharedUserValue\l\&lt; ArbiterResolver \&gt;">
<polygon fill="white" stroke="black" points="0,-65.5 0,-93.5 129.208,-93.5 129.208,-65.5 0,-65.5"/>
<text text-anchor="start" x="8" y="-81.5" font-family="Helvetica,sans-Serif" font-size="10.00">Arbiter::SharedUserValue</text>
<text text-anchor="middle" x="64.604" y="-71.5" font-family="Helvetica,sans-Serif" font-size="10.00">&lt; ArbiterResolver &gt;</text>
</a>
</g>
</g>
<!-- Node2&#45;&gt;Node1 -->
<g id="edge1" class="edge"><title>Node2&#45;&gt;Node1</title>
<path fill="none" stroke="#9a32cd" stroke-dasharray="5,2" d="M64.604,-55.1036C64.604,-42.547 64.604,-27.8462 64.604,-18.8552"/>
<polygon fill="#9a32cd" stroke="#9a32cd" points="61.1041,-55.3889 64.604,-65.3889 68.1041,-55.389 61.1041,-55.3889"/>
<text text-anchor="middle" x="84.8945" y="-39" font-family="Helvetica,sans-Serif" font-size="10.00"> _context</text>
</g>
</g>
</svg>
