<?xml version="1.0" encoding="UTF-8" standalone="no"?>
<!DOCTYPE svg PUBLIC "-//W3C//DTD SVG 1.1//EN"
 "http://www.w3.org/Graphics/SVG/1.1/DTD/svg11.dtd">
<!-- Generated by graphviz version 2.38.0 (20140413.2041)
 -->
<!-- Title: ArbiterDependency Pages: 1 -->
<svg width="151pt" height="167pt"
 viewBox="0.00 0.00 150.52 167.00" xmlns="http://www.w3.org/2000/svg" xmlns:xlink="http://www.w3.org/1999/xlink">
<g id="graph0" class="graph" transform="scale(1 1) rotate(0) translate(4 163)">
<title>ArbiterDependency</title>
<polygon fill="white" stroke="none" points="-4,4 -4,-163 146.519,-163 146.519,4 -4,4"/>
<!-- Node1 -->
<g id="node1" class="node"><title>Node1</title>
<polygon fill="#bfbfbf" stroke="black" points="15.0073,-0.5 15.0073,-18.5 116.613,-18.5 116.613,-0.5 15.0073,-0.5"/>
<text text-anchor="middle" x="65.8101" y="-6.5" font-family="Helvetica,sans-Serif" font-size="10.00">ArbiterDependency</text>
</g>
<!-- Node2 -->
<g id="node2" class="node"><title>Node2</title>
<g id="a_node2"><a xlink:href="struct_arbiter_project_identifier.html" target="_top" xlink:title="An opaque value which identifies a project participating in dependency resolution. ">
<polygon fill="white" stroke="black" points="8.34473,-65.5 8.34473,-83.5 123.275,-83.5 123.275,-65.5 8.34473,-65.5"/>
<text text-anchor="middle" x="65.8101" y="-71.5" font-family="Helvetica,sans-Serif" font-size="10.00">ArbiterProjectIdentifier</text>
</a>
</g>
</g>
<!-- Node2&#45;&gt;Node1 -->
<g id="edge1" class="edge"><title>Node2&#45;&gt;Node1</title>
<path fill="none" stroke="#9a32cd" stroke-dasharray="5,2" d="M65.8101,-54.9075C65.8101,-42.8146 65.8101,-27.6529 65.8101,-18.539"/>
<polygon fill="#9a32cd" stroke="#9a32cd" points="62.3102,-55.2638 65.8101,-65.2639 69.3102,-55.2639 62.3102,-55.2638"/>
<text text-anchor="middle" x="104.165" y="-39" font-family="Helvetica,sans-Serif" font-size="10.00"> _projectIdentifier</text>
</g>
<!-- Node3 -->
<g id="node3" class="node"><title>Node3</title>
<g id="a_node3"><a xlink:href="class_arbiter_1_1_shared_user_value.html" target="_top" xlink:title="Arbiter::SharedUserValue\l\&lt; ArbiterProjectIdentifier \&gt;">
<polygon fill="white" stroke="black" points="0,-130.5 0,-158.5 131.62,-158.5 131.62,-130.5 0,-130.5"/>
<text text-anchor="start" x="8" y="-146.5" font-family="Helvetica,sans-Serif" font-size="10.00">Arbiter::SharedUserValue</text>
<text text-anchor="middle" x="65.8101" y="-136.5" font-family="Helvetica,sans-Serif" font-size="10.00">&lt; ArbiterProjectIdentifier &gt;</text>
</a>
</g>
</g>
<!-- Node3&#45;&gt;Node2 -->
<g id="edge2" class="edge"><title>Node3&#45;&gt;Node2</title>
<path fill="none" stroke="#9a32cd" stroke-dasharray="5,2" d="M65.8101,-120.104C65.8101,-107.547 65.8101,-92.8462 65.8101,-83.8552"/>
<polygon fill="#9a32cd" stroke="#9a32cd" points="62.3102,-120.389 65.8101,-130.389 69.3102,-120.389 62.3102,-120.389"/>
<text text-anchor="middle" x="81.9331" y="-104" font-family="Helvetica,sans-Serif" font-size="10.00"> _value</text>
</g>
</g>
</svg>
