<?xml version="1.0" encoding="UTF-8" standalone="no"?>
<!DOCTYPE svg PUBLIC "-//W3C//DTD SVG 1.1//EN"
 "http://www.w3.org/Graphics/SVG/1.1/DTD/svg11.dtd">
<!-- Generated by graphviz version 2.38.0 (20140413.2041)
 -->
<!-- Title: ArbiterResolver Pages: 1 -->
<svg width="226pt" height="92pt"
 viewBox="0.00 0.00 225.94 92.00" xmlns="http://www.w3.org/2000/svg" xmlns:xlink="http://www.w3.org/1999/xlink">
<g id="graph0" class="graph" transform="scale(1 1) rotate(0) translate(4 88)">
<title>ArbiterResolver</title>
<polygon fill="white" stroke="none" points="-4,4 -4,-88 221.936,-88 221.936,4 -4,4"/>
<!-- Node0 -->
<g id="node1" class="node"><title>Node0</title>
<polygon fill="#bfbfbf" stroke="black" points="53.4458,-0.5 53.4458,-18.5 138.357,-18.5 138.357,-0.5 53.4458,-0.5"/>
<text text-anchor="middle" x="95.9014" y="-6.5" font-family="Helvetica,sans-Serif" font-size="10.00">ArbiterResolver</text>
</g>
<!-- Node1 -->
<g id="node2" class="node"><title>Node1</title>
<g id="a_node2"><a xlink:href="class_arbiter_1_1_base.html" target="_top" xlink:title="Base class for public&#45;facing Arbiter types, such that they automatically get freeing, cloning, equality, and description functionality. ">
<polygon fill="white" stroke="black" points="0,-65.5 0,-83.5 73.8027,-83.5 73.8027,-65.5 0,-65.5"/>
<text text-anchor="middle" x="36.9014" y="-71.5" font-family="Helvetica,sans-Serif" font-size="10.00">Arbiter::Base</text>
</a>
</g>
</g>
<!-- Node1&#45;&gt;Node0 -->
<g id="edge1" class="edge"><title>Node1&#45;&gt;Node0</title>
<path fill="none" stroke="midnightblue" d="M51.5747,-57.8318C63.2579,-45.3566 79.1336,-28.4046 88.3728,-18.539"/>
<polygon fill="midnightblue" stroke="midnightblue" points="48.8955,-55.5724 44.6146,-65.2639 54.0048,-60.3573 48.8955,-55.5724"/>
</g>
<!-- Node2 -->
<g id="node3" class="node"><title>Node2</title>
<polygon fill="white" stroke="#bfbfbf" points="91.8672,-65.5 91.8672,-83.5 217.936,-83.5 217.936,-65.5 91.8672,-65.5"/>
<text text-anchor="middle" x="154.901" y="-71.5" font-family="Helvetica,sans-Serif" font-size="10.00">shared_ptr&lt; const void &gt;</text>
</g>
<!-- Node2&#45;&gt;Node0 -->
<g id="edge2" class="edge"><title>Node2&#45;&gt;Node0</title>
<path fill="none" stroke="#9a32cd" stroke-dasharray="5,2" d="M140.228,-57.8318C128.545,-45.3566 112.669,-28.4046 103.43,-18.539"/>
<polygon fill="#9a32cd" stroke="#9a32cd" points="137.798,-60.3573 147.188,-65.2639 142.907,-55.5724 137.798,-60.3573"/>
<text text-anchor="middle" x="150.192" y="-39" font-family="Helvetica,sans-Serif" font-size="10.00"> _context</text>
</g>
</g>
</svg>
