<?xml version="1.0" encoding="UTF-8" standalone="no"?>
<!DOCTYPE svg PUBLIC "-//W3C//DTD SVG 1.1//EN"
 "http://www.w3.org/Graphics/SVG/1.1/DTD/svg11.dtd">
<!-- Generated by graphviz version 2.38.0 (20140413.2041)
 -->
<!-- Title: Arbiter::Exception::UnsatisfiableConstraints Pages: 1 -->
<svg width="137pt" height="212pt"
 viewBox="0.00 0.00 137.38 212.00" xmlns="http://www.w3.org/2000/svg" xmlns:xlink="http://www.w3.org/1999/xlink">
<g id="graph0" class="graph" transform="scale(1 1) rotate(0) translate(4 208)">
<title>Arbiter::Exception::UnsatisfiableConstraints</title>
<polygon fill="white" stroke="none" points="-4,4 -4,-208 133.384,-208 133.384,4 -4,4"/>
<!-- Node1 -->
<g id="node1" class="node"><title>Node1</title>
<polygon fill="#bfbfbf" stroke="black" points="0,-0.5 0,-28.5 129.384,-28.5 129.384,-0.5 0,-0.5"/>
<text text-anchor="start" x="8" y="-16.5" font-family="Helvetica,sans-Serif" font-size="10.00">Arbiter::Exception</text>
<text text-anchor="middle" x="64.6919" y="-6.5" font-family="Helvetica,sans-Serif" font-size="10.00">::UnsatisfiableConstraints</text>
</g>
<!-- Node2 -->
<g id="node2" class="node"><title>Node2</title>
<g id="a_node2"><a xlink:href="struct_arbiter_1_1_exception_1_1_base.html" target="_top" xlink:title="Base type for Arbiter exceptions. ">
<polygon fill="white" stroke="black" points="17.229,-65.5 17.229,-93.5 112.155,-93.5 112.155,-65.5 17.229,-65.5"/>
<text text-anchor="start" x="25.229" y="-81.5" font-family="Helvetica,sans-Serif" font-size="10.00">Arbiter::Exception</text>
<text text-anchor="middle" x="64.6919" y="-71.5" font-family="Helvetica,sans-Serif" font-size="10.00">::Base</text>
</a>
</g>
</g>
<!-- Node2&#45;&gt;Node1 -->
<g id="edge1" class="edge"><title>Node2&#45;&gt;Node1</title>
<path fill="none" stroke="midnightblue" d="M64.6919,-55.1641C64.6919,-46.1693 64.6919,-36.2205 64.6919,-28.5369"/>
<polygon fill="midnightblue" stroke="midnightblue" points="61.192,-55.4463 64.6919,-65.4464 68.192,-55.4464 61.192,-55.4463"/>
</g>
<!-- Node3 -->
<g id="node3" class="node"><title>Node3</title>
<g id="a_node3"><a xlink:title="STL class. ">
<polygon fill="white" stroke="#bfbfbf" points="17.2339,-130.5 17.2339,-148.5 112.15,-148.5 112.15,-130.5 17.2339,-130.5"/>
<text text-anchor="middle" x="64.6919" y="-136.5" font-family="Helvetica,sans-Serif" font-size="10.00">std::runtime_error</text>
</a>
</g>
</g>
<!-- Node3&#45;&gt;Node2 -->
<g id="edge2" class="edge"><title>Node3&#45;&gt;Node2</title>
<path fill="none" stroke="midnightblue" d="M64.6919,-120.321C64.6919,-111.747 64.6919,-101.7 64.6919,-93.8428"/>
<polygon fill="midnightblue" stroke="midnightblue" points="61.192,-120.435 64.6919,-130.435 68.192,-120.435 61.192,-120.435"/>
</g>
<!-- Node4 -->
<g id="node4" class="node"><title>Node4</title>
<g id="a_node4"><a xlink:title="STL class. ">
<polygon fill="white" stroke="#bfbfbf" points="25.8398,-185.5 25.8398,-203.5 103.544,-203.5 103.544,-185.5 25.8398,-185.5"/>
<text text-anchor="middle" x="64.6919" y="-191.5" font-family="Helvetica,sans-Serif" font-size="10.00">std::exception</text>
</a>
</g>
</g>
<!-- Node4&#45;&gt;Node3 -->
<g id="edge3" class="edge"><title>Node4&#45;&gt;Node3</title>
<path fill="none" stroke="midnightblue" d="M64.6919,-175.175C64.6919,-166.094 64.6919,-155.595 64.6919,-148.55"/>
<polygon fill="midnightblue" stroke="midnightblue" points="61.192,-175.219 64.6919,-185.219 68.192,-175.219 61.192,-175.219"/>
</g>
</g>
</svg>
