<?xml version="1.0" encoding="UTF-8" standalone="no"?>
<!DOCTYPE svg PUBLIC "-//W3C//DTD SVG 1.1//EN"
 "http://www.w3.org/Graphics/SVG/1.1/DTD/svg11.dtd">
<!-- Generated by graphviz version 2.38.0 (20140413.2041)
 -->
<!-- Title: ArbiterResolverCallbacks Pages: 1 -->
<svg width="415pt" height="104pt"
 viewBox="0.00 0.00 415.05 104.00" xmlns="http://www.w3.org/2000/svg" xmlns:xlink="http://www.w3.org/1999/xlink">
<g id="graph0" class="graph" transform="scale(1 1) rotate(0) translate(4 100)">
<title>ArbiterResolverCallbacks</title>
<polygon fill="white" stroke="none" points="-4,4 -4,-100 411.053,-100 411.053,4 -4,4"/>
<!-- Node1 -->
<g id="node1" class="node"><title>Node1</title>
<polygon fill="#bfbfbf" stroke="black" points="278.792,-33.5 278.792,-51.5 407.053,-51.5 407.053,-33.5 278.792,-33.5"/>
<text text-anchor="middle" x="342.922" y="-39.5" font-family="Helvetica,sans-Serif" font-size="10.00">ArbiterResolverCallbacks</text>
</g>
<!-- Node2 -->
<g id="node2" class="node"><title>Node2</title>
<polygon fill="white" stroke="#bfbfbf" points="0,-47.5 0,-95.5 191.098,-95.5 191.098,-47.5 0,-47.5"/>
<text text-anchor="start" x="8" y="-83.5" font-family="Helvetica,sans-Serif" font-size="10.00">void(*)(const ArbiterResolver</text>
<text text-anchor="start" x="8" y="-73.5" font-family="Helvetica,sans-Serif" font-size="10.00"> *resolver, const ArbiterProject</text>
<text text-anchor="start" x="8" y="-63.5" font-family="Helvetica,sans-Serif" font-size="10.00">Identifier *project, const ArbiterSelected</text>
<text text-anchor="middle" x="95.5488" y="-53.5" font-family="Helvetica,sans-Serif" font-size="10.00">Version *selectedVersion)</text>
</g>
<!-- Node2&#45;&gt;Node1 -->
<g id="edge1" class="edge"><title>Node2&#45;&gt;Node1</title>
<path fill="none" stroke="#9a32cd" stroke-dasharray="5,2" d="M201.437,-59.1035C227.753,-55.9933 255.185,-52.7512 278.751,-49.966"/>
<polygon fill="#9a32cd" stroke="#9a32cd" points="200.937,-55.6382 191.417,-60.2878 201.758,-62.5899 200.937,-55.6382"/>
<text text-anchor="middle" x="234.945" y="-59.5" font-family="Helvetica,sans-Serif" font-size="10.00"> onSuccess</text>
</g>
<!-- Node3 -->
<g id="node3" class="node"><title>Node3</title>
<polygon fill="white" stroke="#bfbfbf" points="15.5713,-0.5 15.5713,-28.5 175.526,-28.5 175.526,-0.5 15.5713,-0.5"/>
<text text-anchor="start" x="23.5713" y="-16.5" font-family="Helvetica,sans-Serif" font-size="10.00">void(*)(const ArbiterResolver</text>
<text text-anchor="middle" x="95.5488" y="-6.5" font-family="Helvetica,sans-Serif" font-size="10.00"> *resolver, const char *message)</text>
</g>
<!-- Node3&#45;&gt;Node1 -->
<g id="edge2" class="edge"><title>Node3&#45;&gt;Node1</title>
<path fill="none" stroke="#9a32cd" stroke-dasharray="5,2" d="M185.837,-24.6889C216.589,-28.198 250.371,-32.0529 278.618,-35.2762"/>
<polygon fill="#9a32cd" stroke="#9a32cd" points="185.87,-21.1699 175.537,-23.5135 185.076,-28.1248 185.87,-21.1699"/>
<text text-anchor="middle" x="234.945" y="-34.5" font-family="Helvetica,sans-Serif" font-size="10.00"> onError</text>
</g>
</g>
</svg>
