<?xml version="1.0" encoding="UTF-8" standalone="no"?>
<!DOCTYPE svg PUBLIC "-//W3C//DTD SVG 1.1//EN"
 "http://www.w3.org/Graphics/SVG/1.1/DTD/svg11.dtd">
<!-- Generated by graphviz version 2.38.0 (20140413.2041)
 -->
<!-- Title: Arbiter::Exception::Base Pages: 1 -->
<svg width="103pt" height="147pt"
 viewBox="0.00 0.00 102.93 147.00" xmlns="http://www.w3.org/2000/svg" xmlns:xlink="http://www.w3.org/1999/xlink">
<g id="graph0" class="graph" transform="scale(1 1) rotate(0) translate(4 143)">
<title>Arbiter::Exception::Base</title>
<polygon fill="white" stroke="none" points="-4,4 -4,-143 98.9258,-143 98.9258,4 -4,4"/>
<!-- Node0 -->
<g id="node1" class="node"><title>Node0</title>
<polygon fill="#bfbfbf" stroke="black" points="0,-0.5 0,-28.5 94.9258,-28.5 94.9258,-0.5 0,-0.5"/>
<text text-anchor="start" x="8" y="-16.5" font-family="Helvetica,sans-Serif" font-size="10.00">Arbiter::Exception</text>
<text text-anchor="middle" x="47.4629" y="-6.5" font-family="Helvetica,sans-Serif" font-size="10.00">::Base</text>
</g>
<!-- Node1 -->
<g id="node2" class="node"><title>Node1</title>
<g id="a_node2"><a xlink:title="STL class. ">
<polygon fill="white" stroke="#bfbfbf" points="0.00488281,-65.5 0.00488281,-83.5 94.9209,-83.5 94.9209,-65.5 0.00488281,-65.5"/>
<text text-anchor="middle" x="47.4629" y="-71.5" font-family="Helvetica,sans-Serif" font-size="10.00">std::runtime_error</text>
</a>
</g>
</g>
<!-- Node1&#45;&gt;Node0 -->
<g id="edge1" class="edge"><title>Node1&#45;&gt;Node0</title>
<path fill="none" stroke="midnightblue" d="M47.4629,-55.3209C47.4629,-46.747 47.4629,-36.6999 47.4629,-28.8428"/>
<polygon fill="midnightblue" stroke="midnightblue" points="43.963,-55.4353 47.4629,-65.4353 50.963,-55.4354 43.963,-55.4353"/>
</g>
<!-- Node2 -->
<g id="node3" class="node"><title>Node2</title>
<g id="a_node3"><a xlink:title="STL class. ">
<polygon fill="white" stroke="#bfbfbf" points="8.61084,-120.5 8.61084,-138.5 86.3149,-138.5 86.3149,-120.5 8.61084,-120.5"/>
<text text-anchor="middle" x="47.4629" y="-126.5" font-family="Helvetica,sans-Serif" font-size="10.00">std::exception</text>
</a>
</g>
</g>
<!-- Node2&#45;&gt;Node1 -->
<g id="edge2" class="edge"><title>Node2&#45;&gt;Node1</title>
<path fill="none" stroke="midnightblue" d="M47.4629,-110.175C47.4629,-101.094 47.4629,-90.5949 47.4629,-83.5496"/>
<polygon fill="midnightblue" stroke="midnightblue" points="43.963,-110.219 47.4629,-120.219 50.963,-110.219 43.963,-110.219"/>
</g>
</g>
</svg>
